<?xml version="1.0" encoding="utf-8"?>
<!-- Generator: Adobe Illustrator 28.1.0, SVG Export Plug-In . SVG Version: 6.00 Build 0)  -->
<svg version="1.1" id="Layer_1" xmlns="http://www.w3.org/2000/svg" xmlns:xlink="http://www.w3.org/1999/xlink" x="0px" y="0px"
	 viewBox="0 0 1280 720" style="enable-background:new 0 0 1280 720;" xml:space="preserve">
<style type="text/css">
	.st0{fill:#FFDEB3;}
	.st1{display:none;fill:#FFFFFF;}
	.st2{display:none;fill:#FFF9D9;}
	.st3{fill:#103A47;}
	.st4{fill:#FF9900;}
	.st5{fill:#D67A00;}
	.st6{fill:#EA9B7D;}
	.st7{fill:#DD856F;}
	.st8{fill:#105060;}
	.st9{fill:#145D73;}
	.st10{fill:#165666;}
	.st11{fill:#8D95A3;}
	.st12{fill:#0A3947;}
	.st13{fill:#777C84;}
	.st14{fill:#808795;}
	.st15{fill:#F4CA98;}
	.st16{fill:#EDD2AE;}
</style>
<path class="st0" d="M0,318.7c51.6-24.96,131.5-63.85,229.54-112.64c145.8-72.57,161.25-82.19,190.45-90.11
	c68.75-18.67,163.33-14.26,387.91,145.77C929.62,348.45,1098.2,487.08,1280,703c-0.33-235-0.67-470-1-705H-2L0,318.7z"/>
<rect x="342.15" y="109.64" class="st1" width="553.85" height="553.85"/>
<rect x="342.15" y="109.64" class="st2" width="553.85" height="553.85"/>
<g>
	<path class="st3" d="M647.16,220.41c7.53,14.98,5.48,70.54,26.71,90.82c21.23,20.28-97.92,8.63-97.92,8.63l15.07-105.28
		L647.16,220.41z"/>
	<path class="st4" d="M566.09,624.39c-0.34,2.61-7.71,6.88-18.14,10.82c-1.77,0.67-3.62,1.33-5.55,1.97
		c-12.38,4.12-27.57,7.46-40.38,7.46c-24.64,0-13.65-20.01-2.54-26.92c0.17-0.11,0.34-0.21,0.51-0.31c0.68-0.4,1.36-0.75,2.04-1.04
		C502.03,616.38,566.85,618.49,566.09,624.39z"/>
	<path class="st5" d="M566.09,624.39c-0.34,2.61-7.71,6.88-18.14,10.82c-12.28-3.16-33.35-11.02-47.97-17.8
		c0.68-0.4,1.36-0.75,2.04-1.04C502.03,616.38,566.85,618.49,566.09,624.39z"/>
	<path class="st6" d="M679.25,331.5c-7.84,2.02,4.99,115.52-2.85,117.54c-10.61,2.73-111.83-6.9-122.44-4.17l5.12-124.53
		c0,0,15.25-8.15,27.8-18.4c0.57-0.47,1.14-0.94,1.7-1.41c0.52-0.44,1.03-0.89,1.54-1.34c0.56-0.49,1.1-0.99,1.64-1.49
		c1.36-1.27,2.66-2.57,3.85-3.87c4.54-4.97,7.59-10.05,7.44-14.69c0-0.04,0-0.08,0-0.12c-0.29-6.72,4.59-10.79,10.71-13.26
		c5.31-2.14,11.54-3.08,16.12-3.48c0.89-0.08,1.72-0.14,2.47-0.18c1.76-0.11,3.07-0.13,3.68-0.13c0,0.02,0.01,0.04,0.02,0.06
		c0.09,0.39,0.18,0.79,0.26,1.19c0.1,0.46,0.19,0.93,0.27,1.4c0.19,1.08,0.35,2.19,0.5,3.31v0.01c0.02,0.11,0.03,0.21,0.05,0.31
		c0.92,6.71,2.33,12.23,4.62,17.04c0.09,0.19,0.18,0.38,0.28,0.56c1.22,2.46,2.68,4.74,4.45,6.91c0.05,0.06,0.1,0.12,0.15,0.18
		c1.08,1.32,2.27,2.59,3.6,3.85c2.23,2.11,4.81,4.14,7.81,6.18C669.2,310.56,683.9,330.3,679.25,331.5z"/>
	<path class="st7" d="M642.02,285.85c-3.96,5.91-11.19,16.39-20.97,18.76c-11.66,2.82-24.63-0.27-32.48-4.08
		c0.52-0.44,1.03-0.89,1.54-1.34c0.56-0.49,1.1-0.99,1.64-1.49c1.36-1.27,2.66-2.57,3.85-3.87c4.54-4.97,7.59-10.05,7.44-14.69
		c0-0.04,0-0.08,0-0.12c-0.29-6.72,4.59-10.79,10.71-13.26c5.31-2.14,11.54-3.08,16.12-3.48c0.89-0.08,1.72-0.14,2.47-0.18
		l3.95,1.12c0.1,0.46,0.19,0.93,0.27,1.4c0.19,1.08,0.35,2.19,0.5,3.31v0.01c0.02,0.11,0.03,0.21,0.05,0.31
		c0.92,6.71,2.33,12.23,4.62,17.04C641.84,285.48,641.93,285.66,642.02,285.85z"/>
	<path class="st6" d="M602.48,176.86c16.29-1.22,57.62,9.1,53.83,49.66c-3.79,40.56-23.5,71.27-37.53,72.4
		c-14.03,1.14-46.63-23.88-50.42-56.1C563.3,199.8,577.08,178.76,602.48,176.86z"/>
	<path class="st8" d="M807.34,523.95c-2.49-13.38-15.35-22.21-28.73-19.72c-4.49,0.84-12.85,2.39-87.84,34.35
		c-14.86,6.33-47.61-2.17-84.12-3.11c-31.54-0.81-63.08,1.46-94.62,0.6c-15.37-0.42-31.69-1.91-47.26-4.32
		c-14.28-2.22-29.17-5.44-42.54,2.16c-8.92,5.07-15.17,14.57-16.31,24.77c-1.14,10.2,2.87,20.84,10.46,27.75
		c9.1,8.3,21.96,10.76,34.12,12.7c49.66,7.92,99.82,12.72,150.09,14.38c0.37,0.01,0.75,0.02,1.14,0.02c4.14,0,8.8-0.74,13.21-2.26
		c4.3,3.3,9.6,5.13,15.05,5.13c3.32,0,6.69-0.67,9.92-2.1c63.88-28.13,136.55-58.83,148.01-61.69
		C801.12,550.01,809.81,537.23,807.34,523.95z"/>
	<path class="st7" d="M601.72,191.27c0.79,0.28-1.52,6.44-5.69,9.86c-8.64,7.07-0.85,22.03,2.55,32.22
		c3.28,9.86-0.41,24.64-7.39,28.43c-6.98,3.79-33.23-11.37-33.23-11.37l19.69-67.86C577.66,182.55,601.71,191.26,601.72,191.27z"/>
	<path class="st4" d="M731.59,437.83c-0.58-1.76-1.37-3.45-1.85-5.25c-0.49-1.83-0.65-3.73-0.86-5.62
		c-0.95-8.71-2.4-20.75-6.44-29.55c-4.87-37.21-10.92-73.32-12.49-78.21c-2.71-8.47-39.05-16.94-52.14-19.46
		c-0.55,17.41-18.66,31.4-40.93,31.4c-21.55,0-39.22-13.11-40.82-29.75c-14.27,1.42-59.01,5.26-65.51,22.35
		c-3.7,9.75-10.21,44.74-15.82,77.79c-3.33,6.41-4.5,15.99-6.53,22.72c-0.42,1.38-0.83,2.77-1.46,4.07
		c-1.14,2.35-2.99,4.67-2.57,7.25c0.09,0.6,0.32,1.18,0.36,1.78c0.07,0.97-0.31,1.91-0.67,2.81c-1.76,4.49-2.98,9.19-3.62,13.97
		c-0.5,3.76-0.63,7.71,0.78,11.24c0.99,2.5,2.77,4.95,2.3,7.6c-0.06,0.36-0.16,0.74-0.21,1.11c-1.8,8.32-4,17.47,1.28,24.8
		c6.82,9.48,44.16,42.27,58.95,43.78c10.04,1.03,20.25-7.55,19.84-16.13l109.52-3.28c4.43,13.89,12.33,35.19,17.54,29.46
		c3.61-3.97,11.4-15.05,19.05-28.22c8.33-14.33,16.51-31.15,18.97-44.01c1.53-0.73,2.75-1.93,3.35-3.64
		c0.43-1.22,0.49-2.54,0.55-3.84c0.26-5.99,0.52-11.98,0.77-17.97c0.06-1.46,0.13-2.92,0.15-4.39
		C733.17,446.3,732.95,441.94,731.59,437.83z M535.86,505.23c-5.78-3.92-8.54-7.45-9.19-12.21c-0.27-1.94-0.41-7.77-0.24-16.22
		c1.05-0.91,1.96-2.01,2.67-3.19c1.87-3.15,2.54-6.85,3.08-10.47c0.85-5.63,1.46-11.42,0.25-16.98c-1.05-4.84-1.25-7.29-0.02-12.19
		c0.96-3.81,1.14-6.46,1.16-7.51c-0.04-0.7,0.01-0.67,0,0c0.02,0.37,0.06,0.94,0.16,1.74c0,0.05,0.01,0.1,0.02,0.15
		c0.61,5.64,1.18,11.28,1.63,16.93c0.12,1.47,0.23,2.94,0.34,4.4c0.11,1.43,0.21,2.87,0.31,4.3c0.09,1.38,0.19,2.76,0.27,4.15
		C537.24,473.66,535.46,489.51,535.86,505.23z M690.43,464.2c-0.99,2.83-3.55,8.88-6.56,15.75c-1.18-10.3-2.23-20.25-2.73-26.93
		c-0.09-1.21-0.15-2.6-0.17-4.14c-0.12-8.88,0.86-22.81,2.19-37.38c0.78,1.99,1.59,3.97,1.51,5.88c-0.08,1.93-0.98,3.79-0.8,5.71
		c0.18,1.94,1.46,3.66,1.6,5.6c0.18,2.61-1.71,4.98-1.72,7.6c-0.02,2.79,2.08,5.2,2.3,7.98c0.01,0.08,0.01,0.17,0.02,0.25
		c0.08,2.01-0.76,4.01-0.52,6.01c0.35,2.91,2.84,5.04,5.38,6.56C691,460.47,690.86,462.97,690.43,464.2z"/>
	<path class="st5" d="M592.25,324.7c-1.43,6.32-1.52,12.44-0.76,26.16c0.76,13.71-2.27,18.2-8.72,24.26
		c-6.09,5.73-28.51,4.34-31.56-1c-3.05-5.33,12.57-51.04,12.57-51.04l16.02-11.83L592.25,324.7z"/>
	<path class="st9" d="M813.61,553.81c-4.19,8.89-11.3,16.09-18.99,22.22c-24.52,19.53-55.28,29.36-86.19,35.16
		c-2.05,0.39-4.1,0.75-6.14,1.1c-10.42,1.79-20.88,3.2-31.36,4.55c-7.53,0.97-15.07,1.9-22.6,2.9c-5.61,0.75-11.23,1.53-16.82,2.4
		c-4.18,0.65-9.14,2.06-14.36,3.43c-15.29,4.01-32.78,7.73-39.41-8.75c-0.33-0.81-0.61-1.6-0.85-2.36
		c-4.62-14.98,7.38-21.73,20.7-26.07c3.97-1.29,8.06-2.37,11.85-3.39c3.51-0.94,6.77-1.82,9.47-2.78c3.63-1.29,7.24-2.62,10.84-4
		c17.44-6.7,34.46-14.5,50.91-23.35c1.31-0.71,2.61-1.41,3.9-2.13c25.21-13.89,100.96-74.5,124.93-36.07
		c0.8,1.27,1.53,2.65,2.21,4.15c1.88,4.16,3.33,9.26,3.98,14.45C816.52,541.85,816.07,548.59,813.61,553.81z"/>
	<path class="st10" d="M813.61,553.81c-4.19,8.89-11.3,16.09-18.99,22.22c-24.52,19.53-55.28,29.36-86.19,35.16
		c0.39-0.22,0.77-0.42,1.12-0.6c7.98-4.04,15.46-8.81,23.37-12.85c17.33-8.84,34.63-17.72,50.23-29.45
		c8.65-6.51,16.74-13.81,23.66-22.14c1.39-1.68,5.24-6.07,8.88-10.88C816.52,541.85,816.07,548.59,813.61,553.81z"/>
	<path class="st10" d="M648.33,619.74c-5.61,0.75-11.23,1.53-16.82,2.4c-4.18,0.65-9.14,2.06-14.36,3.43
		c-6.14-0.14-10.49-0.25-10.49-0.25l-29.76-10.85c-4.62-14.98,7.38-21.73,20.7-26.07c3.97-1.29,8.06-2.37,11.85-3.39
		C619.25,594.7,637.38,611.13,648.33,619.74z"/>
	<path class="st4" d="M591.77,634.86c24.86,6.53,40.16,8.92,56.52,8.76s28.83-3.57,54.45-0.93c25.62,2.64,44.12,7.89,44.34-3.27
		s-7.38-24.53-18.59-25.45c-11.21-0.92-10.81-9.65-20.59-9.98c-9.78-0.32-28.1,6.25-38.63,9.81c-10.53,3.56-42.81,0.37-54.04,3.98
		S591.77,634.86,591.77,634.86z"/>
	<path class="st10" d="M704.9,560.11c1.96,13.27-3.93,20.71-28.42,20.47c-15.23-0.15-28.37-0.08-46.72-2.37
		c15.93-6.7,31.47-14.5,46.5-23.35C692.35,558.1,704.24,555.69,704.9,560.11z"/>
	<path class="st5" d="M536.37,404.06c2.66,4.68,6.45,8.77,9.25,13.42c7.51,12.5,4.56,26.26,4.37,40.02
		c-0.16,11.49-0.49,23.31,0.82,34.75c0.93,8.1-26.1-90.6-20.6-103.12c0.35-0.8,0.47-1.73,0.78-2.56c2.98,2.88,1.94,9.06,3.38,13.17
		C534.9,401.26,535.59,402.69,536.37,404.06z"/>
	<path class="st9" d="M650,637.27c-1.57,11.46-5.42,8.9-16.63,7.08c-1.19-0.19-2.41-0.31-3.6-0.53
		c-63.67-11.93-127.64-23.86-189.03-44.67c-14.68-4.97-30.97-12.29-36.19-26.72c-0.2-0.56-0.39-1.12-0.56-1.7
		c-7.41-25.63,16.35-44.03,39.55-39.94c3.24,0.57,6.47,1.43,9.64,2.52c22.56,7.74,48.75,13.72,70.81,22.81
		c25.72,10.6,47.21,24.55,72.13,36.93c10.6,5.26,21.88,9.49,32.57,14.68c4.09,1.98,8.58,3.03,13.12,2.99
		C662.71,610.53,652.87,616.39,650,637.27z"/>
	<path class="st5" d="M690.81,418.71c0.38-2.65-1.52-9.86-4.93-12.89c-1.78-1.58-2.94-4.29-4.12-6.95c-0.79-5.41-2.3-13.1-5.69-10.6
		c-0.27,0.2-0.62,0.88-0.98,1.77c-0.8,1.97-1.68,4.95-2.09,6.02c-1.21,3.13-1.15,6.42-1.15,9.75c0,11.37-3.03,24.64-7.96,32.6
		c-4.93,7.96-5.31,30.33-3.03,41.7c2.27,11.37,15.54,23.5,15.54,23.5s2.17-29.94,3.93-54.25c0.14-0.11,0.36-0.28,0.64-0.5
		c-0.05-3.81,0.1-8.56,0.4-13.89c0.61-8.43,1.05-14.59,1.13-15.93c0-0.01,0-0.03,0-0.04c0.07-0.87,0.15-1.74,0.22-2.61
		c0.16-1.64,0.34-3.27,0.43-4.89c0.78,1.99,1.59,3.97,1.51,5.88c-0.08,1.93-0.98,3.79-0.8,5.71c0.18,1.94,1.46,3.66,1.6,5.6
		c0.18,2.61-1.71,4.98-1.72,7.6c-0.02,2.79,2.08,5.2,2.3,7.98c0.01,0.08,0.01,0.17,0.02,0.25c3.89-3.56,8.29-8.26,8.47-11.41
		C694.85,427.43,690.43,421.37,690.81,418.71z"/>
	<path class="st5" d="M733.08,450.66c-0.03,1.47-0.09,2.93-0.15,4.39c-0.26,5.99-0.52,11.98-0.77,17.97
		c-0.06,1.3-0.12,2.62-0.55,3.84c-0.6,1.7-1.82,2.9-3.35,3.64c-2.47,12.85-10.64,29.67-18.97,44.01c-2.29,0.27-3.03-0.09-1.05-1.54
		c8.34-6.07,8.72-34.88,15.16-49.66C727.8,463.23,730.78,456.31,733.08,450.66z"/>
	<path class="st11" d="M694.67,574.89H528.49c-5.26,0-9.91-4.28-10.39-9.61l-10.74-119.98c-0.6-6.7,3.76-12.19,9.74-12.19h188.95
		c5.98,0,10.34,5.49,9.74,12.19l-10.74,119.98C704.58,570.61,699.93,574.89,694.67,574.89z"/>
	<path class="st10" d="M566.09,625.31c-21.94-4.02-140.94-36.63-161.53-52.88c5.21,14.43,21.51,21.74,36.19,26.72
		c61.39,20.81,125.36,32.73,189.03,44.67c1.19,0.22,2.4,0.41,3.6,0.53C614.03,639.54,585.7,628.91,566.09,625.31z"/>
	<g>
		<path class="st12" d="M601.75,191.09c-0.11,2.36-1.93,4.25-4.28,4.5c-5.54,0.59-9.54,2.43-10.15,16.9
			c-0.76,17.82,15.4,31.56,3.03,49.66c-4.9,7.18-12.25,14.09-17.87,13.53c-10.11-1.01-17.83-9.53-18.24-19.69
			c-0.86-21.12-0.68-65.24,15.07-73.26c20.85-10.61,31.08-18.57,32.22-12.13C602.33,175.1,602.01,185.33,601.75,191.09z"/>
		<path class="st12" d="M583.7,258.55c-4.46-34.43,10.13-78.57,10.13-78.57s21.51-29.04,16.81-34.63
			c-10.73-12.76-42.73,0.61-54.07,34.63c-5.76,17.29-8.69,35.25-11.2,53.26c-1.92,8.23-3.7,16.51-5.15,24.74
			c-1.89,10.71-5.27,21.26-8.53,31.46c-3.37,10.53-6.86,21.42-8.74,32.56c-1.12,6.63-2.56,19.61,0.36,31.99
			c2.89,12.24,9.16,20.54,18.66,24.66c3.7,1.61,7.79,2.39,11.89,2.39c5.36,0,10.75-1.34,15.37-3.93c4.95-0.63,9.43-2.31,12.63-5.35
			c3.95-3.76,5.42-9.45,5.8-14.89c0.68-9.87-0.5-19.67,3.33-29.07c3.42-8.41,10.9-16.11,10.34-25.71
			C600.1,281.03,585.69,273.95,583.7,258.55z M542.56,377.26c-9.03-3.92-15.02-11.87-17.79-23.62c-2.86-12.12-1.44-24.87-0.34-31.39
			c1.86-11.03,5.33-21.87,8.69-32.35c3.28-10.25,6.68-20.84,8.58-31.66c0.28-1.61,0.58-3.23,0.89-4.85
			c-0.09,0.62-0.17,1.23-0.26,1.85c-1.74,12.15-3.05,25.09-7.34,36.58c-6.13,16.4-10.64,32.73-9.42,50.48
			c0.67,9.84,4.11,19.98,11.65,26.34c6.13,5.17,17.55,8.92,27.89,8.77C557.96,380.24,549.54,380.29,542.56,377.26z"/>
		<path class="st9" d="M596.85,187.62c-0.39-0.42-0.8-0.82-1.27-1.16c-0.46-0.34-0.96-0.62-1.48-0.84c-1.05-0.42-2.19-0.55-3.3-0.42
			c-1.11,0.13-2.19,0.51-3.19,1c-1.01,0.5-1.94,1.13-2.79,1.86c-0.86,0.72-1.6,1.55-2.27,2.46c-0.67,0.9-1.27,1.85-1.78,2.85
			c-1.02,2-1.7,4.15-2.14,6.36c-0.43,2.2-0.61,4.46-0.58,6.71c0.02,1.13,0.08,2.25,0.19,3.37c0.11,1.12,0.27,2.24,0.45,3.36
			c0.37,2.24,0.88,4.46,1.42,6.68c0.54,2.22,1.13,4.44,1.7,6.67c0.57,2.23,1.13,4.48,1.56,6.77c0.43,2.29,0.76,4.6,0.96,6.92
			c0.41,4.65,0.22,9.38-0.72,13.97c-0.46,2.3-1.17,4.55-2.09,6.71c-0.91,2.16-2.06,4.22-3.42,6.13c-1.35,1.91-2.93,3.65-4.68,5.18
			c-1.76,1.52-3.73,2.8-5.82,3.75c3.97-2.36,7.2-5.71,9.6-9.54c0.6-0.96,1.15-1.95,1.65-2.96c0.5-1.01,0.96-2.04,1.36-3.1
			c0.8-2.11,1.38-4.29,1.8-6.5c0.82-4.43,0.9-8.99,0.5-13.49c-0.41-4.52-1.37-8.96-2.48-13.4c-0.55-2.22-1.13-4.45-1.66-6.7
			c-0.52-2.25-0.99-4.53-1.32-6.84c-0.71-4.6-0.74-9.39,0.3-13.98c0.52-2.29,1.35-4.53,2.5-6.59c1.17-2.05,2.63-3.94,4.51-5.4
			c0.93-0.72,1.94-1.34,3.02-1.82c1.08-0.47,2.23-0.8,3.41-0.87c1.18-0.07,2.38,0.12,3.43,0.64c0.53,0.26,1.01,0.59,1.46,0.96
			C596.1,186.74,596.48,187.17,596.85,187.62z"/>
		<path class="st12" d="M671.89,288.77c-0.29-2.95-0.7-5.88-1.11-8.77c-0.52-3.7-1.06-7.52-1.32-11.28
			c-0.63-8.93,0.15-17.99,0.9-26.76c1.07-12.56,2.18-25.54-0.8-38.36c-1.73-7.45-4.29-14.72-7.76-22
			c-8.71-28.63-29.09-38.3-43.27-40.1c-5.76-0.73-9.74-0.83-12.79,4.07c-1.16,1.87-2.72,4.57-3.17,6.72
			c-1.19,5.7,2.82,8.92-0.11,14.69c-4.02,7.92-1.14,16.39,0.6,24.49c0.42,1.96,1.67,3.65,3.45,4.6c7.77,4.13,27.54,9.7,33.31,23.82
			c4.07,9.95,5.31,20.7,5.78,31.36c0.18,4.2-0.3,8.54,0.15,12.72c0.45,4.14,2.65,7.65,3.75,11.6c2.74,9.84-6.65,18.04-3.31,27.56
			c1.56,4.45,5.15,7.89,9.36,9.86c8.1,3.79,18.89,1.75,19.98-8.47C676.1,299.15,674.09,293.57,671.89,288.77z M664.02,190.64
			c1.67,4.4,3.02,8.82,4.06,13.3c2.93,12.58,1.83,25.44,0.77,37.88c-0.21,2.51-0.43,5.04-0.61,7.59
			c-0.32-17.92-0.69-38.82-3.94-57.29C664.21,191.63,664.12,191.13,664.02,190.64z"/>
		<path class="st9" d="M606.12,187.55c1.04,1.23,2.15,2.39,3.34,3.46c1.2,1.06,2.47,2.03,3.82,2.88c1.34,0.86,2.77,1.56,4.24,2.15
			c0.73,0.31,1.49,0.54,2.24,0.78l1.15,0.3c0.38,0.11,0.77,0.16,1.16,0.24c1.55,0.29,3.12,0.48,4.7,0.49
			c1.59,0.04,3.25,0.03,4.88,0.27c1.63,0.22,3.27,0.61,4.81,1.32c1.54,0.7,2.95,1.73,4.09,2.97c2.3,2.51,3.68,5.61,4.72,8.67
			c1.15,3.06,1.9,6.23,2.57,9.41c1.21,6.39,1.68,12.86,2.03,19.28c0.35,6.42,0.59,12.83,1.44,19.14l0.32,2.37l0.41,2.35l0.21,1.17
			l0.26,1.16l0.53,2.32c0.78,3.07,1.8,6.13,2.57,9.29c0.39,1.58,0.72,3.18,0.92,4.82c0.2,1.69,0.05,3.38-0.25,4.99
			c-0.3,1.62-0.73,3.17-1.09,4.72c-0.36,1.55-0.67,3.1-0.67,4.65c-0.01,1.55,0.33,3.08,1.04,4.46c0.72,1.38,1.72,2.62,2.95,3.59
			c0.61,0.49,1.27,0.93,1.98,1.28c0.7,0.36,1.44,0.66,2.21,0.87c0.76,0.21,1.55,0.37,2.35,0.43c0.8,0.06,1.6,0.04,2.4-0.07
			c-3.16,0.63-6.59-0.17-9.25-2.1c-0.66-0.48-1.29-1.03-1.83-1.65c-0.54-0.62-1.05-1.28-1.45-2.01c-0.82-1.45-1.27-3.12-1.32-4.79
			c-0.06-1.67,0.22-3.31,0.53-4.89c0.32-1.59,0.7-3.14,0.93-4.7c0.23-1.55,0.33-3.1,0.12-4.61c-0.23-1.55-0.58-3.09-0.99-4.62
			c-0.83-3.06-1.91-6.09-2.75-9.24l-0.57-2.37l-0.28-1.19l-0.23-1.2l-0.45-2.39l-0.36-2.4c-0.92-6.42-1.18-12.88-1.55-19.28
			c-0.32-6.41-0.78-12.79-1.9-19.05c-0.61-3.11-1.3-6.22-2.37-9.2c-0.5-1.51-1.05-2.98-1.74-4.38c-0.69-1.39-1.5-2.72-2.51-3.85
			c-1-1.14-2.22-2.07-3.59-2.73c-1.37-0.67-2.87-1.07-4.41-1.33c-1.55-0.28-3.12-0.32-4.73-0.41c-1.64-0.06-3.26-0.3-4.86-0.66
			c-0.4-0.1-0.8-0.18-1.19-0.3l-1.17-0.36c-0.77-0.28-1.54-0.55-2.28-0.89c-1.48-0.67-2.92-1.44-4.24-2.39
			c-1.33-0.94-2.57-1.97-3.72-3.11C608.13,190.06,607.08,188.83,606.12,187.55z"/>
		<path class="st9" d="M608.69,152.71c2.88-1.83,6.28-2.87,9.73-3.05c1.73-0.08,3.47,0.03,5.18,0.36c1.71,0.33,3.38,0.85,4.97,1.57
			c1.59,0.7,3.11,1.64,4.48,2.69c0.69,0.51,1.38,1.02,2.03,1.59c0.33,0.28,0.67,0.54,0.99,0.83l0.96,0.87
			c2.56,2.3,4.81,4.93,6.78,7.73c0.24,0.35,0.5,0.7,0.73,1.05l0.7,1.08c0.47,0.71,0.89,1.46,1.34,2.19
			c0.44,0.73,0.84,1.48,1.26,2.23c0.39,0.76,0.8,1.5,1.18,2.27c1.54,3.04,2.96,6.13,4.24,9.27c2.57,6.29,4.73,12.77,6.26,19.41
			c0.76,3.31,1.44,6.65,2.06,9.98c0.15,0.83,0.32,1.66,0.44,2.54c0.12,0.87,0.2,1.72,0.27,2.58c0.13,1.71,0.21,3.41,0.28,5.11
			c0.13,3.4,0.14,6.79,0.18,10.18l0.07,10.15c0.06,6.76,0.15,13.52,0.58,20.26c0.23,3.37,0.52,6.73,1.05,10.05
			c0.27,1.66,0.6,3.31,1.06,4.93c0.48,1.6,1.05,3.21,2.05,4.56l-0.15,0.12c-1.11-1.32-1.81-2.92-2.38-4.53
			c-0.56-1.61-0.99-3.27-1.35-4.94c-0.37-1.67-0.64-3.35-0.89-5.03c-0.24-1.68-0.45-3.37-0.62-5.06c-0.35-3.38-0.59-6.77-0.76-10.16
			c-0.19-3.39-0.31-6.78-0.4-10.17l-0.13-5.08l-0.1-5.08c-0.06-3.38-0.15-6.77-0.25-10.13c-0.06-1.68-0.14-3.36-0.26-5.03
			c-0.07-0.83-0.14-1.66-0.25-2.47c-0.1-0.8-0.25-1.64-0.38-2.47c-0.54-3.33-1.12-6.66-1.8-9.96c-0.67-3.3-1.37-6.6-2.19-9.87
			c-0.21-0.82-0.41-1.64-0.65-2.44c-0.22-0.81-0.46-1.62-0.71-2.43c-0.24-0.81-0.51-1.61-0.77-2.41c-0.27-0.8-0.57-1.59-0.86-2.38
			c-1.21-3.15-2.63-6.22-4.32-9.14c-1.7-2.91-3.64-5.67-5.74-8.28c-2.09-2.62-4.32-5.1-6.73-7.41l-0.91-0.86
			c-0.3-0.28-0.63-0.55-0.94-0.82c-0.32-0.27-0.62-0.55-0.95-0.82l-0.97-0.79c-1.28-1.06-2.66-1.92-4.14-2.65
			c-1.47-0.73-3.03-1.28-4.63-1.66c-1.6-0.38-3.25-0.58-4.91-0.59c-3.32-0.03-6.65,0.76-9.66,2.28L608.69,152.71z"/>
		<path class="st9" d="M611.88,169.41c2.06-1.07,4.33-1.82,6.68-2.05c1.18-0.11,2.37-0.09,3.55,0.05c1.17,0.17,2.35,0.41,3.48,0.8
			c1.12,0.39,2.23,0.86,3.26,1.45c0.53,0.27,1.02,0.61,1.54,0.91c0.49,0.34,0.99,0.66,1.46,1.03c1.91,1.42,3.6,3.11,5.15,4.9
			c3.09,3.6,5.53,7.72,7.4,12.05l1.36,3.24c0.43,1.09,0.82,2.19,1.24,3.29c0.43,1.09,0.77,2.21,1.15,3.32l0.56,1.67
			c0.18,0.56,0.34,1.12,0.51,1.68c1.35,4.48,2.45,9.04,3.36,13.62c0.89,4.59,1.65,9.2,2.18,13.84c1.13,9.27,1.65,18.58,1.84,27.89
			c-0.97-9.26-1.91-18.51-3.3-27.69c-0.34-2.29-0.74-4.58-1.13-6.86c-0.43-2.28-0.84-4.56-1.35-6.81c-0.46-2.27-1.01-4.52-1.55-6.76
			l-0.89-3.35c-0.3-1.12-0.65-2.22-0.97-3.33c-1.33-4.42-2.84-8.79-4.65-13.04c-1.72-4.24-4.05-8.23-6.89-11.81
			c-0.71-0.89-1.47-1.74-2.27-2.56c-0.81-0.8-1.63-1.59-2.51-2.31c-0.43-0.37-0.9-0.7-1.35-1.04c-0.47-0.31-0.93-0.65-1.42-0.93
			c-0.96-0.6-1.99-1.09-3.04-1.52c-1.05-0.44-2.15-0.72-3.27-0.95c-1.12-0.2-2.26-0.27-3.41-0.25c-1.14,0.06-2.29,0.18-3.41,0.46
			C614.05,168.58,612.96,168.98,611.88,169.41z"/>
		<path class="st9" d="M600.38,147.96c-2.95-0.27-5.94-0.2-8.79,0.5c-2.85,0.69-5.5,2.02-7.82,3.78c-2.32,1.77-4.32,3.93-6.18,6.21
			c-0.93,1.14-1.83,2.32-2.72,3.5l-1.34,1.78c-0.45,0.59-0.87,1.19-1.3,1.78c-1.7,2.39-3.17,4.94-4.48,7.56
			c-1.32,2.62-2.46,5.34-3.47,8.1c-1,2.77-1.89,5.58-2.67,8.43c-0.39,1.42-0.76,2.85-1.12,4.29c-0.34,1.44-0.7,2.87-1.02,4.32
			c-1.31,5.77-2.36,11.61-3.24,17.48c-0.23,1.47-0.43,2.94-0.63,4.41c-0.21,1.47-0.39,2.94-0.58,4.42c-0.36,2.95-0.69,5.9-0.99,8.86
			c-0.6,5.91-1.12,11.84-1.67,17.76l-0.43,4.44c-0.14,1.48-0.28,2.96-0.46,4.44c-0.09,0.74-0.16,1.48-0.26,2.22l-0.31,2.21
			c-0.19,1.48-0.47,2.94-0.7,4.42c-2.01,11.77-5.32,23.25-8.54,34.68c-0.8,2.86-1.59,5.72-2.36,8.59c-0.37,1.43-0.76,2.87-1.11,4.3
			c-0.35,1.43-0.67,2.87-0.95,4.31c-1.12,5.77-1.74,11.64-1.41,17.47c0.29,5.82,1.64,11.59,4.31,16.74
			c1.35,2.56,2.99,4.97,5.01,7.03c2,2.07,4.36,3.79,6.99,4.94c2.62,1.13,5.51,1.64,8.39,1.46c2.88-0.17,5.72-0.99,8.3-2.33
			c2.58-1.34,4.92-3.18,6.82-5.41c1.9-2.23,3.35-4.87,4.17-7.71l0.18,0.05c-0.66,2.92-2.02,5.68-3.88,8.05
			c-1.85,2.38-4.19,4.39-6.84,5.87c-2.65,1.48-5.61,2.45-8.66,2.72c-3.05,0.28-6.2-0.15-9.06-1.33c-2.85-1.18-5.42-2.98-7.59-5.14
			c-2.19-2.15-3.97-4.67-5.45-7.34c-1.46-2.68-2.57-5.55-3.32-8.49c-0.38-1.47-0.68-2.96-0.92-4.46c-0.22-1.5-0.38-3.01-0.48-4.52
			c-0.1-1.51-0.11-3.03-0.08-4.54c0.03-1.51,0.11-3.02,0.25-4.52c0.26-3,0.72-5.98,1.33-8.92c0.31-1.47,0.65-2.93,1.02-4.39
			c0.37-1.46,0.78-2.88,1.17-4.32c0.8-2.87,1.62-5.73,2.46-8.59c3.33-11.42,6.87-22.75,9.23-34.38c0.27-1.46,0.58-2.91,0.8-4.37
			l0.36-2.19c0.12-0.73,0.21-1.47,0.31-2.2c0.42-2.93,0.74-5.89,1.06-8.84c0.63-5.91,1.15-11.83,1.7-17.75
			c0.27-2.96,0.53-5.92,0.83-8.88c0.14-1.48,0.28-2.96,0.44-4.44c0.15-1.48,0.31-2.96,0.5-4.44c0.7-5.91,1.57-11.82,2.74-17.67
			c1.19-5.85,2.68-11.66,4.77-17.29c1.05-2.81,2.24-5.58,3.61-8.25c1.38-2.67,2.94-5.26,4.72-7.69c0.91-1.22,1.81-2.39,2.74-3.55
			c0.93-1.17,1.86-2.33,2.84-3.47c1.95-2.28,4.09-4.45,6.56-6.2c2.46-1.77,5.31-3.02,8.27-3.6c2.97-0.59,6.01-0.52,8.95-0.06
			L600.38,147.96z"/>
		<path class="st9" d="M603.43,161.89c-2.52-0.89-5.15-1.5-7.81-1.49c-2.65-0.02-5.29,0.64-7.57,1.96c-2.29,1.3-4.22,3.17-5.86,5.23
			c-1.65,2.07-3.05,4.33-4.35,6.65c-1.31,2.31-2.53,4.69-3.77,7.06c-1.23,2.35-2.35,4.76-3.34,7.23c-1.99,4.92-3.57,10.01-4.69,15.2
			c-1.11,5.18-1.84,10.46-1.93,15.74c-0.02,1.32-0.01,2.64,0.06,3.95c0.02,0.66,0.08,1.31,0.12,1.97l0.14,2.01l0.07,1.01l0.04,1.01
			l0.09,2.02l0.04,2.02c0.01,0.67,0.03,1.35,0.01,2.02c-0.02,10.78-1.48,21.5-3.7,32c-2.26,10.5-5.21,20.81-8.19,31.08
			c-1.49,5.13-2.97,10.27-4.37,15.42l-1.03,3.87c-0.34,1.29-0.68,2.58-0.98,3.87c-0.61,2.58-1.14,5.19-1.53,7.81
			c-0.78,5.23-1.1,10.57-0.4,15.79c0.36,2.6,0.99,5.18,2.02,7.58c1.02,2.4,2.47,4.63,4.34,6.44c0.93,0.91,1.97,1.7,3.1,2.36
			c1.12,0.65,2.34,1.18,3.59,1.45c0.15,0.03,0.31,0.06,0.45,0.07l0.49,0.04c0.33,0.02,0.66,0.04,0.99,0.06
			c0.66,0.03,1.32,0.04,1.98,0.03c1.32-0.02,2.64-0.14,3.94-0.38c2.59-0.48,5.09-1.53,7.18-3.17c2.11-1.61,3.79-3.75,5.11-6.07
			c-1.23,2.37-2.84,4.58-4.93,6.3c-2.08,1.72-4.62,2.88-7.26,3.44c-1.32,0.28-2.67,0.44-4.02,0.5c-0.67,0.03-1.35,0.04-2.03,0.02
			c-0.34-0.01-0.67-0.02-1.01-0.03l-0.51-0.02c-0.19-0.01-0.36-0.04-0.54-0.07c-1.37-0.26-2.65-0.79-3.86-1.45
			c-1.2-0.66-2.32-1.48-3.33-2.41c-2.02-1.87-3.57-4.19-4.69-6.69c-1.13-2.49-1.82-5.15-2.24-7.84c-0.42-2.69-0.55-5.4-0.49-8.11
			c0.05-2.7,0.3-5.4,0.67-8.07c0.37-2.67,0.87-5.32,1.46-7.95c0.59-2.63,1.27-5.22,1.94-7.81c1.36-5.18,2.8-10.33,4.25-15.48
			c2.89-10.29,5.84-20.56,8.04-30.99c2.2-10.41,3.68-20.99,3.73-31.62c0.02-1.33-0.01-2.65-0.02-3.98l-0.07-1.99l-0.03-0.99
			l-0.06-0.99l-0.12-1.99c-0.03-0.67-0.09-1.35-0.11-2.03c-0.06-1.36-0.05-2.71-0.02-4.06c0.14-5.41,0.92-10.78,2.16-16.03
			c1.23-5.25,2.92-10.38,5.02-15.34c1.05-2.48,2.23-4.91,3.51-7.27c1.28-2.35,2.54-4.71,3.9-7.03c1.38-2.31,2.86-4.57,4.61-6.64
			c1.74-2.06,3.78-3.93,6.18-5.21c2.39-1.3,5.13-1.9,7.83-1.81C598.32,160.19,600.95,160.91,603.43,161.89z"/>
		<path class="st9" d="M580.27,275.24c3.6,3.61,6.02,8.38,7.32,13.37c0.32,1.25,0.6,2.52,0.78,3.8c0.19,1.28,0.32,2.57,0.39,3.86
			c0.08,1.29,0.07,2.58,0.02,3.87c-0.04,1.29-0.14,2.58-0.28,3.86c-0.3,2.56-0.77,5.09-1.38,7.58c-0.31,1.24-0.66,2.47-1.03,3.7
			c-0.36,1.23-0.79,2.45-1.28,3.64c-0.48,1.2-1.01,2.38-1.64,3.51c-0.62,1.13-1.32,2.23-2.13,3.25c-0.82,1-1.7,1.96-2.73,2.75
			c-0.24,0.21-0.52,0.38-0.78,0.57l-0.4,0.27l-0.42,0.24c-0.55,0.33-1.14,0.58-1.72,0.84c1.09-0.66,2.08-1.44,2.96-2.32
			c0.89-0.87,1.65-1.87,2.32-2.9c0.35-0.51,0.65-1.05,0.96-1.59c0.28-0.55,0.57-1.1,0.82-1.67c0.51-1.13,0.98-2.28,1.36-3.46
			c0.78-2.36,1.41-4.79,1.94-7.24c0.54-2.44,0.98-4.91,1.25-7.38c0.3-2.47,0.42-4.96,0.35-7.44c-0.04-2.48-0.34-4.95-0.81-7.39
			C585.16,284.08,583.25,279.36,580.27,275.24z"/>
		<path class="st9" d="M572.21,283.26c0.75,2.3,1.04,4.76,1,7.2c-0.06,2.45-0.43,4.89-1.02,7.26c-0.57,2.38-1.38,4.68-2.24,6.95
			c-0.88,2.26-1.87,4.47-2.84,6.67c-1,2.18-1.97,4.36-2.85,6.57c-0.91,2.2-1.68,4.44-2.33,6.72c-0.63,2.28-1.1,4.6-1.27,6.96
			c-0.19,2.36-0.05,4.75,0.43,7.12c-0.89-2.25-1.3-4.7-1.36-7.14c-0.05-2.45,0.24-4.91,0.76-7.29c0.5-2.4,1.27-4.72,2.09-7.01
			c0.85-2.28,1.82-4.5,2.8-6.71c1.01-2.18,1.99-4.36,2.91-6.56c0.94-2.19,1.77-4.42,2.48-6.67
			C572.17,292.81,572.93,288.06,572.21,283.26z"/>
	</g>
	<path class="st13" d="M618.99,491.5h-14.82c-5.96,0-10.78-4.83-10.78-10.78l0,0c0-0.33,0.26-0.59,0.59-0.59h35.21
		c0.33,0,0.59,0.26,0.59,0.59l0,0C629.78,486.67,624.95,491.5,618.99,491.5z"/>
	<path class="st14" d="M709.12,520.14l-4.03,44.99c-0.48,5.33-5.13,9.61-10.39,9.61H528.53c-3.82,0-7.33-2.26-9.13-5.54
		C568.05,570.98,686.99,536.31,709.12,520.14z"/>
</g>
<g>
	<path class="st15" d="M689.41,132.62h158.28c1.49,0,2.71,1.13,2.71,2.51v62.01c0,1.38-1.22,2.51-2.71,2.51H724.45
		c0,0-9.98,14.72-16.12,23.78c-1.69,2.5-5.82,1.81-6.46-1.08c-1.67-7.58-3.35-15.16-5.01-22.74c0.06,0.26-7.48,0.11-8.27-0.43
		c-2.03-1.39-1.22-1.53-1.88-3.64c-0.57-1.82,0-4.59,0-6.47c0-7.23,0-14.46,0-21.68v-32.24
		C686.7,133.75,687.92,132.62,689.41,132.62z"/>
</g>
<g>
	<path class="st16" d="M713.78,231.49h90.99c1.49,0,2.71,1.13,2.71,2.51V296c0,1.38-1.22,2.51-2.71,2.51h-55.95
		c0,0-9.98,14.72-16.12,23.78c-1.69,2.5-5.82,1.81-6.46-1.08c-1.67-7.58-3.35-15.16-5.01-22.74c0.06,0.26-7.48,0.11-8.27-0.43
		c-2.03-1.39-1.22-1.53-1.88-3.64c-0.57-1.82,0-4.59,0-6.47c0-7.23,0-14.46,0-21.68v-32.24
		C711.07,232.61,712.29,231.49,713.78,231.49z"/>
</g>
<g>
	<path class="st16" d="M504.02,179.42h-90.99c-1.49,0-2.71,1.13-2.71,2.51v62.01c0,1.38,1.22,2.51,2.71,2.51h55.95
		c0,0,9.98,14.72,16.12,23.78c1.69,2.5,5.82,1.81,6.46-1.08c1.67-7.58,3.35-15.16,5.01-22.74c-0.06,0.26,7.48,0.11,8.27-0.43
		c2.03-1.39,1.22-1.53,1.88-3.64c0.57-1.82,0-4.59,0-6.47c0-7.23,0-14.46,0-21.68v-32.24C506.73,180.55,505.51,179.42,504.02,179.42
		z"/>
</g>
<g>
	<path class="st4" d="M695.21,142.32c1.33-0.22,3.06-0.41,5.27-0.41c2.71,0,4.7,0.63,5.97,1.77c1.17,1.01,1.86,2.56,1.86,4.45
		c0,1.93-0.57,3.44-1.64,4.55c-1.45,1.55-3.82,2.34-6.5,2.34c-0.82,0-1.58-0.03-2.21-0.19v8.52h-2.75V142.32z M697.95,152.58
		c0.6,0.16,1.36,0.22,2.27,0.22c3.31,0,5.34-1.61,5.34-4.55c0-2.81-1.99-4.17-5.02-4.17c-1.2,0-2.12,0.09-2.59,0.22V152.58z"/>
	<path class="st4" d="M712.79,156.65l-2.21,6.69h-2.84l7.23-21.28h3.31l7.26,21.28h-2.94l-2.27-6.69H712.79z M719.77,154.51
		l-2.08-6.12c-0.47-1.39-0.79-2.65-1.1-3.88h-0.06c-0.32,1.26-0.66,2.56-1.07,3.85l-2.08,6.16H719.77z"/>
	<path class="st4" d="M728.29,160c1.23,0.76,3.03,1.39,4.92,1.39c2.81,0,4.45-1.48,4.45-3.63c0-1.99-1.14-3.13-4.01-4.23
		c-3.47-1.23-5.62-3.03-5.62-6.03c0-3.31,2.75-5.78,6.88-5.78c2.18,0,3.76,0.51,4.7,1.04l-0.76,2.24c-0.69-0.38-2.12-1.01-4.04-1.01
		c-2.9,0-4.01,1.74-4.01,3.19c0,1.99,1.29,2.97,4.23,4.1c3.6,1.39,5.43,3.13,5.43,6.25c0,3.28-2.43,6.12-7.45,6.12
		c-2.05,0-4.29-0.6-5.43-1.36L728.29,160z"/>
	<path class="st4" d="M743.85,160c1.23,0.76,3.03,1.39,4.92,1.39c2.81,0,4.45-1.48,4.45-3.63c0-1.99-1.14-3.13-4.01-4.23
		c-3.47-1.23-5.62-3.03-5.62-6.03c0-3.31,2.75-5.78,6.88-5.78c2.18,0,3.76,0.51,4.7,1.04l-0.76,2.24c-0.69-0.38-2.12-1.01-4.04-1.01
		c-2.9,0-4.01,1.74-4.01,3.19c0,1.99,1.29,2.97,4.23,4.1c3.6,1.39,5.43,3.13,5.43,6.25c0,3.28-2.43,6.12-7.45,6.12
		c-2.05,0-4.29-0.6-5.43-1.36L743.85,160z"/>
	<path class="st4" d="M763.27,163.35l-5.4-21.28h2.9l2.53,10.76c0.63,2.65,1.2,5.3,1.58,7.36h0.06c0.35-2.12,1.01-4.64,1.74-7.39
		l2.84-10.73h2.87l2.59,10.8c0.6,2.53,1.17,5.05,1.48,7.29h0.06c0.44-2.34,1.04-4.7,1.7-7.36l2.81-10.73h2.81l-6.03,21.28h-2.87
		l-2.68-11.08c-0.66-2.71-1.1-4.8-1.39-6.95h-0.06c-0.38,2.12-0.85,4.2-1.64,6.95l-3.03,11.08H763.27z"/>
	<path class="st4" d="M804.69,152.49c0,7.32-4.45,11.21-9.88,11.21c-5.62,0-9.57-4.36-9.57-10.8c0-6.76,4.2-11.18,9.88-11.18
		C800.93,141.72,804.69,146.17,804.69,152.49z M788.18,152.83c0,4.55,2.46,8.62,6.79,8.62c4.36,0,6.82-4.01,6.82-8.84
		c0-4.23-2.21-8.65-6.79-8.65C790.45,143.96,788.18,148.16,788.18,152.83z"/>
	<path class="st4" d="M808.25,142.35c1.39-0.28,3.38-0.44,5.27-0.44c2.94,0,4.83,0.54,6.16,1.74c1.07,0.95,1.67,2.4,1.67,4.04
		c0,2.81-1.77,4.67-4.01,5.43v0.09c1.64,0.57,2.62,2.08,3.13,4.29c0.69,2.97,1.2,5.02,1.64,5.84h-2.84
		c-0.35-0.6-0.82-2.43-1.42-5.08c-0.63-2.94-1.77-4.04-4.26-4.14H811v9.22h-2.75V142.35z M811,152.04h2.81c2.94,0,4.8-1.61,4.8-4.04
		c0-2.75-1.99-3.95-4.89-3.98c-1.33,0-2.27,0.13-2.71,0.25V152.04z"/>
	<path class="st4" d="M825.24,142.35c1.67-0.25,3.66-0.44,5.84-0.44c3.95,0,6.76,0.92,8.62,2.65c1.89,1.74,3,4.2,3,7.64
		c0,3.47-1.07,6.31-3.06,8.27c-1.99,1.99-5.27,3.06-9.41,3.06c-1.96,0-3.6-0.09-4.99-0.25V142.35z M827.99,161.17
		c0.69,0.13,1.7,0.16,2.78,0.16c5.87,0,9.06-3.28,9.06-9.03c0.03-5.02-2.81-8.21-8.62-8.21c-1.42,0-2.49,0.13-3.22,0.28V161.17z"/>
</g>
<path class="st4" d="M752.98,180.73c0-1.17,0.79-1.99,1.89-1.99s1.86,0.82,1.86,1.99c0,1.14-0.73,1.99-1.89,1.99
	C753.74,182.72,752.98,181.87,752.98,180.73z"/>
<path class="st4" d="M766.21,180.73c0-1.17,0.79-1.99,1.89-1.99c1.1,0,1.86,0.82,1.86,1.99c0,1.14-0.73,1.99-1.89,1.99
	C766.96,182.72,766.21,181.87,766.21,180.73z"/>
<path class="st4" d="M779.43,180.73c0-1.17,0.79-1.99,1.89-1.99s1.86,0.82,1.86,1.99c0,1.14-0.73,1.99-1.89,1.99
	C780.19,182.72,779.43,181.87,779.43,180.73z"/>
<path class="st4" d="M792.39,263.44c-2.17-3.14-5.29-5.39-8.9-6.59c-0.32-0.1-0.63-0.2-0.95-0.29c-0.55-1.34-1.32-2.6-2.33-3.75
	c1.27-0.84,2.6-1.61,3.97-2.28c1.85-0.91,3.86-1.49,5.69-2.44c1.59-0.82,2.91-2.03,3.35-3.82c0.39-1.61-0.06-3.4-1.29-4.53
	c-1.46-1.34-3.84-1.6-5.74-1.66c-2.33-0.08-4.66,0.29-6.93,0.82c-4.88,1.12-9.69,2.61-14.51,3.94c-0.83,0.23-1.67,0.46-2.5,0.69
	c0.02-0.33,0.03-0.67,0.03-1c-0.02-3.02-0.82-7.03-3.85-8.49c-3.29-1.59-5.57,2.71-6.35,5.25c-0.65,2.13-0.72,4.44-0.24,6.62
	c-0.76,0.3-1.48,0.66-2.17,1.09c-0.27,0.07-0.53,0.15-0.8,0.22c-3.23-5.41-9.79-10.79-16.07-7.47c-3,1.59-4.99,4.75-6.23,7.81
	c-1.55,3.82-2.19,8.1-2.23,12.2c-0.05,4.84,0.92,9.71,2.94,14.07c0.31,1.44,0.85,2.82,1.66,4.06c0.02,2.86,1.72,5.59,4.14,7.14
	c0.13,0.08,0.27,0.16,0.4,0.24c-0.49,1.03-0.93,2.08-1.33,3.16c-0.69,1.87-1.45,3.92-1.39,5.94c0.09,3.16,2.42,5.46,5.39,6.18
	c4,0.97,7.79-1.28,11.46-2.49c1.04-0.34,0.47-2.83-0.53-2.5c-3.59,1.19-7.49,3.57-11.38,2.41c-1.46-0.43-3.16-1.46-3.32-3.13
	c-0.18-1.93,0.88-4.18,1.59-5.94c0.37-0.93,0.79-1.85,1.24-2.75c2.27,0.98,4.78,1.45,7.27,1.62c4.23,1.39,8.74,1.37,13.13,0.95
	c4.98-0.47,9.91-1.39,14.83-2.3c0.45-0.08,0.89-0.17,1.33-0.26c0.36,0.25,0.73,0.48,1.11,0.7c6.4,3.66,14.37,2.15,19.05-3.53
	C796.7,277.56,796.59,269.53,792.39,263.44z M784.69,274.64c-0.1-1.26-0.46-2.52-1.1-3.68c-0.45-0.81-1.01-1.54-1.64-2.21
	c1.03-2.16,1.58-4.48,1.6-6.76c2.73,0.49,5.25,1.95,4.87,4.96c-0.25,1.98-1.29,3.81-2.32,5.48
	C785.66,273.18,785.18,273.92,784.69,274.64z M769.03,280.88c0.01-0.01,0.03-0.02,0.05-0.02c1,1.09,2.2,1.98,3.56,2.58
	c-0.3,0.07-0.61,0.14-0.91,0.2C770.71,282.87,769.79,281.95,769.03,280.88z M744.32,285.34c-0.65,0-1.32-0.03-2.01-0.07
	c-1.08-0.37-2.13-0.82-3.14-1.36c3.39,0.37,6.83-0.32,9.83-1.92c2.57-1.37,5.1-3.61,6.27-6.37c3.86-0.64,7.54-3.3,10.32-6.23
	c-0.02,0.16-0.04,0.31-0.06,0.47c-0.13,1.24-0.09,2.52,0.12,3.78c-0.22,1.65-0.11,3.34,0.45,5.05c0.08,0.23,0.16,0.47,0.25,0.7
	C759.61,282.9,751.84,285.38,744.32,285.34z M728.62,272.19c-0.14-1.89,0.26-3.83,1.12-5.54c0.01,0.01,0.02,0.03,0.03,0.04
	c1.52,1.99,3.63,3.43,5.93,4.43c-2.43,0.56-4.85,1.41-6.03,3.61c-0.35-0.6-0.68-1.21-0.98-1.84
	C728.66,272.66,728.63,272.43,728.62,272.19z M730.64,255.94c1.39-1.52,3.5-2.01,5.41-2.53c2.28-0.63,4.57-1.26,6.85-1.89
	c1-0.28,2.01-0.55,3.01-0.83c-1.34,2.15-1.76,4.72-1.19,7.15c-1.07,0.1-2.16,0.17-3.23,0.25c-3.69,0.26-7.68,0.77-10.52,3.39
	c-0.5,0.46-0.96,0.97-1.37,1.51C728.68,260.65,728.86,257.88,730.64,255.94z M777.95,268.29c0.45,0.22,0.89,0.47,1.32,0.75
	c-2.56,3.74-6.6,6.74-10.31,8.91c-0.66-0.88-1.17-1.85-1.47-2.88c-0.09-0.32-0.17-0.65-0.23-0.97c0.36-2.05,1.47-3.95,2.67-5.62
	c0.44-0.61,0.92-1.21,1.43-1.77C773.63,266.84,775.85,267.26,777.95,268.29z M746.58,264.46c0.18-0.68,0.42-1.34,0.68-2
	c0.56,0.59,1.18,1.13,1.84,1.61c-0.62,1.71-1.51,3.25-2.72,4.35c0,0,0,0-0.01,0C746.09,267.14,746.23,265.76,746.58,264.46z
	 M746.16,256.58c-0.12-2.24,1.02-4.28,2.63-5.84c0.46,1.08,0.81,2.21,1.05,3.36c0.01,0.07,0.03,0.13,0.04,0.2
	c-0.38,0.55-0.76,1.09-1.11,1.62c-0.32,0.48-0.64,0.97-0.94,1.47c-0.5,0.1-1,0.18-1.51,0.25
	C746.23,257.31,746.18,256.95,746.16,256.58z M765.2,253.56c-1.09-0.23-2.26-0.17-3.4,0.2c-0.93-0.3-1.83-0.66-2.68-1.08
	c0.22-0.32,0.42-0.64,0.62-0.97c0.59-0.99,1.08-2.05,1.47-3.14c1.07,0.07,2.09,0.57,2.96,1.7
	C764.98,251.33,765.26,252.45,765.2,253.56z M768.29,258.54c0.37,0.98,0.39,1.95,0.18,2.89c-0.54,0.91-1.02,1.84-1.43,2.81
	c-0.85,0.04-1.7,0.1-2.55,0.15c-1.63,0.11-3.28,0.23-4.94,0.23c2.64-1.99,5.24-4.6,6.49-7.55c0.49,0.08,0.97,0.15,1.46,0.21
	C767.84,257.64,768.11,258.06,768.29,258.54z M754.51,269.15c-0.33-0.34-0.71-0.63-1.15-0.84c0.34-0.16,0.67-0.32,1-0.49
	C754.4,268.27,754.45,268.71,754.51,269.15z M752.89,258.35c1.91-1,3.6-2.41,5-4.06c0.46,0.28,0.95,0.54,1.44,0.78
	c-2.06,1.59-3.46,4.07-4.24,6.48c-0.27,0.83-0.46,1.69-0.59,2.56c-0.72-0.17-1.43-0.39-2.13-0.67c-0.34-0.14-0.69-0.3-1.04-0.47
	c0.32-1.36,0.49-2.75,0.52-4.15C752.2,258.69,752.55,258.53,752.89,258.35z M764.18,256.72c-0.8,1.41-1.95,2.7-3.04,3.69
	c-1.53,1.41-3.2,2.62-4.97,3.69c0.37-1.81,1.14-3.55,2.31-5.04c1-1.27,2.3-2.35,3.83-2.83
	C762.92,256.41,763.55,256.57,764.18,256.72z M752.67,265.97c-0.95,0.45-1.92,0.86-2.9,1.25c0.36-0.69,0.67-1.41,0.93-2.14
	C751.35,265.42,752,265.72,752.67,265.97z M758.8,249.03c-0.45,0.87-0.98,1.71-1.58,2.49c-0.38-0.28-0.74-0.58-1.07-0.9
	C756.97,249.98,757.88,249.41,758.8,249.03z M754.66,248.79c-0.09-0.15-0.18-0.3-0.26-0.45c0.42-0.12,0.85-0.23,1.27-0.35
	C755.33,248.24,754.99,248.51,754.66,248.79z M754.82,251.77c0.38,0.42,0.77,0.81,1.19,1.17c-0.92,0.96-1.96,1.82-3.08,2.53
	c-0.38,0.24-0.78,0.45-1.17,0.65c-0.03-0.27-0.06-0.54-0.1-0.8c0.66-0.82,1.34-1.61,2.02-2.36
	C754,252.57,754.39,252.17,754.82,251.77z M748.52,259.86c0.53-0.11,1.05-0.24,1.57-0.39c-0.08,0.85-0.21,1.71-0.4,2.55
	c-0.58-0.4-1.13-0.85-1.61-1.34C748.22,260.4,748.37,260.13,748.52,259.86z M746.51,272.53c0.72,0.93,1.65,1.71,2.79,2.26
	c1.15,0.56,2.32,0.86,3.49,0.94c-2.01,2.65-5.02,4.47-8.22,5.27c-1.98,0.5-4.23,0.56-6.39,0.18c0.51-0.72,1.04-1.43,1.59-2.11
	C741.68,276.73,743.95,274.32,746.51,272.53z M752.1,273.1c-1.38-0.2-2.77-0.74-3.86-1.64c1.34-0.73,3.2-1.45,4.72-0.9
	c1.3,0.47,1.46,1.53,1.17,2.62C753.47,273.22,752.79,273.2,752.1,273.1z M756.94,271.65c-0.64-1.48-0.98-3.06-1.03-4.65
	c0.09-0.05,0.18-0.1,0.27-0.15c2.9,0.42,5.88,0.21,8.82,0.02c-0.75,0.76-1.51,1.44-2.17,2.03c-1.71,1.53-3.7,2.92-5.88,3.68
	C757.04,272.24,757.05,271.9,756.94,271.65z M768.36,266.98c-0.21,0.31-0.4,0.62-0.59,0.93c0.13-0.41,0.27-0.82,0.43-1.22
	c0.13,0,0.25-0.01,0.38-0.01C768.5,266.77,768.43,266.87,768.36,266.98z M770.05,259.07c-0.08-0.52-0.2-1.04-0.39-1.56
	c0.45,0.04,0.9,0.07,1.35,0.09c0.06,0,0.12,0.01,0.18,0.01C770.8,258.09,770.41,258.57,770.05,259.07z M770.95,255.25
	c-0.92-0.05-1.9-0.12-2.9-0.23c-0.38-0.35-0.8-0.64-1.25-0.88c0.14-1.64-0.21-3.33-1.21-5.05c-0.2-0.34-0.42-0.64-0.66-0.92
	c3.69,0.75,8.35,1.85,11.84,4.1c-1.21,0.94-2.39,1.98-3.51,3.1C772.49,255.32,771.71,255.29,770.95,255.25z M752.82,248.78
	c0.11,0.23,0.22,0.45,0.35,0.67c0.09,0.16,0.19,0.32,0.28,0.48c-0.83,0.84-1.6,1.76-2.33,2.7c-0.27-1.02-0.61-2.01-1.02-2.97
	c0.1-0.07,0.21-0.15,0.31-0.22C751.21,249.22,752.01,249,752.82,248.78z M731.69,263.96c2.79-2.73,6.87-3.13,10.57-3.39
	c1.14-0.08,2.28-0.16,3.41-0.28c0.11,0.2,0.22,0.39,0.34,0.58c-0.77,1.79-1.28,3.68-1.34,5.64c-0.03,0.81,0.04,1.61,0.2,2.38
	c-1.45,0.43-2.9,0.81-4.35,1.16c-3.56-0.55-7.41-2.18-9.72-5.02c-0.01-0.01-0.01-0.02-0.02-0.03
	C731.05,264.63,731.36,264.28,731.69,263.96z M730.87,276.59c0.82-1.71,2.86-2.4,4.58-2.81c1.7-0.41,3.4-0.81,5.09-1.23
	c0.74,0.12,1.48,0.17,2.21,0.13c-0.33,0.32-0.66,0.63-0.97,0.93c-2.19,2.12-4.11,4.5-5.75,7.06c-1.02-0.33-2-0.77-2.88-1.32
	C732.31,278.48,731.55,277.55,730.87,276.59z M774.79,281.69c-1.42-0.26-2.78-0.92-3.96-1.83c3.73-2.24,7.09-5,9.55-8.44
	c0.23-0.32,0.44-0.64,0.64-0.96c1.53,1.54,2.44,3.55,1.89,5.87c-0.09,0.4-0.22,0.79-0.38,1.15c-1.51,1.76-3.19,3.15-5.09,4.18
	C776.6,281.83,775.7,281.85,774.79,281.69z M780.31,267.31c-1.19-0.87-2.52-1.56-3.89-2.05c-0.89-0.32-1.79-0.55-2.7-0.71
	c1.67-1.27,3.58-2.2,5.69-2.58c0.72-0.13,1.56-0.19,2.45-0.15C781.77,263.78,781.2,265.61,780.31,267.31z M777.18,259.89
	c-2.55,0.81-4.78,2.38-6.61,4.32c-0.4-0.02-0.81-0.02-1.21-0.02c0.23-0.43,0.48-0.85,0.73-1.25c1.16-1.86,2.55-3.58,4.09-5.15
	c2.51,0.16,5.05,0.39,7.44,0.93c0.04,0.2,0.08,0.4,0.11,0.6C780.19,259.23,778.62,259.43,777.18,259.89z M776.56,255.57
	c0.72-0.61,1.46-1.19,2.21-1.75c0.72,0.68,1.34,1.44,1.83,2.29C779.27,255.85,777.92,255.68,776.56,255.57z M770.53,243.89
	c4.5-1.24,9.07-2.85,13.74-3.26c1.96-0.17,4.95-0.31,6.68,0.82c2.21,1.44-1.26,3.95-2.48,4.51c-1.74,0.79-3.55,1.38-5.26,2.24
	c-1.68,0.84-3.29,1.81-4.83,2.88c-0.05-0.04-0.1-0.08-0.15-0.12c-2.81-2.17-6.26-3.41-9.66-4.31c-1.4-0.37-2.83-0.73-4.27-1.03
	C766.37,245.04,768.45,244.47,770.53,243.89z M753.32,244.13c-0.07-2.05,0.45-4.11,1.53-5.86c1.07-1.72,2.89-3.01,4.47-1.04
	c1.42,1.77,1.54,4.38,1.14,6.79c-1.03,0.28-2.06,0.57-3.1,0.85c-0.56,0.01-1.12,0.05-1.68,0.1c-0.76,0.08-1.52,0.22-2.25,0.41
	C753.38,244.99,753.34,244.57,753.32,244.13z M725.96,259.94c0.07-3.94,0.77-8.06,2.42-11.66c1.37-2.97,3.68-6.02,7.01-6.83
	c3.74-0.91,7.49,1.41,9.98,4.02c0.66,0.69,1.25,1.43,1.78,2.22c-3.8,1.05-7.6,2.1-11.4,3.14c-1.93,0.53-4.02,1.02-5.58,2.35
	c-1.22,1.04-2.01,2.47-2.41,4.01c-0.65,2.5-0.32,5.16,0.78,7.46c-0.69,1.31-1.15,2.74-1.38,4.21
	C726.3,266.01,725.9,262.98,725.96,259.94z M732.47,281.92c-0.42-0.37-0.81-0.82-1.13-1.31c0.4,0.33,0.81,0.65,1.25,0.93
	c0.1,0.1,0.19,0.2,0.29,0.29c0.52,0.51,1.05,1,1.61,1.46c0,0,0,0,0,0C733.76,282.91,733.08,282.45,732.47,281.92z M755.75,286.21
	c1.04-0.29,2.08-0.62,3.1-0.97c2.84-0.97,5.79-2.14,8.63-3.55c0.54,0.88,1.18,1.7,1.89,2.44c-3.27,0.64-6.58,1.14-9.86,1.6
	C758.27,285.91,757.01,286.08,755.75,286.21z M786.85,284.52c-3.62,2.2-8.12,2.4-11.96,0.89c1.15-0.34,2.26-0.75,3.33-1.28
	c2.44-0.51,4.32-2.14,5.42-4.24c2.08-2.3,3.86-5.03,5.21-7.73c1.73-3.44,2.2-7.64-0.94-10.44c-1.29-1.15-2.87-1.86-4.54-2.2
	c-0.02-0.12-0.04-0.24-0.06-0.36c3.54,1.09,6.64,3.05,8.68,6.75C795.59,272.48,793.22,280.65,786.85,284.52z"/>
<g>
	<path class="st4" d="M425.8,222.35l-0.12-1.62c-0.37-3.37,0.75-7.06,3.87-10.81c2.81-3.31,4.37-5.75,4.37-8.56
		c0-3.19-2-5.31-5.94-5.37c-2.25,0-4.75,0.75-6.31,1.94l-1.5-3.94c2.06-1.5,5.62-2.5,8.94-2.5c7.19,0,10.43,4.44,10.43,9.19
		c0,4.25-2.37,7.31-5.37,10.87c-2.75,3.25-3.75,6-3.56,9.19l0.06,1.62H425.8z M424.42,231.09c0-2.31,1.56-3.94,3.75-3.94
		c2.19,0,3.69,1.62,3.69,3.94c0,2.19-1.44,3.87-3.75,3.87C425.92,234.97,424.42,233.28,424.42,231.09z"/>
</g>
<g>
	<path class="st4" d="M451.55,222.35l-0.12-1.62c-0.37-3.37,0.75-7.06,3.87-10.81c2.81-3.31,4.37-5.75,4.37-8.56
		c0-3.19-2-5.31-5.94-5.37c-2.25,0-4.75,0.75-6.31,1.94l-1.5-3.94c2.06-1.5,5.62-2.5,8.94-2.5c7.19,0,10.43,4.44,10.43,9.19
		c0,4.25-2.37,7.31-5.37,10.87c-2.75,3.25-3.75,6-3.56,9.19l0.06,1.62H451.55z M450.18,231.09c0-2.31,1.56-3.94,3.75-3.94
		c2.19,0,3.69,1.62,3.69,3.94c0,2.19-1.44,3.87-3.75,3.87C451.68,234.97,450.18,233.28,450.18,231.09z"/>
</g>
<g>
	<path class="st4" d="M477.31,222.35l-0.12-1.62c-0.37-3.37,0.75-7.06,3.87-10.81c2.81-3.31,4.37-5.75,4.37-8.56
		c0-3.19-2-5.31-5.94-5.37c-2.25,0-4.75,0.75-6.31,1.94l-1.5-3.94c2.06-1.5,5.62-2.5,8.94-2.5c7.19,0,10.43,4.44,10.43,9.19
		c0,4.25-2.37,7.31-5.37,10.87c-2.75,3.25-3.75,6-3.56,9.19l0.06,1.62H477.31z M475.93,231.09c0-2.31,1.56-3.94,3.75-3.94
		c2.19,0,3.69,1.62,3.69,3.94c0,2.19-1.44,3.87-3.75,3.87C477.43,234.97,475.93,233.28,475.93,231.09z"/>
</g>
</svg>
