<?xml version="1.0" encoding="utf-8"?>
<!-- Generator: Adobe Illustrator 28.1.0, SVG Export Plug-In . SVG Version: 6.00 Build 0)  -->
<svg version="1.1" id="Layer_1" xmlns="http://www.w3.org/2000/svg" xmlns:xlink="http://www.w3.org/1999/xlink" x="0px" y="0px"
	 viewBox="0 0 500 500" style="enable-background:new 0 0 500 500;" xml:space="preserve">
<style type="text/css">
	.st0{fill:#FF9900;}
	.st1{opacity:0.83;}
	.st2{fill:#020202;}
	.st3{fill:#FFFFFF;}
</style>
<g>
	<path class="st0" d="M467.21,421.82L280.88,99.09c-13.24-22.93-46.33-22.93-59.57,0L34.98,421.82
		c-13.24,22.93,3.31,51.59,29.79,51.59h372.66C463.91,473.41,480.45,444.75,467.21,421.82z M214.4,329.04l2.81-3.57L214.4,329.04z
		 M229.21,337.98l4.34-5.62L229.21,337.98z M244.79,346.15l4.34-4.85L244.79,346.15z M261.13,347.17l-4.85,5.36L261.13,347.17z
		 M259.09,353.3l3.83-4.85L259.09,353.3z M274.15,363.51l5.87-6.89L274.15,363.51z M288.19,373.21l6.64-6.64L288.19,373.21z
		 M305.3,386.23l8.43-6.89L305.3,386.23z M320.87,401.55l9.96-7.4L320.87,401.55z M353.04,417.13L335.17,423L353.04,417.13z
		 M344.62,445.47l18.89-4.34L344.62,445.47z"/>
</g>
<g>
	<g class="st1">
		<path d="M96,458.1c34.19-25.89,68.63-45.9,104.22-40.41C217.2,352.03,325.67,288.85,431,222C272.28,272.62,140.91,339.56,96,458.1
			z M194.27,343.28l2.99-3.8L194.27,343.28z M210.02,352.79l4.62-5.97L210.02,352.79z M226.58,361.48l4.62-5.16L226.58,361.48z"/>
	</g>
	<g>
		<path class="st2" d="M96,458.1c34.19-25.89,68.63-45.9,104.22-40.41C217.2,352.03,325.67,288.85,431,222
			C272.28,272.62,140.91,339.56,96,458.1z M194.27,343.28l2.99-3.8L194.27,343.28z M210.02,352.79l4.62-5.97L210.02,352.79z
			 M226.58,361.48l4.62-5.16L226.58,361.48z"/>
	</g>
</g>
<path d="M267.85,473H417.3C361.81,352.84,310,301,133,264C239,325,357,399,267.85,473z M162.43,279.48l3.78-4.81L162.43,279.48z
	 M182.34,291.49l5.83-7.55L182.34,291.49z M203.27,302.47l5.83-6.52L203.27,302.47z M225.24,303.85l-6.52,7.21L225.24,303.85z
	 M222.5,312.09l5.15-6.52L222.5,312.09z M242.75,325.81l7.89-9.27L242.75,325.81z M261.62,338.86l8.92-8.92L261.62,338.86z
	 M362.87,430.15l-25.4,5.83L362.87,430.15z M348.8,397.89l-24.03,7.89L348.8,397.89z M284.62,356.36l11.33-9.27L284.62,356.36z
	 M305.56,376.95l13.39-9.95L305.56,376.95z"/>
<path class="st3" d="M342.37,444.88c1.58,9.11,1.11,18.47-1.74,28.12l13.36,0.04c1.52-10.74,1.03-20.88-1.33-30.53L342.37,444.88z"
	/>
<path class="st3" d="M346.86,416.8c-3.34-8.26-8.08-16.75-14.86-25.99l-6.82,3.51c5.34,8.03,9.57,16,12.47,23.9L346.86,416.8z"/>
<path class="st3" d="M208,296c6.87,3.35,13.59,6.7,20.17,10.07l0.65-0.83C222.08,302.17,215.15,299.1,208,296z"/>
<path class="st3" d="M261.99,321.57c-5.24-2.64-10.65-5.27-16.21-7.92l-1.15,1.49c5.28,2.82,10.46,5.66,15.5,8.5L261.99,321.57z"/>
<path class="st3" d="M288.49,341.42c-4.57-3.91-9.38-7.84-14.39-11.81l-2.62,2.31c4.71,4.12,9.25,8.22,13.58,12.31L288.49,341.42z"
	/>
<path class="st3" d="M320.07,371.32c-5.1-5-10.68-10-16.7-15.02l-4.22,3.31c5.52,5.08,10.67,10.16,15.38,15.23L320.07,371.32z"/>
</svg>
