<?xml version="1.0" encoding="utf-8"?>
<!-- Generator: Adobe Illustrator 28.1.0, SVG Export Plug-In . SVG Version: 6.00 Build 0)  -->
<svg version="1.1" xmlns="http://www.w3.org/2000/svg" xmlns:xlink="http://www.w3.org/1999/xlink" x="0px" y="0px"
	 viewBox="0 0 500 500" style="enable-background:new 0 0 500 500;" xml:space="preserve">
<style type="text/css">
	.st0{fill:#FAFAFA;}
	.st1{fill:#E0E0E0;}
	.st2{fill:#455A64;}
	.st3{opacity:0.1;}
	.st4{fill:#263238;}
	.st5{fill:#37474F;}
	.st6{fill:#FF9900;}
	.st7{opacity:0.2;}
	.st8{opacity:0.3;}
	.st9{fill:#FFFFFF;}
	.st10{fill:#FFA8A7;}
	.st11{fill:#F28F8F;}
	.st12{fill:#F0F0F0;}
	.st13{fill:#EBEBEB;}
	.st14{fill:#B16668;}
	.st15{opacity:0.5;}
	.st16{opacity:0.85;}
	.st17{opacity:0.6;}
	.st18{fill:#BA68C8;}
	.st19{opacity:0.03;}
	.st20{opacity:0.4;}
	.st21{opacity:0.5;fill:#FFFFFF;}
	.st22{opacity:0.5;fill:#BA68C8;}
	.st23{opacity:0.15;}
	.st24{opacity:0.6;fill:#FFFFFF;}
	.st25{opacity:0.9;fill:#FFFFFF;}
	.st26{fill:none;stroke:#FFFFFF;stroke-width:0.589;stroke-linecap:round;stroke-linejoin:round;}
	.st27{fill:none;stroke:#FFFFFF;stroke-width:0.589;stroke-linecap:round;stroke-linejoin:round;stroke-dasharray:1.1236,2.2472;}
	.st28{fill:none;stroke:#FFFFFF;stroke-width:0.589;stroke-linecap:round;stroke-linejoin:round;stroke-dasharray:1.2309,2.4617;}
	.st29{fill:none;stroke:#FFFFFF;stroke-width:0.589;stroke-linecap:round;stroke-linejoin:round;stroke-dasharray:1.1026,2.2052;}
	.st30{fill:none;stroke:#FFFFFF;stroke-width:0.589;stroke-linecap:round;stroke-linejoin:round;stroke-dasharray:1.1812,2.3623;}
	.st31{opacity:0.4;fill:#FFFFFF;}
	.st32{opacity:0.8;fill:#FFFFFF;}
	.st33{opacity:0.7;fill:#FFFFFF;}
	.st34{opacity:0.1;fill:#FFFFFF;}
	.st35{opacity:0.85;fill:#FFFFFF;}
	.st36{opacity:0.2;fill:#FFFFFF;}
</style>
<g id="Floor">
	<path id="Floor_00000048472611002434275530000014874776674649961896_" class="st0" d="M77.66,245.85
		c-95.18,54.95-95.18,144.04,0.01,199c95.18,54.95,249.5,54.95,344.67,0c95.18-54.95,95.18-144.04-0.01-199
		S172.84,190.9,77.66,245.85z"/>
</g>
<g id="Shadows">
	<path id="Shadow_00000156586992946865189630000007549575388702412169_" class="st1" d="M382.61,351.43c-2.54,0-4.82-1.88-5.29-4.38
		l-1.01-5.32c-2.35-0.45-4.63-1.02-6.8-1.68l-9.97,4.62c-0.78,0.36-1.68,0.55-2.62,0.55c-0.81,0-2.01-0.14-3.17-0.81l-10.07-5.81
		c-1.42-0.82-2.32-2.24-2.4-3.81c-0.08-1.57,0.67-3.08,2.01-4.04l5.59-4.02c-0.36-0.51-0.71-1.03-1.02-1.56l-12.5-0.79
		c-2.74-0.18-4.88-2.46-4.88-5.2v-7.48c0-2.74,2.14-5.02,4.88-5.2l12.5-0.79c0.31-0.53,0.66-1.05,1.02-1.56l-5.58-4.02
		c-1.34-0.96-2.09-2.47-2.01-4.04c0.08-1.57,0.98-2.99,2.4-3.82l10.06-5.81c1.16-0.67,2.37-0.81,3.18-0.81
		c0.93,0,1.84,0.19,2.61,0.55l9.97,4.62c2.17-0.67,4.45-1.23,6.8-1.68l1.01-5.32c0.47-2.5,2.75-4.38,5.29-4.38h14.8
		c2.54,0,4.82,1.88,5.29,4.38l1.01,5.32c2.35,0.45,4.63,1.01,6.8,1.68l9.97-4.62c0.78-0.36,1.68-0.55,2.61-0.55
		c0.81,0,2.01,0.14,3.18,0.81l10.07,5.81c1.43,0.82,2.32,2.25,2.4,3.82c0.08,1.57-0.67,3.08-2,4.04l-5.59,4.02
		c0.36,0.51,0.71,1.03,1.02,1.56l12.5,0.79c2.74,0.17,4.88,2.46,4.88,5.2v7.48c0,2.74-2.14,5.03-4.88,5.2l-12.5,0.79
		c-0.31,0.53-0.66,1.05-1.02,1.56l5.58,4.02c1.34,0.96,2.09,2.47,2.01,4.04c-0.08,1.57-0.98,2.99-2.4,3.82l-10.06,5.81
		c-1.16,0.67-2.37,0.81-3.18,0.81l0,0c-0.93,0-1.84-0.19-2.61-0.55l-9.97-4.62c-2.17,0.67-4.45,1.23-6.8,1.68l-1.01,5.32
		c-0.48,2.5-2.75,4.38-5.29,4.38H382.61z M390.02,305.41c-5.67,0-11.16,1.29-15.07,3.55c-3.25,1.87-5.11,4.23-5.11,6.46
		c0,2.23,1.86,4.59,5.11,6.46c3.9,2.25,9.4,3.55,15.07,3.55c5.67,0,11.16-1.29,15.07-3.55c3.25-1.87,5.11-4.23,5.11-6.46
		c0-2.23-1.86-4.59-5.11-6.46C401.18,306.7,395.68,305.41,390.02,305.41z"/>
	<path id="Shadow_00000164482176791618657930000015577198330936190107_" class="st1" d="M224.68,380.48
		c-4.8,3.76-9.79,7.55-15.49,8.95c-5.7,1.4-12.35-0.09-15.9-5.34c-5.57-8.21-2.66-22.8,2.35-30.21c1.71-2.53,3.55-4.85,5.51-6.95
		c15.97-17.17,39.51-20.05,60.32-15.58c8.26,1.77,14.16,4.25,21.59,8.05c7.15,3.66,13.99,9.18,17.75,16.29
		c1.73,3.27,1.86,7.64-0.53,10.72c-1.53,1.96-4.67,4.08-10.05,5.2c-6.97,1.46-14.47,0.23-24.47-1.07
		c-7.23-0.94-14.67-1.55-21.85,0.13C236.72,372.35,230.67,375.77,224.68,380.48z"/>
	<path id="Shadow_00000103973472105328231020000008098921042156192185_" class="st1" d="M228.55,445.9c-4.42,0-8.36-3.27-9.19-7.61
		l-2.39-12.59c-5.48-0.99-10.81-2.29-15.85-3.86c-0.04,0-0.12-0.01-0.23-0.01c-0.23,0-0.41,0.03-0.5,0.05l-21.42,9.92
		c-1.38,0.64-2.99,0.98-4.67,0.98l0,0c-2.06,0-4.08-0.51-5.69-1.44l-21.26-12.27c-2.41-1.39-3.93-3.79-4.06-6.41
		c-0.13-2.62,1.14-5.16,3.4-6.78l13.47-9.69c-1.43-1.85-2.71-3.76-3.8-5.7l-27.48-1.74c-4.71-0.3-8.4-4.23-8.4-8.95v-15.8
		c0-4.72,3.69-8.66,8.41-8.95l27.48-1.74c1.1-1.94,2.37-3.85,3.8-5.7l-13.47-9.69c-2.26-1.63-3.53-4.16-3.4-6.78
		c0.13-2.62,1.65-5.01,4.06-6.41l21.26-12.27c1.61-0.93,3.63-1.44,5.69-1.44c1.68,0,3.29,0.34,4.67,0.98l21.42,9.92
		c0.09,0.02,0.27,0.05,0.5,0.05c0.11,0,0.19-0.01,0.23-0.01c5.03-1.57,10.36-2.87,15.85-3.86l2.39-12.59
		c0.82-4.34,4.77-7.6,9.19-7.6l31.26,0c4.42,0,8.37,3.27,9.19,7.61l2.39,12.59c5.49,1,10.81,2.29,15.85,3.86
		c0.04,0,0.12,0.01,0.23,0.01c0.23,0,0.41-0.03,0.5-0.05l21.42-9.92c1.38-0.64,2.99-0.98,4.67-0.98c2.06,0,4.08,0.51,5.69,1.44
		L341,324.7c2.41,1.39,3.93,3.79,4.06,6.41c0.13,2.62-1.14,5.16-3.4,6.78l-13.47,9.69c1.43,1.85,2.71,3.76,3.8,5.7l27.48,1.74
		c4.71,0.3,8.4,4.23,8.4,8.96v15.8c0,4.73-3.69,8.66-8.4,8.95L332,390.48c-1.1,1.94-2.37,3.85-3.81,5.7l13.47,9.69
		c2.26,1.63,3.53,4.16,3.4,6.78c-0.13,2.62-1.65,5.01-4.06,6.41l-21.26,12.27c-1.61,0.93-3.63,1.44-5.69,1.44
		c-1.68,0-3.29-0.34-4.67-0.98l-21.42-9.92c-0.09-0.02-0.27-0.05-0.5-0.05c-0.11,0-0.19,0.01-0.23,0.01
		c-5.04,1.57-10.36,2.87-15.85,3.86l-2.39,12.6c-0.83,4.33-4.77,7.6-9.19,7.6H228.55z M196.35,347.82
		c-11.61,6.7-18.01,15.25-18.01,24.06c0,8.81,6.4,17.36,18.01,24.06c12.68,7.32,29.66,11.35,47.82,11.35
		c18.16,0,35.15-4.03,47.82-11.35c11.61-6.7,18.01-15.25,18.01-24.06c0-8.81-6.4-17.36-18.01-24.06
		c-12.68-7.32-29.66-11.35-47.82-11.35C226.01,336.47,209.03,340.5,196.35,347.82z"/>
	<path id="Shadow_00000109726210585083256230000014153140662098541993_" class="st1" d="M88.55,351.43c-2.54,0-4.82-1.88-5.29-4.38
		l-1.01-5.32c-2.35-0.45-4.63-1.02-6.8-1.68l-9.97,4.62c-0.78,0.36-1.68,0.55-2.62,0.55c-0.81,0-2.01-0.14-3.17-0.81l-10.07-5.81
		c-1.42-0.82-2.32-2.24-2.4-3.81c-0.08-1.57,0.67-3.08,2.01-4.04l5.59-4.02c-0.36-0.51-0.71-1.03-1.02-1.56l-12.5-0.79
		c-2.74-0.18-4.88-2.46-4.88-5.2v-7.48c0-2.74,2.14-5.02,4.88-5.2l12.5-0.79c0.31-0.53,0.66-1.05,1.02-1.56l-5.58-4.02
		c-1.34-0.96-2.09-2.47-2.01-4.04c0.08-1.57,0.98-2.99,2.4-3.82l10.06-5.81c1.16-0.67,2.37-0.81,3.18-0.81
		c0.93,0,1.84,0.19,2.61,0.55l9.97,4.62c2.17-0.67,4.45-1.23,6.8-1.68l1.01-5.32c0.47-2.5,2.75-4.38,5.29-4.38h14.8
		c2.54,0,4.82,1.88,5.29,4.38l1.01,5.32c2.35,0.45,4.63,1.01,6.8,1.68l9.97-4.62c0.78-0.36,1.68-0.55,2.61-0.55
		c0.81,0,2.01,0.14,3.18,0.81l10.07,5.81c1.43,0.82,2.32,2.25,2.4,3.82c0.08,1.57-0.67,3.08-2,4.04l-5.59,4.02
		c0.36,0.51,0.71,1.03,1.02,1.56l12.5,0.79c2.74,0.17,4.88,2.46,4.88,5.2v7.48c0,2.74-2.14,5.03-4.88,5.2l-12.5,0.79
		c-0.31,0.53-0.66,1.05-1.02,1.56l5.58,4.02c1.34,0.96,2.09,2.47,2.01,4.04c-0.08,1.57-0.98,2.99-2.4,3.82l-10.06,5.81
		c-1.16,0.67-2.37,0.81-3.18,0.81l0,0c-0.93,0-1.84-0.19-2.61-0.55l-9.97-4.62c-2.17,0.67-4.45,1.23-6.8,1.68l-1.01,5.32
		c-0.48,2.5-2.75,4.38-5.29,4.38H88.55z M95.95,305.41c-5.67,0-11.16,1.29-15.07,3.55c-3.24,1.87-5.11,4.23-5.11,6.46
		c0,2.23,1.86,4.59,5.11,6.46c3.9,2.25,9.4,3.55,15.07,3.55c5.67,0,11.16-1.29,15.07-3.55c3.25-1.87,5.11-4.23,5.11-6.46
		c0-2.23-1.86-4.59-5.11-6.46C107.11,306.7,101.62,305.41,95.95,305.41z"/>
</g>
<g id="Gears">
	<g id="Gear_00000123403423397891348100000005894846988999312783_">
		<g>
			<path class="st2" d="M434.4,283.64l-10.07-5.81c-0.6-0.35-1.6-0.39-2.23-0.1l-10.2,4.73c-0.63,0.29-1.67,0.35-2.33,0.14
				c-2.54-0.79-5.2-1.42-7.92-1.88c-0.68-0.12-1.35-0.75-1.48-1.43l-1.28-6.72c-0.13-0.68-0.8-1.23-1.49-1.23l-14.8,0
				c-0.69,0-1.36,0.55-1.49,1.23l-1.28,6.72c-0.13,0.68-0.79,1.32-1.47,1.43c-2.72,0.46-5.38,1.09-7.92,1.88
				c-0.66,0.21-1.7,0.15-2.33-0.14l-10.2-4.73c-0.63-0.29-1.63-0.25-2.23,0.1l-10.06,5.81c-0.31,0.18-0.47,0.43-0.47,0.68l0,0
				l-0.02,8.72l0,0c0,0.24,0.13,0.48,0.4,0.68l4.63,3.33c-0.35,0.26-0.76,0.45-1.14,0.47l-13.41,0.85
				c-0.69,0.04-1.25,0.64-1.25,1.34l0,5.7c0,0,0,0.01,0,0.01l-0.02,10.49c0,0.69,0.56,1.29,1.25,1.34L349,318.1
				c0.39,0.03,0.81,0.22,1.16,0.49l-4.6,3.31c-0.27,0.19-0.4,0.43-0.4,0.67l0,0l-0.02,8.73l0,0c0,0.26,0.16,0.5,0.47,0.68
				l10.06,5.81c0.6,0.35,1.6,0.39,2.23,0.1l10.2-4.73c0.63-0.29,1.67-0.35,2.33-0.14c2.54,0.79,5.2,1.42,7.92,1.88
				c0.68,0.12,1.35,0.75,1.48,1.43l1.28,6.72c0.13,0.68,0.8,1.23,1.49,1.23l14.8,0c0.69,0,1.36-0.55,1.49-1.23l1.28-6.72
				c0.13-0.68,0.79-1.32,1.47-1.43c2.72-0.46,5.38-1.09,7.92-1.88c0.66-0.21,1.7-0.15,2.33,0.14l10.2,4.73
				c0.63,0.29,1.63,0.25,2.23-0.1l10.06-5.81c0.3-0.18,0.46-0.42,0.47-0.67l0,0l0.02-8.75l0,0c0-0.24-0.13-0.47-0.4-0.67l-4.63-3.33
				c0.35-0.26,0.76-0.45,1.14-0.47l13.41-0.85c0.69-0.04,1.25-0.64,1.25-1.34l0.02-8.69c0-0.01,0.01-0.02,0.01-0.04l0-7.48
				c0-0.69-0.56-1.29-1.25-1.34l-13.41-0.85c-0.39-0.02-0.81-0.22-1.16-0.49l4.6-3.31c0.27-0.19,0.4-0.43,0.4-0.67l0,0l0.02-8.74
				l0,0C434.87,284.06,434.71,283.81,434.4,283.64z M366.46,306.24c0.72-2.41,2.87-4.77,6.55-6.89c9.39-5.42,24.62-5.42,34.01,0
				c3.44,1.99,5.69,4.18,6.7,6.42c-0.8,2.75-3.03,5.38-6.7,7.5c-9.39,5.42-24.62,5.42-34.01,0
				C369.55,311.27,367.37,308.82,366.46,306.24z"/>
		</g>
		<path class="st3" d="M350.83,310.58c-0.33-0.61-1.12-1.16-1.81-1.21l-13.41-0.85c-0.69-0.05-1.25-0.64-1.25-1.34l0-1.77
			l-0.02,10.49c0.01,0.7,0.56,1.29,1.26,1.34L349,318.1c0.4,0.02,0.82,0.21,1.18,0.49l3.36-2.42c0.56-0.4,0.62-1.13,0.15-1.64
			C352.52,313.25,351.57,311.93,350.83,310.58z M345.13,293.04L345.13,293.04c0,0.24,0.14,0.48,0.41,0.68l4.63,3.34
			c0.28-0.2,0.52-0.46,0.66-0.73c0.74-1.35,1.69-2.67,2.85-3.95c0.47-0.52,0.41-1.23-0.15-1.64l-7.98-5.74
			c-0.23-0.18-0.36-0.38-0.4-0.59L345.13,293.04z"/>
		<g>
			<path class="st2" d="M445.66,307.37c-0.09,0.61-0.61,1.12-1.24,1.16l-13.41,0.85c-0.22,0.01-0.46,0.08-0.67,0.18l-0.02,8.74
				c0.22-0.1,0.44-0.18,0.66-0.19l13.41-0.85c0.7-0.04,1.26-0.64,1.26-1.33L445.66,307.37z M434.88,284.32L434.88,284.32
				c0,0.08-0.02,0.17-0.06,0.26c-0.02,0.09-0.08,0.18-0.16,0.26c-0.06,0.06-0.11,0.11-0.18,0.16l-7.98,5.74
				c-0.07,0.05-0.14,0.11-0.19,0.17c-0.13,0.15-0.22,0.32-0.25,0.49c-0.02,0.11-0.03,0.22-0.01,0.34c0.01,0.06,0.02,0.12,0.04,0.17
				c0.05,0.17,0.14,0.32,0.27,0.46c0.06,0.06,0.1,0.12,0.15,0.18c1.1,1.22,2,2.49,2.7,3.77c0.15,0.26,0.37,0.51,0.63,0.72l4.61-3.31
				c0.26-0.2,0.4-0.44,0.4-0.67l0.01,0.01L434.88,284.32z M434.87,322.66c-0.03,0.23-0.19,0.45-0.47,0.62l-10.07,5.81
				c-0.41,0.24-1.02,0.34-1.56,0.27l-0.01,8.72c0.55,0.06,1.14-0.02,1.56-0.27l10.06-5.81c0.31-0.18,0.47-0.41,0.47-0.66
				L434.87,322.66z M369.12,324.21c-0.37,0.04-0.73,0.12-1.01,0.24l-10.2,4.73c-0.26,0.13-0.58,0.19-0.91,0.19l-0.02,8.71
				c0.33-0.02,0.65-0.06,0.91-0.18l10.2-4.73c0.28-0.12,0.64-0.2,1-0.23L369.12,324.21z M398.66,334.92
				c-0.28,0.39-0.75,0.67-1.24,0.66l-14.81,0.01c-0.33-0.01-0.65-0.12-0.9-0.33l-0.01,8.73c0.26,0.2,0.57,0.32,0.9,0.32l14.79,0
				c0.53,0,1.02-0.31,1.3-0.74L398.66,334.92z"/>
		</g>
		<g>
			<path id="XMLID_00000177480112911367828420000004850206660383446409_" class="st2" d="M422.11,277.72l-10.2,4.73
				c-0.63,0.29-1.67,0.35-2.33,0.14c-2.54-0.79-5.2-1.42-7.92-1.88c-0.68-0.12-1.35-0.75-1.48-1.43l-1.28-6.72
				c-0.13-0.68-0.8-1.23-1.49-1.23l-14.8,0c-0.69,0-1.36,0.55-1.49,1.23l-1.28,6.72c-0.13,0.68-0.79,1.32-1.47,1.43
				c-2.72,0.46-5.38,1.09-7.92,1.88c-0.66,0.21-1.7,0.15-2.33-0.14l-10.2-4.73c-0.63-0.29-1.63-0.25-2.23,0.1l-10.06,5.81
				c-0.6,0.35-0.63,0.96-0.07,1.36l7.98,5.74c0.56,0.41,0.62,1.13,0.15,1.64c-1.17,1.27-2.11,2.6-2.85,3.95
				c-0.33,0.61-1.12,1.16-1.81,1.2l-13.41,0.85c-0.69,0.04-1.25,0.64-1.25,1.34l0,7.48c0,0.69,0.56,1.29,1.25,1.34l13.41,0.85
				c0.69,0.04,1.48,0.59,1.81,1.2c0.74,1.35,1.68,2.68,2.85,3.95c0.47,0.51,0.42,1.23-0.15,1.64l-7.98,5.74
				c-0.56,0.41-0.53,1.01,0.07,1.36l10.06,5.81c0.6,0.35,1.6,0.39,2.23,0.1l10.2-4.73c0.63-0.29,1.67-0.35,2.33-0.14
				c2.54,0.79,5.2,1.42,7.92,1.88c0.68,0.12,1.35,0.75,1.47,1.43l1.28,6.72c0.13,0.68,0.8,1.23,1.49,1.23l14.8,0
				c0.69,0,1.36-0.55,1.49-1.23l1.28-6.72c0.13-0.68,0.79-1.32,1.47-1.43c2.72-0.46,5.38-1.09,7.92-1.88
				c0.66-0.21,1.71-0.15,2.33,0.14l10.2,4.73c0.63,0.29,1.63,0.25,2.23-0.1l10.06-5.81c0.6-0.35,0.63-0.96,0.07-1.36l-7.98-5.74
				c-0.56-0.41-0.62-1.13-0.15-1.64c1.17-1.27,2.11-2.6,2.85-3.95c0.33-0.61,1.12-1.16,1.81-1.2l13.41-0.85
				c0.69-0.04,1.25-0.64,1.25-1.34l0-7.48c0-0.69-0.56-1.29-1.25-1.34l-13.41-0.85c-0.69-0.04-1.48-0.59-1.81-1.2
				c-0.74-1.35-1.68-2.68-2.85-3.95c-0.47-0.51-0.42-1.23,0.15-1.64l7.98-5.74c0.56-0.41,0.53-1.01-0.07-1.36l-10.07-5.81
				C423.74,277.48,422.74,277.43,422.11,277.72z M407.02,293.64c9.39,5.42,9.39,14.21,0,19.63c-9.39,5.42-24.62,5.42-34.01,0
				c-9.39-5.42-9.39-14.21,0-19.63C382.4,288.21,397.63,288.21,407.02,293.64z"/>
		</g>
	</g>
	<g id="Gear_00000087376028351967574990000016344367432230486697_">
		<g>
			<path class="st4" d="M140.34,283.64l-10.07-5.81c-0.6-0.35-1.6-0.39-2.23-0.1l-10.2,4.73c-0.63,0.29-1.67,0.35-2.33,0.14
				c-2.54-0.79-5.2-1.42-7.92-1.88c-0.68-0.12-1.35-0.75-1.47-1.43l-1.28-6.72c-0.13-0.68-0.8-1.23-1.49-1.23l-14.8,0
				c-0.69,0-1.36,0.55-1.49,1.23l-1.28,6.72c-0.13,0.68-0.79,1.32-1.47,1.43c-2.72,0.46-5.38,1.09-7.92,1.88
				c-0.66,0.21-1.71,0.15-2.33-0.14l-10.2-4.73c-0.63-0.29-1.63-0.25-2.23,0.1l-10.06,5.81c-0.31,0.18-0.47,0.43-0.47,0.68l0,0
				l-0.02,8.72l0,0c0,0.24,0.13,0.48,0.4,0.68l4.63,3.33c-0.35,0.26-0.76,0.45-1.14,0.47l-13.41,0.85
				c-0.69,0.04-1.25,0.64-1.25,1.34l0,5.7c0,0,0,0.01,0,0.01l-0.02,10.49c0,0.69,0.56,1.29,1.25,1.34l13.41,0.85
				c0.39,0.03,0.81,0.22,1.16,0.49l-4.6,3.31c-0.27,0.19-0.4,0.43-0.4,0.67l0,0l-0.02,8.73l0,0c0,0.26,0.16,0.5,0.47,0.68
				l10.06,5.81c0.6,0.35,1.6,0.39,2.23,0.1l10.2-4.73c0.63-0.29,1.67-0.35,2.33-0.14c2.54,0.79,5.2,1.42,7.92,1.88
				c0.68,0.12,1.35,0.75,1.48,1.43l1.28,6.72c0.13,0.68,0.8,1.23,1.49,1.23l14.8,0c0.69,0,1.36-0.55,1.49-1.23l1.28-6.72
				c0.13-0.68,0.79-1.32,1.47-1.43c2.72-0.46,5.38-1.09,7.92-1.88c0.66-0.21,1.71-0.15,2.33,0.14l10.2,4.73
				c0.63,0.29,1.63,0.25,2.23-0.1l10.06-5.81c0.3-0.18,0.46-0.42,0.47-0.67l0,0l0.02-8.75l0,0c0-0.24-0.13-0.47-0.4-0.67l-4.63-3.33
				c0.35-0.26,0.76-0.45,1.14-0.47l13.41-0.85c0.69-0.04,1.25-0.64,1.25-1.34l0.02-8.69c0-0.01,0.01-0.02,0.01-0.04l0-7.48
				c0-0.69-0.56-1.29-1.25-1.34l-13.41-0.85c-0.39-0.02-0.81-0.22-1.16-0.49l4.6-3.31c0.27-0.19,0.4-0.43,0.4-0.67l0,0l0.02-8.74
				l0,0C140.8,284.06,140.65,283.81,140.34,283.64z M72.39,306.24c0.72-2.41,2.87-4.77,6.55-6.89c9.39-5.42,24.62-5.42,34.01,0
				c3.44,1.99,5.69,4.18,6.7,6.42c-0.8,2.75-3.03,5.38-6.7,7.5c-9.39,5.42-24.62,5.42-34.01,0
				C75.48,311.27,73.3,308.82,72.39,306.24z"/>
		</g>
		<path class="st3" d="M56.76,310.58c-0.33-0.61-1.12-1.16-1.81-1.21l-13.41-0.85c-0.69-0.05-1.25-0.64-1.25-1.34l0-1.77
			l-0.02,10.49c0.01,0.7,0.56,1.29,1.26,1.34l13.41,0.85c0.4,0.02,0.82,0.21,1.18,0.49l3.36-2.42c0.56-0.4,0.62-1.13,0.15-1.64
			C58.45,313.25,57.5,311.93,56.76,310.58z M51.06,293.04L51.06,293.04c0,0.24,0.14,0.48,0.41,0.68l4.63,3.34
			c0.28-0.2,0.52-0.46,0.66-0.73c0.74-1.35,1.69-2.67,2.85-3.95c0.47-0.52,0.41-1.23-0.15-1.64L51.49,285
			c-0.23-0.18-0.36-0.38-0.4-0.59L51.06,293.04z"/>
		<g>
			<path class="st5" d="M151.6,307.37c-0.09,0.61-0.61,1.12-1.24,1.16l-13.41,0.85c-0.22,0.01-0.46,0.08-0.67,0.18l-0.02,8.74
				c0.22-0.1,0.44-0.18,0.66-0.19l13.41-0.85c0.7-0.04,1.26-0.64,1.26-1.33L151.6,307.37z M140.81,284.32L140.81,284.32
				c0,0.08-0.02,0.17-0.06,0.26c-0.02,0.09-0.08,0.18-0.16,0.26c-0.06,0.06-0.11,0.11-0.18,0.16l-7.98,5.74
				c-0.07,0.05-0.14,0.11-0.19,0.17c-0.13,0.15-0.22,0.32-0.25,0.49c-0.02,0.11-0.03,0.22-0.01,0.34c0.01,0.06,0.02,0.12,0.04,0.17
				c0.05,0.17,0.14,0.32,0.27,0.46c0.06,0.06,0.1,0.12,0.15,0.18c1.1,1.22,2,2.49,2.7,3.77c0.15,0.26,0.37,0.51,0.63,0.72l4.61-3.31
				c0.26-0.2,0.4-0.44,0.4-0.67l0.01,0.01L140.81,284.32z M140.81,322.66c-0.03,0.23-0.19,0.45-0.47,0.62l-10.07,5.81
				c-0.41,0.24-1.02,0.34-1.56,0.27l-0.01,8.72c0.55,0.06,1.14-0.02,1.56-0.27l10.06-5.81c0.31-0.18,0.47-0.41,0.47-0.66
				L140.81,322.66z M75.06,324.21c-0.37,0.04-0.73,0.12-1.01,0.24l-10.2,4.73c-0.26,0.13-0.58,0.19-0.91,0.19l-0.02,8.71
				c0.33-0.02,0.65-0.06,0.91-0.18l10.2-4.73c0.28-0.12,0.64-0.2,1-0.23L75.06,324.21z M104.59,334.92
				c-0.28,0.39-0.75,0.67-1.24,0.66l-14.81,0.01c-0.33-0.01-0.65-0.12-0.9-0.33l-0.01,8.73c0.26,0.2,0.57,0.32,0.9,0.32l14.79,0
				c0.53,0,1.02-0.31,1.3-0.74L104.59,334.92z"/>
		</g>
		<g>
			<path id="XMLID_00000138539796322363668520000012607118557589596569_" class="st2" d="M128.04,277.72l-10.2,4.73
				c-0.63,0.29-1.67,0.35-2.33,0.14c-2.54-0.79-5.2-1.42-7.92-1.88c-0.68-0.12-1.35-0.75-1.47-1.43l-1.28-6.72
				c-0.13-0.68-0.8-1.23-1.49-1.23l-14.8,0c-0.69,0-1.36,0.55-1.49,1.23l-1.28,6.72c-0.13,0.68-0.79,1.32-1.47,1.43
				c-2.72,0.46-5.38,1.09-7.92,1.88c-0.66,0.21-1.71,0.15-2.33-0.14l-10.2-4.73c-0.63-0.29-1.63-0.25-2.23,0.1l-10.06,5.81
				c-0.6,0.35-0.63,0.96-0.07,1.36l7.98,5.74c0.56,0.41,0.62,1.13,0.15,1.64c-1.17,1.27-2.11,2.6-2.85,3.95
				c-0.33,0.61-1.12,1.16-1.81,1.2l-13.41,0.85c-0.69,0.04-1.25,0.64-1.25,1.34l0,7.48c0,0.69,0.56,1.29,1.25,1.34l13.41,0.85
				c0.69,0.04,1.48,0.59,1.81,1.2c0.74,1.35,1.68,2.68,2.85,3.95c0.47,0.51,0.42,1.23-0.15,1.64l-7.98,5.74
				c-0.56,0.41-0.53,1.01,0.07,1.36l10.06,5.81c0.6,0.35,1.6,0.39,2.23,0.1l10.2-4.73c0.63-0.29,1.67-0.35,2.33-0.14
				c2.54,0.79,5.2,1.42,7.92,1.88c0.68,0.12,1.35,0.75,1.47,1.43l1.28,6.72c0.13,0.68,0.8,1.23,1.49,1.23l14.8,0
				c0.69,0,1.36-0.55,1.49-1.23l1.28-6.72c0.13-0.68,0.79-1.32,1.47-1.43c2.72-0.46,5.38-1.09,7.92-1.88
				c0.66-0.21,1.71-0.15,2.33,0.14l10.2,4.73c0.63,0.29,1.63,0.25,2.23-0.1l10.06-5.81c0.6-0.35,0.63-0.96,0.07-1.36l-7.98-5.74
				c-0.56-0.41-0.62-1.13-0.15-1.64c1.17-1.27,2.11-2.6,2.85-3.95c0.33-0.61,1.12-1.16,1.81-1.2l13.41-0.85
				c0.69-0.04,1.25-0.64,1.25-1.34l0-7.48c0-0.69-0.56-1.29-1.25-1.34l-13.41-0.85c-0.69-0.04-1.48-0.59-1.81-1.2
				c-0.74-1.35-1.68-2.68-2.85-3.95c-0.47-0.51-0.42-1.23,0.15-1.64l7.98-5.74c0.56-0.41,0.53-1.01-0.07-1.36l-10.07-5.81
				C129.67,277.48,128.67,277.43,128.04,277.72z M112.95,293.64c9.39,5.42,9.39,14.21,0,19.63c-9.39,5.42-24.62,5.42-34.01,0
				c-9.39-5.42-9.39-14.21,0-19.63C88.34,288.21,103.56,288.21,112.95,293.64z"/>
		</g>
	</g>
	<g id="Gear_00000026880211178656585560000003077532080656647298_">
		<g>
			<path class="st6" d="M149.43,311.66L149.43,311.66l0.04,18.45l0.01,0c0,0.5,0.28,1,0.84,1.41l9.73,7
				c-0.75,0.57-1.63,0.99-2.46,1.04l-28.33,1.79c-1.46,0.09-2.65,1.36-2.65,2.82v15.8c0,0.03,0.01,0.05,0.01,0.08l0.04,18.35
				c0,1.46,1.19,2.73,2.65,2.82l28.33,1.79c0.81,0.05,1.67,0.45,2.41,1l-9.78,7.04c-0.57,0.41-0.84,0.91-0.84,1.41l-0.01,0
				l0.05,18.48l0,0c0.02,0.53,0.35,1.04,0.99,1.41l21.26,12.27c1.27,0.73,3.37,0.83,4.7,0.21l21.55-9.98
				c1.33-0.62,3.53-0.73,4.93-0.29c5.37,1.68,10.98,3,16.73,3.98c1.44,0.24,2.84,1.59,3.11,3.03l2.7,14.2
				c0.27,1.44,1.68,2.61,3.15,2.61l31.26,0c1.46,0,2.87-1.17,3.15-2.61l2.7-14.2c0.27-1.44,1.67-2.78,3.12-3.03
				c5.75-0.98,11.36-2.3,16.73-3.98c1.4-0.44,3.6-0.32,4.93,0.3l21.55,9.98c1.33,0.62,3.43,0.52,4.7-0.21l21.26-12.27
				c0.65-0.38,0.98-0.9,0.99-1.44l0.01,0l-0.05-18.45l-0.01,0c0-0.5-0.27-1.01-0.84-1.41l-9.72-7c0.75-0.57,1.63-0.99,2.46-1.04
				l28.33-1.79c1.46-0.09,2.65-1.36,2.65-2.82l-0.04-22.16c0-0.01-0.01-0.02-0.01-0.03l0-12.04c0-1.47-1.19-2.73-2.65-2.82
				l-28.33-1.79c-0.81-0.05-1.67-0.45-2.41-1l9.78-7.04c0.58-0.41,0.85-0.93,0.84-1.43l0.01,0l-0.05-18.43l-0.01,0
				c0-0.54-0.33-1.07-0.99-1.45l-21.26-12.27c-1.27-0.73-3.38-0.83-4.7-0.21l-21.55,9.98c-1.33,0.62-3.53,0.73-4.93,0.29
				c-5.37-1.68-10.98-3-16.72-3.98c-1.44-0.24-2.84-1.59-3.11-3.03l-2.7-14.2c-0.27-1.44-1.68-2.61-3.15-2.61l-31.26,0
				c-1.46,0-2.87,1.17-3.15,2.61l-2.7,14.2c-0.27,1.44-1.67,2.78-3.11,3.03c-5.75,0.98-11.36,2.3-16.73,3.98
				c-1.4,0.44-3.6,0.32-4.93-0.29l-21.55-9.98c-1.33-0.62-3.44-0.52-4.7,0.21l-21.26,12.27
				C149.77,310.6,149.44,311.12,149.43,311.66z M295.07,381.46c-28.11,16.23-73.68,16.23-101.79,0
				c-10.99-6.35-17.66-14.24-20.06-22.46c3.04-6.7,9.76-13.25,20.07-19.21c28.11-16.23,73.68-16.23,101.79,0
				c11,6.35,17.44,13.41,19.6,20.63C311.96,368.13,305.43,375.48,295.07,381.46z"/>
		</g>
		<g class="st7">
			<path d="M126.67,378.41c-0.01,1.45,1.18,2.71,2.65,2.8l28.33,1.8c0.45,0.03,0.93,0.19,1.39,0.4l-0.03-18.46
				c-0.46-0.22-0.96-0.36-1.43-0.38l-28.32-1.79c-1.33-0.1-2.43-1.17-2.62-2.46L126.67,378.41z M149.47,330.13l0.02-0.01
				c-0.01,0.49,0.28,0.99,0.84,1.42l9.75,6.99c0.56-0.44,1.03-0.98,1.34-1.52c1.49-2.72,3.39-5.4,5.71-7.97
				c0.1-0.13,0.19-0.25,0.31-0.37c0.26-0.3,0.46-0.63,0.57-0.98c0.03-0.11,0.06-0.23,0.08-0.36c0.03-0.24,0.02-0.47-0.02-0.71
				c-0.07-0.37-0.25-0.72-0.53-1.04c-0.1-0.13-0.25-0.27-0.4-0.37l-16.85-12.12c-0.16-0.1-0.27-0.21-0.38-0.33
				c-0.17-0.17-0.3-0.36-0.34-0.55c-0.09-0.19-0.13-0.39-0.11-0.56l-0.02,0.01L149.47,330.13z M149.48,410.96
				c0.01,0.52,0.35,1.03,1,1.4l21.25,12.27c0.87,0.51,2.14,0.7,3.29,0.56l-0.03-18.41c-1.15,0.14-2.42-0.07-3.3-0.58l-21.27-12.26
				c-0.59-0.36-0.93-0.81-0.99-1.3L149.48,410.96z M288.35,414.36c0.76,0.07,1.53,0.23,2.11,0.49l21.54,9.99
				c0.56,0.26,1.24,0.35,1.93,0.38l-0.05-18.4c-0.7,0-1.38-0.14-1.92-0.41l-21.54-9.99c-0.59-0.26-1.33-0.43-2.12-0.51
				L288.35,414.36z M225.87,436.8c0.58,0.92,1.63,1.57,2.74,1.57l31.24,0c0.69-0.01,1.34-0.27,1.89-0.68l-0.02-18.44
				c-0.54,0.43-1.22,0.68-1.91,0.69l-31.27-0.01c-1.03,0.02-2.02-0.57-2.62-1.4L225.87,436.8z"/>
		</g>
		<g>
			<path id="XMLID_00000052785154362531459540000001874375052816255374_" class="st6" d="M171.68,297.95l-21.26,12.27
				c-1.27,0.73-1.33,2.02-0.14,2.88l16.85,12.12c1.19,0.86,1.3,2.38,0.31,3.46c-2.46,2.69-4.46,5.49-6.01,8.34
				c-0.7,1.29-2.36,2.45-3.83,2.54l-28.33,1.79c-1.46,0.09-2.65,1.36-2.65,2.82v15.8c0,1.46,1.18,2.73,2.65,2.82l28.33,1.79
				c1.46,0.09,3.13,1.26,3.83,2.54c1.55,2.86,3.55,5.65,6.02,8.34c0.99,1.08,0.88,2.6-0.31,3.46l-16.85,12.12
				c-1.19,0.86-1.12,2.14,0.14,2.88l21.26,12.27c1.27,0.73,3.37,0.83,4.7,0.21l21.55-9.98c1.33-0.62,3.53-0.73,4.93-0.29
				c5.37,1.68,10.98,3,16.73,3.98c1.44,0.25,2.84,1.59,3.11,3.03l2.7,14.2c0.27,1.44,1.68,2.61,3.15,2.61l31.26,0
				c1.46,0,2.87-1.17,3.15-2.61l2.7-14.2c0.27-1.44,1.67-2.78,3.12-3.03c5.75-0.98,11.36-2.3,16.73-3.98
				c1.4-0.44,3.6-0.32,4.93,0.29l21.55,9.98c1.33,0.62,3.44,0.52,4.7-0.21l21.26-12.27c1.27-0.73,1.33-2.02,0.14-2.88l-16.85-12.12
				c-1.19-0.86-1.3-2.38-0.31-3.46c2.46-2.69,4.46-5.48,6.02-8.34c0.7-1.29,2.37-2.45,3.83-2.54l28.33-1.79
				c1.46-0.09,2.65-1.35,2.65-2.82l0-15.8c0-1.46-1.19-2.73-2.65-2.82l-28.33-1.79c-1.46-0.09-3.13-1.25-3.83-2.54
				c-1.55-2.86-3.56-5.65-6.02-8.34c-0.99-1.08-0.88-2.6,0.31-3.46l16.85-12.12c1.19-0.86,1.13-2.14-0.14-2.88l-21.26-12.27
				c-1.27-0.73-3.37-0.83-4.7-0.21l-21.55,9.98c-1.33,0.62-3.53,0.73-4.93,0.29c-5.37-1.68-10.98-3-16.72-3.98
				c-1.44-0.25-2.84-1.59-3.11-3.03l-2.7-14.2c-0.27-1.44-1.68-2.61-3.15-2.61l-31.26,0c-1.46,0-2.87,1.17-3.15,2.61l-2.7,14.2
				c-0.27,1.44-1.67,2.78-3.11,3.03c-5.75,0.98-11.36,2.3-16.73,3.98c-1.4,0.44-3.6,0.32-4.93-0.29l-21.55-9.98
				C175.06,297.12,172.95,297.21,171.68,297.95z M295.07,322.69c28.11,16.23,28.11,42.54,0,58.77c-28.11,16.23-73.68,16.23-101.79,0
				c-28.11-16.23-28.11-42.54,0-58.77C221.39,306.46,266.96,306.46,295.07,322.69z"/>
		</g>
		<g class="st8">
			<path id="XMLID_00000169550909348658233570000009056907293934783930_" class="st9" d="M171.68,297.95l-21.26,12.27
				c-1.27,0.73-1.33,2.02-0.14,2.88l16.85,12.12c1.19,0.86,1.3,2.38,0.31,3.46c-2.46,2.69-4.46,5.49-6.01,8.34
				c-0.7,1.29-2.36,2.45-3.83,2.54l-28.33,1.79c-1.46,0.09-2.65,1.36-2.65,2.82v15.8c0,1.46,1.18,2.73,2.65,2.82l28.33,1.79
				c1.46,0.09,3.13,1.26,3.83,2.54c1.55,2.86,3.55,5.65,6.02,8.34c0.99,1.08,0.88,2.6-0.31,3.46l-16.85,12.12
				c-1.19,0.86-1.12,2.14,0.14,2.88l21.26,12.27c1.27,0.73,3.37,0.83,4.7,0.21l21.55-9.98c1.33-0.62,3.53-0.73,4.93-0.29
				c5.37,1.68,10.98,3,16.73,3.98c1.44,0.25,2.84,1.59,3.11,3.03l2.7,14.2c0.27,1.44,1.68,2.61,3.15,2.61l31.26,0
				c1.46,0,2.87-1.17,3.15-2.61l2.7-14.2c0.27-1.44,1.67-2.78,3.12-3.03c5.75-0.98,11.36-2.3,16.73-3.98
				c1.4-0.44,3.6-0.32,4.93,0.29l21.55,9.98c1.33,0.62,3.44,0.52,4.7-0.21l21.26-12.27c1.27-0.73,1.33-2.02,0.14-2.88l-16.85-12.12
				c-1.19-0.86-1.3-2.38-0.31-3.46c2.46-2.69,4.46-5.48,6.02-8.34c0.7-1.29,2.37-2.45,3.83-2.54l28.33-1.79
				c1.46-0.09,2.65-1.35,2.65-2.82l0-15.8c0-1.46-1.19-2.73-2.65-2.82l-28.33-1.79c-1.46-0.09-3.13-1.25-3.83-2.54
				c-1.55-2.86-3.56-5.65-6.02-8.34c-0.99-1.08-0.88-2.6,0.31-3.46l16.85-12.12c1.19-0.86,1.13-2.14-0.14-2.88l-21.26-12.27
				c-1.27-0.73-3.37-0.83-4.7-0.21l-21.55,9.98c-1.33,0.62-3.53,0.73-4.93,0.29c-5.37-1.68-10.98-3-16.72-3.98
				c-1.44-0.25-2.84-1.59-3.11-3.03l-2.7-14.2c-0.27-1.44-1.68-2.61-3.15-2.61l-31.26,0c-1.46,0-2.87,1.17-3.15,2.61l-2.7,14.2
				c-0.27,1.44-1.67,2.78-3.11,3.03c-5.75,0.98-11.36,2.3-16.73,3.98c-1.4,0.44-3.6,0.32-4.93-0.29l-21.55-9.98
				C175.06,297.12,172.95,297.21,171.68,297.95z M295.07,322.69c28.11,16.23,28.11,42.54,0,58.77c-28.11,16.23-73.68,16.23-101.79,0
				c-28.11-16.23-28.11-42.54,0-58.77C221.39,306.46,266.96,306.46,295.07,322.69z"/>
		</g>
	</g>
</g>
<g id="Character">
	<g id="Character_00000080910069993554688160000015403134843905292724_">
		<g id="Bottom_00000054956587851001720860000003676970090990815648_">
			<g>
				<path class="st10" d="M204.45,340.79c1.24-13.13-0.65-15.73,0.88-36.24l0,0c0.21-5.26,0.52-10.89,0.98-15.89
					c1.55-16.82,4.27-22.53,4.58-25.77c0,0,1-26.2,2.89-63.04c0.89-17.33,6.02-22.47,10.23-31.59l47.72,1.02
					c4.85,22.83,5.31,72.39,4.66,95.79c-0.34,11.93-5.5,63.86-5.63,65.33c-0.45,5.2-0.04,7.27,1.95,9.5
					c4.18,4.68,10.28,9.18,15.56,13.29c-0.82,2.03-8.2,2.78-11.36,1.15c-5.04-2.6-10.02-6.51-11.73-7.84
					c-4.33-3.35-9.9-6.09-9.87-11.05c0-0.62-0.16-0.79-0.13-0.89c-0.02-2.9-5.94-34.9-6.29-44.82c-0.3-8.53,1.04-22.97,1.04-22.97
					l-4.73-36.21c0,0-3.84,21.26-7.58,35.75c-3.04,11.8-8.08,31.93-11.53,46.46l0,0c-3.37,16.75-6.49,21.54-7.44,29.94
					c-0.27,2-3.54,21.63-4.58,26.13c-1.04,4.5-10.88,4.41-11.35-3.38C202.43,360.3,204.22,343.26,204.45,340.79z"/>
				<path id="XMLID_00000139272448598022659970000015179267659408721323_" class="st11" d="M245.21,230.57l4.57-25.95
					c0,0,15.58-1.51,21.34-6.82c0,0-7.34,9.9-17.92,11.32l-4.89,21.49l1.58,35.87L245.21,230.57z"/>
			</g>
			<g>
				<path class="st4" d="M296.35,359.59c0.27,0,0.65,3.01-0.84,4.27c-1.72,1.46-6.77,3.82-13.38,2.9
					c-6.62-0.93-10.19-3.02-12.81-5.26c-2.63-2.25-6.31-5.42-9.3-6.11c-2.78-0.64-5.79-1.94-6.67-2.81c-0.88-0.87-0.72-4.7-0.72-4.7
					L296.35,359.59z"/>
				<path id="XMLID_00000115499869416042582180000005610612558873628600_" class="st5" d="M255.08,333.17c0,0-0.5,0.01-0.68,0.89
					c-0.21,1.05-0.47,4.12-0.92,5.84c-0.63,2.4-1.09,7.33-0.75,9.29c0.34,1.96,4.87,3.38,7.76,4.51c2.95,1.16,6.35,3.52,9.34,6.03
					c3.09,2.6,9.61,5.25,13.93,5.36c6.59,0.17,10.88-1.58,12.23-3.93c1.66-2.91,1.34-5.58-6.2-9.18c-1.43-0.68-6.43-3.72-8.14-4.81
					c-1.8-1.16-3.53-2.45-5.12-3.89c-0.8-0.73-1.57-1.5-2.29-2.31c-0.63-0.72-1.52-1.58-1.89-2.47c-0.08-0.2-0.14-0.44-0.21-0.64
					c-0.21-0.6-0.36-1.16-0.48-1.78c-0.12-0.63-0.18-1.55-0.78-1.93c-0.68-0.44-1.93-0.4-2.71-0.35c-0.98,0.06-3.16,0.52-4.11,0.76
					c-1.7,0.43-2.17,0.9-2.84,1.94c-0.52,0.8-0.6,1.81-0.65,2.74c-0.02,0.44-0.02,0.89-0.03,1.33c0,0.19,0.07,0.53-0.19,0.45
					c-0.25-0.08-0.53-0.74-0.62-0.97c-0.21-0.5-0.33-1.03-0.56-1.52c-0.26-0.56-0.55-1.13-0.93-1.61c-0.35-0.45-0.74-0.88-1.19-1.23
					c-0.41-0.32-0.93-0.49-1.29-0.85C255.31,334.36,255.12,333.54,255.08,333.17z"/>
				<path class="st9" d="M290.99,352.58c-9.55,0.56-13.56,7.38-14,11.02c2.36,0.86,4.79,1.45,6.76,1.5
					c6.59,0.17,11.15-1.57,12.5-3.93C297.81,358.42,297.73,355.22,290.99,352.58z"/>
				<g>
					<g>
						<path class="st12" d="M275.74,353.48c-0.1,0-0.21-0.04-0.29-0.11c-0.2-0.16-0.22-0.46-0.06-0.66
							c1.35-1.61,6.14-4.68,9.61-4.27c0.26,0.03,0.44,0.26,0.41,0.52c-0.03,0.26-0.26,0.44-0.52,0.41
							c-3.24-0.38-7.71,2.66-8.78,3.94C276.01,353.43,275.88,353.48,275.74,353.48z"/>
					</g>
					<g>
						<path class="st12" d="M271.65,351.04c-0.1,0-0.21-0.04-0.29-0.11c-0.2-0.16-0.22-0.46-0.06-0.66
							c1.35-1.61,6.14-4.69,9.61-4.27c0.26,0.03,0.44,0.26,0.41,0.52c-0.03,0.25-0.25,0.44-0.52,0.41
							c-3.23-0.38-7.71,2.66-8.78,3.94C271.92,350.99,271.79,351.05,271.65,351.04z"/>
					</g>
					<g>
						<path class="st12" d="M267.87,348.27c-0.1,0-0.21-0.04-0.29-0.11c-0.2-0.16-0.22-0.46-0.06-0.66
							c1.35-1.61,6.16-4.69,9.61-4.27c0.26,0.03,0.44,0.26,0.41,0.52c-0.03,0.26-0.25,0.44-0.52,0.41
							c-3.23-0.38-7.71,2.66-8.78,3.94C268.14,348.21,268.01,348.27,267.87,348.27z"/>
					</g>
					<g>
						<path class="st12" d="M264.17,345.49c-0.1,0-0.2-0.04-0.29-0.1c-0.2-0.16-0.23-0.46-0.07-0.66c1.85-2.29,6.94-4.72,10.4-4.31
							c0.26,0.03,0.44,0.26,0.41,0.52c-0.03,0.26-0.25,0.43-0.52,0.41c-3.12-0.37-7.92,1.94-9.57,3.97
							C264.44,345.44,264.31,345.49,264.17,345.49z"/>
					</g>
				</g>
			</g>
			<g>
				<path class="st4" d="M217.63,371.71c-0.38,4.75-1.18,7.89-2.93,10.64c-1.75,2.75-4.95,3.56-8.16,2.68
					c-3.21-0.89-7.29-3.16-8.13-7.28c-0.84-4.12-1.32-6.95-0.49-11.34L217.63,371.71z"/>
				<path id="XMLID_00000132779565209716549860000009087330431894839433_" class="st5" d="M204.77,336.85
					c-1.33,0.08-1.82,6.58-2.73,12.96c-0.97,6.84-3.07,9.63-3.93,15.23c-0.97,6.4,0.03,9.29,2.19,13.23
					c2.17,3.93,10.05,7.91,14.09,2.43c3.3-4.47,3.54-9.49,3.38-15.91c-0.16-6.63,0.4-11.21,0.77-16.24
					c0.36-4.8,2.1-10.16,0.96-10.72c-0.21,1.07-0.42,1.93-0.53,2.62c-0.13,0.85-0.52,1.94-0.84,2.75c-0.14,0.35-0.45,0.72-0.56,0.14
					c-0.07-0.4-0.03-0.8,0.03-1.2c0.23-1.77-0.66-1.93-1.14-2.08c-1.04-0.32-5.15-0.92-6.15-1c-1.01-0.09-4.51-0.32-4.98,0.25
					c-0.32,0.38-0.37,1.04-0.49,1.85c-0.13,0.96-0.37,1.67-0.39,1.36c-0.05-0.69,0.05-2.12,0.08-2.56c0.03-0.42,0.1-1.31,0.11-1.73
					C204.69,337.83,204.74,337.26,204.77,336.85z"/>
				<path class="st9" d="M197.67,368.75c-0.31,3.98,0.58,6.73,2.28,9.81c2.17,3.93,10.69,7.93,14.74,2.46
					c2.01-2.73,2.6-5.99,2.94-9.32C215.37,367.37,201.46,365.18,197.67,368.75z"/>
				<g>
					<g>
						<path class="st12" d="M214.88,364.66c-0.06-0.01-0.11-0.02-0.16-0.05c-0.05-0.03-6.15-2.7-12.16-1.44
							c-0.27,0.05-0.53-0.12-0.58-0.38c-0.06-0.27,0.12-0.53,0.38-0.58c6.36-1.33,12.57,1.41,12.81,1.53
							c0.24,0.12,0.34,0.42,0.22,0.66C215.29,364.58,215.08,364.68,214.88,364.66z"/>
					</g>
					<g>
						<path class="st12" d="M202.96,358.39c-0.19-0.02-0.35-0.15-0.41-0.34c-0.08-0.26,0.06-0.54,0.32-0.62
							c6-1.89,12.55,1.28,12.79,1.41c0.24,0.13,0.33,0.43,0.19,0.67c-0.13,0.24-0.44,0.32-0.67,0.19c-0.06-0.03-6.44-3.1-12.02-1.34
							C203.1,358.39,203.03,358.4,202.96,358.39z"/>
					</g>
					<g>
						<path class="st12" d="M203.26,353.88c-0.18-0.02-0.34-0.15-0.41-0.33c-0.09-0.26,0.05-0.54,0.31-0.62
							c6.6-2.21,12.81,1.24,13.04,1.38c0.23,0.15,0.3,0.45,0.15,0.68c-0.15,0.23-0.46,0.3-0.68,0.15
							c-0.05-0.03-6.05-3.33-12.19-1.28C203.41,353.88,203.33,353.89,203.26,353.88z"/>
					</g>
					<g>
						<path class="st13" d="M203.68,349.45c-0.18-0.02-0.34-0.14-0.41-0.33c-0.09-0.26,0.04-0.54,0.3-0.63
							c6.19-2.17,12.87,1.37,13.12,1.52c0.23,0.14,0.31,0.44,0.17,0.68c-0.14,0.23-0.44,0.31-0.68,0.17
							c-0.06-0.03-6.54-3.45-12.29-1.43C203.83,349.45,203.76,349.45,203.68,349.45z"/>
					</g>
				</g>
			</g>
			<path class="st5" d="M220.68,168.19c-5.87,10.19-9.1,18.56-10.32,49.2c-1.23,30.65-1.61,40.06-1.81,43.75
				c-0.2,3.69-3.86,9.14-4.66,26.34c-0.98,21.2-0.16,37.93-0.16,37.93s2.06,3.14,9.01,3.91c6.41,0.71,10.38-1.61,10.38-1.61
				s9.22-32.06,11.89-42.97c2.67-10.92,10.05-46.84,10.05-46.84l3.58,29.34c0,0-2.17,10.01-0.55,26.02
				c1.62,16.01,4.06,28.77,4.06,28.77s5.07,2.23,10.56,2.27c5.5,0.03,9.69-2.26,9.69-2.26s5.42-43.99,5.81-62.09
				c0.39-18.1,0.02-64.27-3.51-91.15L220.68,168.19z"/>
			<path class="st4" d="M251.53,203.22l-6.48,34.68l3.58,29.34l-1.15-29.68l5.73-28.45c4.39-0.95,14.43-5.98,17.32-13.39
				C263.65,202.62,251.53,203.22,251.53,203.22z M231.57,182.44c0.83-2.91,1.71-5.8,2.68-8.71c-1.7,2.56-2.99,5.37-4.11,8.23
				c-1.12,2.86-2.02,5.79-2.81,8.75c-0.75,2.97-1.39,5.96-1.85,8.99c-0.47,3.02-0.8,6.07-0.8,9.15c0.79-2.96,1.54-5.9,2.28-8.85
				c0.75-2.94,1.46-5.88,2.24-8.8C229.95,188.27,230.75,185.35,231.57,182.44z M227.23,180.16c1.02-1.76,2.05-3.53,3-5.4
				c-1.58,1.37-2.96,2.92-4.24,4.56c-1.29,1.63-2.43,3.37-3.48,5.16c-1.02,1.81-1.95,3.68-2.67,5.63c-0.74,1.95-1.31,3.97-1.53,6.05
				l2.9-5.42c0.98-1.78,1.96-3.55,2.98-5.3C225.17,183.67,226.22,181.93,227.23,180.16z M221.12,296.3
				c-1.9,9.39-3.67,18.81-5.32,28.24c2.39-9.28,4.65-18.59,6.79-27.92c2.17-9.33,4.22-18.65,6.27-28.05
				c1.92-9.42,3.29-18.93,4.42-28.44c1.15-9.52,2.04-19.05,2.82-28.61c-1.52,9.46-2.91,18.94-4.31,28.41
				c-1.43,9.46-2.87,18.91-4.82,28.25C224.98,277.51,222.99,286.91,221.12,296.3z M271.63,249.74c0.1,4.16,0.26,8.33,0.1,12.44
				c-0.17,4.12-0.51,8.29-0.81,12.44l-0.89,12.47c-0.6,8.32-1.11,16.65-1.52,24.99c1.16-8.27,2.17-16.55,3.02-24.85
				c0.86-8.31,1.67-16.59,2.13-24.98c0.15-8.44-0.38-16.74-0.95-25.08c-0.59-8.33-1.42-16.64-2.53-24.92l1.03,25
				C271.35,241.41,271.53,245.58,271.63,249.74z"/>
		</g>
		<g id="Top_00000117667756960131487810000008393773544286119831_">
			<g id="Top_00000000213713848656834350000008550039244941743039_">
				<g id="Arm_00000128473494486695634080000008463530207528086173_">
					<path class="st10" d="M302.29,152.97c-7.21,6.58-12.09,4.69-17.08,0.34c-8.4-7.32-19.4-20.4-19.4-20.4s-5.31-18.89-0.98-27.37
						c9.51,0.87,11.87,4.32,20.16,15.79c5,6.92,10.54,14.52,10.54,14.52s12.34-7.57,14.7-10.25c2.37-2.68,3.67-4.27,4.99-6.21
						c1.4-2.06,3.69-4.24,4.73-5.3c2.43-2.47,5.19-4.55,7.72-6.91c0.18-0.17,0.37-0.34,0.61-0.4c0.92-0.24,1.16,1.04,1.18,1.69
						c0.03,0.88-0.47,1.71-0.97,2.42c-0.66,0.94-1.35,1.84-2.02,2.78c-0.18,0.25-0.87,1.04-0.61,1.37c0.28,0.35,1.11-0.38,1.34-0.54
						c0.94-0.64,1.8-1.38,2.67-2.12c2.16-1.84,4.32-3.68,6.48-5.52c0.3-0.25,0.6-0.51,0.96-0.66c1.43-0.61,2.35,0.87,1.5,2.42
						c-0.23,0.41-0.49,0.8-0.79,1.16c-0.93,1.12-1.93,2.18-2.99,3.18c-0.44,0.42-0.87,0.8-1.25,1.28c-0.07,0.09-0.61,0.74-0.2,0.71
						c0.1-0.01,0.18-0.07,0.26-0.13c1.54-1.16,2.96-2.47,4.41-3.74c0.73-0.64,1.48-1.28,2.25-1.88c0.52-0.4,1.35-1.29,2.07-1.2
						c0.24,0.03,0.45,0.16,0.63,0.32c0.55,0.5,0.78,1.35,0.56,2.06c-0.12,0.4-0.34,0.82-0.55,1.18c-0.15,0.25-0.49,0.67-0.83,1.03
						c1.15-0.33,1.83,1.01,1.48,2c-0.54,1.51-1.71,2.47-3.14,3.71c-1.61,1.4-2.4,2.08-4.9,4.09c-0.49,0.39-0.61,0.86,0.01,0.51
						c0.53-0.29,1-0.6,1.49-0.95c0.61-0.43,0.79-0.58,1.45-1.03c0.86-0.6,2.34-1.91,2.9-1.89c0.53,0.02,0.81,0.7,0.8,1.19
						c-0.01,0.37-0.17,0.72-0.36,1.04c-1.19,2.06-3.21,3.48-5.19,4.81c-1.58,1.06-3.17,2.11-4.76,3.16
						c-2.92,1.93-6.12,3.41-8.84,4.32C317.79,135.4,309.5,146.39,302.29,152.97z"/>
					<path class="st11" d="M326.73,119.11c2.15,2.33-0.32,6.01-1.89,7.95c-0.31,0.39-1.58,1.16-1.05,0.09
						c0.19-0.37,0.38-0.74,0.56-1.12c0.35-0.72,0.67-1.45,0.92-2.21c0.43-1.31,0.65-2.7,0.43-4.06c-0.06-0.37-0.09-0.85,0.25-1
						c0.22-0.09,0.47,0.03,0.64,0.2C326.64,119.01,326.69,119.06,326.73,119.11z"/>
					<g>
						<path class="st11" d="M342.38,112.59c-2.99,2.32-5.87,4.77-8.38,7.62C337.12,118.04,340.01,115.57,342.38,112.59
							L342.38,112.59z"/>
					</g>
					<path class="st2" d="M264.94,105.04c8.13,0.88,11.37,2.94,20.69,15.69c4.42,6.04,10.07,14.43,10.07,14.43l11.21-7.15
						c0,0,0.07,3.35,3.04,7.72c2.54,3.74,5.4,4.73,5.4,4.73s-3.02,3.93-14.1,13.89c-6.5,5.84-12.26,2.67-15.62,0.07
						c-6.14-4.76-20.17-21.11-20.17-21.11C263.4,129.54,259.88,111.28,264.94,105.04z"/>
					<path class="st5" d="M295.69,135.17c-3.74,2.2-6.07,6.38-6.71,9.42c-1.17-6.97,5.64-11,5.64-11L295.69,135.17z"/>
				</g>
				<g id="Chest_00000067229194257919588070000003563029827811299975_">
					<path id="Chest_00000137828772667748072180000005495519080611498167_" class="st12" d="M235.13,104.37
						c-3.63,0.75-13.64,5-17.82,7.32c0,0-5.84,10.3-3.37,33.71c0.4,3.75,1.4,13.85,1.87,21.64c0.63,10.52,0.18,13.48-0.11,19.07
						c0,0,9.85,8.6,35.51,6.65c20.15-1.53,26.2-9.82,26.2-9.82s-0.11-27.18-0.65-42.03c-0.7-19.51-6.62-30.77-10.97-34.18
						l-13.23-2.19L235.13,104.37z"/>
					<g>
						<path class="st5" d="M231.6,104.49l0.07,1.53c0,0,6,11.34,6.42,34.23c0.42,22.89-0.03,59.53-0.03,59.53
							s-15.63-0.32-26.12-8.73c0,0,1.94-19.86,1.71-28.96c-0.23-9.1,0.76-13.21-1.84-26.14c-2.63-13.14,5.14-26.54,5.14-26.54
							C220.85,108.01,223.54,107.14,231.6,104.49z"/>
						<path class="st5" d="M252.61,103.33l12.33,1.71c0,0,8.59,6.53,11.35,24.48c2.76,17.95,4.15,61.47,4.15,61.47
							c-1.76,1.1-6.4,2.94-8.61,3.24c0,0-0.83-21.43-1.98-41.16c-1.39-23.81-3.24-38.32-17.05-48.02L252.61,103.33z"/>
						<path class="st8" d="M235.33,132.85l0.27-0.51c-2.34-0.93-4.71-1.8-7.08-2.67c-0.32-6.99-0.73-14.24-1.36-21.17
							c-0.08,7.08,0.09,14.46,0.34,21.56l0.01,0.34l0.32,0.13c2.09,0.81,4.19,1.61,6.29,2.38c-0.43,0.86-2.54,5.09-2.54,5.09
							c-0.99,1.94-1.9,3.93-2.86,5.89l0.19,0.17c2.44,2.21,4.92,4.38,7.43,6.52c-2.22-2.31-4.47-4.59-6.75-6.84
							C231.36,140.56,233.67,136.06,235.33,132.85z M275.68,136.54c-1.63-2.65-3.3-5.27-4.99-7.87l2.47-3.74
							c0,0,0.15-0.22,0.15-0.22c-2.35-6.98-6.72-13.13-11.7-18.49c3.24,4.32,6.21,8.81,8.58,13.64c0.72,1.54,1.38,3.1,1.91,4.7
							l-2.49,3.8l-0.19,0.3l0.19,0.29c1.75,2.63,3.52,5.25,5.33,7.84c-1.14,3.01-2.26,6.03-3.3,9.08c1.42-2.97,2.76-5.97,4.07-8.99
							l0.08-0.17L275.68,136.54z"/>
					</g>
				</g>
				<g>
					<g id="Head_00000100380709018811363540000006463651845303053465_">
						<g>
							<g id="XMLID_00000072278203506323208480000011794069310772338861_">
								<g id="XMLID_00000173156590615423581290000006954348610550120078_">
									<path class="st4" d="M226.15,64.84c0,0-3.66,0.39-5.22,3.27c-1.57,2.88-2.33,8.03,0.17,13.6
										c2.75,6.13,7.76,11.91,8.88,13.61c1.12,1.7,3.1,2.01,3.1,2.01l-0.96-7.68l-0.82-5.34c0,0,3.94-4.35,3.93-8.25
										c-0.01-5.01-2.22-7.63-2.22-7.63L226.15,64.84z"/>
									<path class="st4" d="M253.36,71.25c-2.17-0.79-4.86-0.89-7.14-0.81c-2.17,0.08-4.33,0.14-6.5,0.21
										c-2.32,0.08-4.64,0.15-6.96,0.23c0,0-7.49-0.5-8.01-5.72c-0.25-2.57,0.84-4.41,1.07-4.81c0.83-1.4,2.2-3.03,3.47-4.04
										c3.02-2.4,5.85-3.75,9.75-4.41c2.81-0.48,5.69-0.36,8.53-0.09c1.92,0.18,3.89,0.42,5.75-0.08c1.34-0.36,2.71-1.3,2.81-2.68
										c1.64,1.63,2.16,4.27,1.26,6.4c1.84-0.27,3.73,0.99,4.39,2.73c0.74,1.95-0.03,3.65-1.07,5.27c0.13-0.2,1.01,1.2,1.09,1.32
										c0.49,0.82,0.72,1.79,0.64,2.76c-0.12,1.37-1.24,2.45-2.41,3.17C257.95,71.97,255.61,72.06,253.36,71.25z"/>
									<path class="st10" d="M225.3,92.6c4.18,1.55,5.69-1.79,5.69-1.79l0.67,15.22c7.14,10.98,27.57,7.65,21.13-0.97l-0.36-4.47
										c0,0,1.35-0.09,3.42-0.68c5.46-1.54,6.56-4.99,7.04-8.95c0.75-6.15-0.27-14.5-3.35-23.92c-0.59-1.82-1.6-3.77-3.39-4.45
										c-4.45-1.68-8.07,1.73-13.75,4.62c-2.35,1.19-8.24,2.2-9.88,1.62c2.29,2.07,2.98,9.26,0.23,12.48
										c-0.43,1.06-0.93,1.71-1.33,2.13c-1.18,1.25-2.53-1.54-3.72-2.57c-1.21-1.02-5.38-1.63-6.77,2.28
										C219.53,87.11,221.43,91.16,225.3,92.6z"/>
									<path class="st11" d="M252.43,100.58c-4.64,0.43-8.63,0.27-11.98-1.11c-2.76-1.14-6.79-4.66-7.94-8.25
										c0.65,5.87,3.1,8.42,7.46,10.19c4.36,1.77,9.61,1.69,12.65,1.45L252.43,100.58z"/>
								</g>
								<g id="XMLID_00000178889814336680255300000011127172933215130544_">
									<path id="XMLID_00000117640364884842186470000018054386658318709938_" class="st4" d="M243.44,72.27l-3.32,2.68
										c-0.73-0.96-0.58-2.34,0.34-3.08C241.37,71.13,242.71,71.31,243.44,72.27z"/>
									<path id="XMLID_00000041263044539891485380000006194998639123765652_" class="st4" d="M258.59,71.99l-4.03-1.52
										c0.38-1.14,1.59-1.72,2.7-1.3C258.38,69.59,258.97,70.85,258.59,71.99z"/>
									<path class="st4" d="M242.08,77.96c0.13,0.95,1.01,1.62,1.96,1.49c0.95-0.13,1.62-1,1.49-1.96
										c-0.13-0.95-1.01-1.62-1.96-1.49C242.62,76.13,241.95,77.01,242.08,77.96z"/>
									<path class="st4" d="M254.99,76.14c0.13,0.95,1.01,1.62,1.96,1.49c0.95-0.13,1.62-1.01,1.49-1.96
										c-0.13-0.95-1.01-1.62-1.96-1.49C255.38,74.33,254.84,75.05,254.99,76.14z"/>
									<path id="XMLID_00000008871119160295074220000011295027548142171547_" class="st11" d="M249.16,74.49l2.52,10.89l5.61-2.73
										C254.83,78.97,252.12,76.25,249.16,74.49z"/>
									<path id="XMLID_00000030469138430483910260000001224786954044737961_" class="st14" d="M245.82,86.93l7.25,1.31
										c-0.43,2.04-2.4,3.4-4.41,3.04C246.66,90.92,245.39,88.97,245.82,86.93z"/>
									<path class="st11" d="M250.38,91.16c-0.75-1.9-2.55-3.22-4.63-3.32c0.05,1.68,1.21,3.13,2.91,3.43
										C249.25,91.38,249.83,91.33,250.38,91.16z"/>
								</g>
							</g>
						</g>
					</g>
				</g>
			</g>
			<g id="Arm_00000181065570816867122480000006942508388752505520_">
				<g>
					<path class="st10" d="M216.64,110.26c-8.4,2.43-10.88,5.04-13.87,10.95c-4.21,8.33-11.66,25.21-14.49,34.78
						c-1.47,4.99-1.32,9.84,4.59,14.82c4.49,3.79,14.93,11.52,23.6,17.15c1.71,1.11,7.12,5.08,8.74,5.91
						c9.87,5.04,21.2,3.58,21.2,3.58l-10.83-6.39l-1.96-3.62l-25.24-28.5c0,0,8.58-18.8,11.02-24.54
						C221.92,128.43,223.15,114.04,216.64,110.26z"/>
				</g>
				<g>
					<g id="XMLID_00000166666254254589922180000007253767517689957308_">
						<g id="XMLID_00000011712270438728157160000017410956774568435640_">
							<path id="XMLID_00000154407617951765353440000017459294378994924683_" class="st6" d="M225.66,182.52l-0.01,1.01
								c-0.01,1.02,0.52,1.97,1.4,2.49l27.01,15.95c0.44,0.26,0.93,0.39,1.42,0.4c0.49,0.01,0.99-0.11,1.43-0.36l50.2-28.24
								c0.89-0.5,1.44-1.44,1.46-2.46l0.01-0.69l-53.07,29.85L225.66,182.52z"/>
						</g>
						<g id="XMLID_00000116957263022647076220000009654055597144246403_" class="st15">
							<path id="XMLID_00000160174318762237178230000012134403281828138140_" class="st9" d="M225.66,182.52l-0.01,1.01
								c-0.01,1.02,0.52,1.97,1.4,2.49l27.01,15.95c0.44,0.26,0.93,0.39,1.42,0.4c0.49,0.01,0.99-0.11,1.43-0.36l50.2-28.24
								c0.89-0.5,1.44-1.44,1.46-2.46l0.01-0.69l-53.07,29.85L225.66,182.52z"/>
						</g>
						<g id="XMLID_00000054985463133265070810000002957643287761172615_" class="st3">
							<path id="XMLID_00000009558099457486531550000016350125967727509171_" d="M225.66,182.52l-0.01,1.01
								c-0.01,1.02,0.52,1.97,1.4,2.49l27.01,15.95c0.44,0.26,0.93,0.39,1.42,0.4c0.49,0.01,0.99-0.11,1.43-0.36l50.2-28.24
								c0.89-0.5,1.44-1.44,1.46-2.46l0.01-0.69l-53.07,29.85L225.66,182.52z"/>
						</g>
						<g id="XMLID_00000119112924719712017060000009246556103685932722_">
							<path id="XMLID_00000046314441355489264450000009737940950122882215_" class="st6" d="M308.58,170.61l-29.38-17.41
								c-0.52-0.31-1.17-0.32-1.7-0.02l-51.64,29.05c-0.25,0.14-0.26,0.51-0.01,0.65l29.66,17.57L308.58,170.61z"/>
						</g>
						<g id="XMLID_00000119809258583024312700000002639743109661602452_" class="st16">
							<path id="XMLID_00000036218352518640669650000014188904417570173588_" class="st9" d="M308.58,170.61l-29.38-17.41
								c-0.52-0.31-1.17-0.32-1.7-0.02l-51.64,29.05c-0.25,0.14-0.26,0.51-0.01,0.65l29.66,17.57L308.58,170.61z"/>
						</g>
						<g id="XMLID_00000024718559545458589690000010507284528212051883_">
							<polygon id="XMLID_00000021841180303795956770000013050444849271140277_" class="st6" points="255.72,197.69 239.88,188.31 
								286.36,162.17 302.29,171.5 							"/>
						</g>
						<g id="XMLID_00000072974886103990730390000002323647823939419290_" class="st17">
							<polygon id="XMLID_00000007428869590540278550000017551650443265340346_" class="st9" points="255.72,197.69 239.88,188.31 
								286.36,162.17 302.29,171.5 							"/>
						</g>
						<g id="XMLID_00000171712374670219513000000013038338366133831597_">
							<polygon id="XMLID_00000152965810710667015590000014111871349774667653_" class="st6" points="247.71,172.27 248,172.45 
								255.77,177.05 269.76,169.18 270.05,169.01 261.99,164.24 							"/>
						</g>
						<g id="XMLID_00000113349915252928176990000009923034239653398448_">
							<polygon id="XMLID_00000096037969434589002900000002102982237506736286_" class="st6" points="248,172.45 255.77,177.05 
								269.76,169.18 261.99,164.57 							"/>
						</g>
						<g id="XMLID_00000078037519545065532410000010722536281121576094_" class="st17">
							<polygon id="XMLID_00000089538073750011948640000011647247286884537994_" class="st9" points="248,172.45 255.77,177.05 
								269.76,169.18 261.99,164.57 							"/>
						</g>
						<g id="XMLID_00000013898394492804452470000014194979159559282081_">
							<path id="XMLID_00000055695180487649131120000003150812138454515347_" class="st18" d="M255.51,200.47l-0.02,1.9
								c0.49,0.01,0.99-0.11,1.43-0.36l50.2-28.24c0.89-0.5,1.44-1.44,1.46-2.46l0.01-0.69L255.51,200.47z"/>
						</g>
						<g id="XMLID_00000115481929203833061030000008257942010582046138_" class="st19">
							<path id="XMLID_00000044137665929777103080000018234446220866381983_" class="st9" d="M255.51,200.47l-0.02,1.9
								c0.49,0.01,0.99-0.11,1.43-0.36l50.2-28.24c0.89-0.5,1.44-1.44,1.46-2.46l0.01-0.69L255.51,200.47z"/>
						</g>
						<g id="XMLID_00000076601591427631488930000018024259040706953149_" class="st7">
							<path id="XMLID_00000068674998740535001300000009475152756651635350_" d="M255.51,200.47l-0.02,1.9
								c0.49,0.01,0.99-0.11,1.43-0.36l50.2-28.24c0.89-0.5,1.44-1.44,1.46-2.46l0.01-0.69L255.51,200.47z"/>
						</g>
						<g id="XMLID_00000060728749089099531080000004629017252420181376_">
							<path id="XMLID_00000101099652155212518370000014835843845801932691_" class="st6" d="M256.31,200.9
								c0.94,0.37,2.01,0.32,2.91-0.19l49.98-28.11c0.88-0.49,1.49-1.35,1.67-2.34l5.8-32.36c0.03-0.18,0.05-0.37,0.05-0.55
								c0.01-0.9-0.34-1.77-0.97-2.41l-51.94,29.22c-0.65,0.37-1.1,1-1.23,1.73L256.31,200.9z"/>
						</g>
						<g id="XMLID_00000008118655887051561870000002465065863004633473_" class="st20">
							<path id="XMLID_00000123418372806899112560000007572318528543928972_" class="st9" d="M256.31,200.9
								c0.94,0.37,2.01,0.32,2.91-0.19l49.98-28.11c0.88-0.49,1.49-1.35,1.67-2.34l5.8-32.36c0.03-0.18,0.05-0.37,0.05-0.55
								c0.01-0.9-0.34-1.77-0.97-2.41l-51.94,29.22c-0.65,0.37-1.1,1-1.23,1.73L256.31,200.9z"/>
						</g>
						<g id="XMLID_00000177456470847689915450000004880655486834287790_">
							<path id="XMLID_00000081637546306399161700000000233997708709469348_" class="st6" d="M255.51,200.47l0.34,0.2
								c0.15,0.09,0.3,0.16,0.46,0.23l6.27-35.02c0.13-0.73,0.58-1.37,1.23-1.73l51.94-29.22c-0.2-0.2-0.43-0.38-0.68-0.53
								l-52.05,29.27c-0.65,0.37-1.1,1-1.23,1.73L255.51,200.47z"/>
						</g>
						<g id="XMLID_00000093136773124734100020000018008611532625134999_" class="st17">
							<path id="XMLID_00000133492975192913259930000005385656703681862588_" class="st9" d="M255.51,200.47l0.34,0.2
								c0.15,0.09,0.3,0.16,0.46,0.23l6.27-35.02c0.13-0.73,0.58-1.37,1.23-1.73l51.94-29.22c-0.2-0.2-0.43-0.38-0.68-0.53
								l-52.05,29.27c-0.65,0.37-1.1,1-1.23,1.73L255.51,200.47z"/>
						</g>
						<path class="st6" d="M263.05,164.81l-0.79-0.47c-0.24,0.31-0.4,0.67-0.47,1.06l-6.28,35.07l0.34,0.2
							c0.15,0.09,0.3,0.16,0.46,0.23l6.27-35.02C262.65,165.48,262.82,165.12,263.05,164.81z"/>
						<path class="st21" d="M263.05,164.81l-0.79-0.47c-0.24,0.31-0.4,0.67-0.47,1.06l-6.28,35.07l0.34,0.2
							c0.15,0.09,0.3,0.16,0.46,0.23l6.27-35.02C262.65,165.48,262.82,165.12,263.05,164.81z"/>
						<path class="st22" d="M263.05,164.81l-0.79-0.47c-0.24,0.31-0.4,0.67-0.47,1.06l-6.28,35.07l0.34,0.2
							c0.15,0.09,0.3,0.16,0.46,0.23l6.27-35.02C262.65,165.48,262.82,165.12,263.05,164.81z"/>
						<g id="XMLID_00000182504261287831620910000017274781599198701200_">
							<path id="XMLID_00000088121559542421951320000007720054445226833332_" class="st6" d="M284.61,171.28
								c0.39-2.17,2.66-5.02,5.08-6.38c2.42-1.36,4.06-0.7,3.67,1.46c-0.39,2.17-2.66,5.02-5.08,6.38
								C285.86,174.1,284.22,173.45,284.61,171.28z"/>
						</g>
					</g>
				</g>
				<path class="st10" d="M224.42,177.05c2.88,3.59,6.69,2.22,10.42,2.64c3.74,0.41,7.23,1.43,10.22,1.67
					c2.94,0.24,3.82,1.47,2.28,3.1c-2.19,2.32-8.1,1.1-9.72,1.85c-1.61,0.75-2.6,3.37-0.7,5.54c1.78,2.03-10.04-1.8-11.64-4.2
					C223.69,185.24,222.29,177.38,224.42,177.05z"/>
				<path class="st2" d="M194.31,137.67c1.76-4.56,7.36-15.71,10.09-20.12c2.73-4.42,6.87-6.46,12.56-8.13
					c8.01,3.08,6.46,16.29,5.51,20.46c-0.95,4.17-12.91,29.05-12.91,29.05l12.46,14.52c0,0-3.63,0.6-7.2,4.23
					c-3.56,3.63-4.08,7.05-4.08,7.05s-14.24-10.26-18.62-13.92c-4.38-3.66-6.63-6.77-4.62-13.82
					C189.52,149.94,192.55,142.23,194.31,137.67z"/>
				<path class="st5" d="M209.55,158.93c-2.64-2.45-7.19-1.74-9.42-0.85c6.51-0.27,11.11,2.83,11.11,2.83L209.55,158.93z"/>
			</g>
		</g>
	</g>
</g>
<g id="Arrow_2">
	<path id="Arrow" class="st1" d="M455.91,370.96l-15.39-10.15c-0.89-0.59-2.09-0.34-2.68,0.55c-0.59,0.89-0.34,2.09,0.55,2.68
		l10.02,6.61c-29.62,0.17-47.57,6.92-80.06,46.23c-30.2,36.53-69.77,53.54-124.54,53.54c-54.77,0-94.35-17.01-124.54-53.54
		c-32.91-39.81-50.89-46.24-81.2-46.24c-1.07,0-1.94,0.87-1.94,1.94c0,1.07,0.87,1.94,1.94,1.94c29.02,0,46.3,6.23,78.21,44.83
		c30.99,37.49,71.51,54.95,127.52,54.95c56.01,0,96.54-17.46,127.52-54.95c31.48-38.08,48.73-44.65,77.05-44.82l-10,6.59
		c-0.89,0.59-1.14,1.79-0.55,2.68c0.37,0.56,0.99,0.87,1.62,0.87c0.37,0,0.74-0.1,1.06-0.32l15.39-10.15
		c0.54-0.36,0.87-0.97,0.87-1.62C456.78,371.93,456.45,371.32,455.91,370.96z"/>
</g>
<g id="Windows">
	<g id="Flowchart_Window">
		<g class="st7">
			<path d="M38.3,79.4l88.58-51.1c0.86-0.49,1.55-0.09,1.55,0.9l0,151.18c0,0.99-0.69,2.19-1.55,2.69l-88.58,51.1
				c-0.86,0.49-1.55,0.09-1.55-0.9l0-151.18C36.75,81.1,37.44,79.9,38.3,79.4z"/>
		</g>
		<g id="Window_2_">
			<g id="Window_00000070817575466413125300000001006803398159798438_">
				<path class="st0" d="M45.39,232.61c0.21,0,0.43-0.07,0.66-0.2l82.85-47.88c1.33-0.77,2.46-2.71,2.46-4.25V36.61
					c0-0.92-0.39-1.46-1.03-1.46c-0.29,0-0.63,0.11-0.97,0.31L46.5,83.29c-1.33,0.77-2.46,2.72-2.46,4.26v143.02
					c0,0.57,0.16,1.11,0.43,1.5C44.64,232.31,44.94,232.61,45.39,232.61z"/>
				<path id="XMLID_313_" class="st13" d="M41.29,230.95c0.29,0.15,2.38,1.34,3.29,1.87c-0.62-0.44-0.94-1.19-0.99-2.25V96.32
					l-3.44-2.01v134.31C40.15,229.66,40.6,230.58,41.29,230.95z"/>
			</g>
			<path id="Outline_1_" class="st1" d="M130.33,35.6c0.5,0,0.58,0.63,0.58,1.01v143.67c0,1.4-1.02,3.16-2.23,3.86l-82.86,47.88
				c-0.16,0.09-0.3,0.14-0.43,0.14c-0.48,0-0.89-0.75-0.89-1.6V87.54c0-1.4,1.02-3.17,2.23-3.86l82.86-47.83
				C129.93,35.64,130.18,35.6,130.33,35.6 M130.33,34.69c-0.36,0-0.77,0.12-1.2,0.37L46.27,82.9c-1.48,0.86-2.68,2.94-2.68,4.65
				v143.02c0,1.35,0.75,2.5,1.8,2.5c0.28,0,0.58-0.08,0.89-0.26l82.85-47.88c1.48-0.85,2.69-2.93,2.69-4.64V36.61
				C131.81,35.4,131.21,34.69,130.33,34.69L130.33,34.69z"/>
			<g id="Up_Bar_2_">
				<g>
					<path class="st6" d="M131.81,36.56v8.95L43.59,96.42l-3.43-2v-8.83c0-0.86,0.32-1.83,0.82-2.68c0.48-0.83,1.15-1.54,1.87-1.96
						l82.86-47.84c0.77-0.44,1.45-0.45,1.96-0.15c0.49,0.3,2.84,1.64,3.32,1.88c0.07,0.04,0.15,0.08,0.2,0.14
						c0.07,0.06,0.15,0.13,0.21,0.21c0.07,0.08,0.12,0.17,0.17,0.27c0.06,0.1,0.1,0.2,0.13,0.33c0.04,0.11,0.07,0.24,0.08,0.37
						c0,0,0,0.01,0,0.02C131.79,36.3,131.81,36.42,131.81,36.56z"/>
					<path class="st23" d="M131.81,36.56v8.95L43.59,96.42l-3.43-2v-8.83c0-0.86,0.32-1.83,0.82-2.68c0.48-0.83,1.15-1.54,1.87-1.96
						l82.86-47.84c0.77-0.44,1.45-0.45,1.96-0.15c0.49,0.3,2.84,1.64,3.32,1.88c0.07,0.04,0.15,0.08,0.2,0.14
						c0.07,0.06,0.15,0.13,0.21,0.21c0.07,0.08,0.12,0.17,0.17,0.27c0.06,0.1,0.1,0.2,0.13,0.33c0.04,0.11,0.07,0.24,0.08,0.37
						c0,0,0,0.01,0,0.02C131.79,36.3,131.81,36.42,131.81,36.56z"/>
					<path class="st6" d="M131.81,36.56v8.95L43.59,96.42v-8.88c0-0.54,0.11-1.1,0.33-1.66c0.03-0.09,0.07-0.19,0.11-0.28
						c0.11-0.24,0.23-0.49,0.37-0.73c0.49-0.84,1.15-1.57,1.88-1.98l82.85-47.83c0.82-0.48,1.56-0.47,2.06-0.08
						c0.07,0.06,0.15,0.13,0.21,0.21c0.07,0.08,0.12,0.17,0.17,0.27c0.06,0.1,0.1,0.2,0.13,0.33c0.04,0.11,0.07,0.24,0.08,0.37
						c0,0,0,0.01,0,0.02C131.79,36.3,131.81,36.42,131.81,36.56z"/>
					<g id="XMLID_737_">
						<path id="XMLID_740_" class="st0" d="M113.79,47.32c-0.93,0.53-1.68,2.12-1.68,3.55c0,1.42,0.75,2.15,1.68,1.61
							c0.92-0.53,1.67-2.12,1.67-3.55C115.47,47.51,114.72,46.79,113.79,47.32z"/>
						<path id="XMLID_739_" class="st0" d="M119.82,43.83c-0.93,0.53-1.68,2.12-1.68,3.55c0,1.42,0.75,2.15,1.68,1.61
							c0.92-0.53,1.67-2.12,1.67-3.55C121.5,44.02,120.75,43.3,119.82,43.83z"/>
						<path id="XMLID_738_" class="st0" d="M125.86,40.35c-0.93,0.53-1.68,2.12-1.68,3.55c0,1.42,0.75,2.15,1.68,1.61
							c0.92-0.53,1.67-2.12,1.67-3.55C127.53,40.53,126.78,39.81,125.86,40.35z"/>
					</g>
					<g id="XMLID_312_">
						<path class="st6" d="M129.13,35.06L46.27,82.89c-0.73,0.43-1.41,1.16-1.89,1.99l-3.41-1.97c0.48-0.83,1.14-1.54,1.87-1.96
							l82.86-47.83c0.77-0.45,1.45-0.46,1.95-0.16c0.48,0.3,2.71,1.56,3.27,1.87C130.45,34.6,129.82,34.66,129.13,35.06z"/>
					</g>
					<g id="XMLID_727_" class="st15">
						<path class="st9" d="M129.13,35.06L46.27,82.89c-0.73,0.43-1.41,1.16-1.89,1.99l-3.41-1.97c0.48-0.83,1.14-1.54,1.87-1.96
							l82.86-47.83c0.77-0.45,1.45-0.46,1.95-0.16c0.48,0.3,2.71,1.56,3.27,1.87C130.45,34.6,129.82,34.66,129.13,35.06z"/>
					</g>
				</g>
			</g>
		</g>
		<g id="Flowchart">
			<g>
				<g>
					<g>
						<path class="st2" d="M62.96,118.71c-0.14,0-0.25-0.11-0.25-0.25v-10.64c0-0.14,0.11-0.25,0.25-0.25
							c0.14,0,0.25,0.11,0.25,0.25v10.64C63.21,118.6,63.1,118.71,62.96,118.71z"/>
					</g>
					<g>
						<polygon class="st2" points="62.12,117.47 62.96,118.32 63.81,117.47 63.81,118.19 62.96,119.04 62.12,118.19 						"/>
					</g>
				</g>
				<g>
					<g>
						<path class="st2" d="M72,119.88c-0.09,0-0.17-0.04-0.22-0.13c-0.07-0.12-0.03-0.27,0.09-0.34l7.01-4.04
							c0.12-0.07,0.27-0.03,0.34,0.09c0.07,0.12,0.03,0.27-0.09,0.34l-7.01,4.04C72.09,119.87,72.04,119.88,72,119.88z"/>
					</g>
					<g>
						<polygon class="st2" points="78.57,116.81 78.88,115.66 77.72,115.35 78.34,114.98 79.5,115.3 79.19,116.45 						"/>
					</g>
				</g>
				<g>
					<g>
						<path class="st2" d="M70.7,175.77c-0.09,0-0.17-0.04-0.22-0.13c-0.07-0.12-0.03-0.27,0.09-0.34l7.01-4.05
							c0.12-0.07,0.27-0.03,0.34,0.09c0.07,0.12,0.03,0.27-0.09,0.34l-7.01,4.04C70.79,175.76,70.75,175.77,70.7,175.77z"/>
					</g>
					<g>
						<polygon class="st2" points="77.27,172.71 77.58,171.55 76.42,171.24 77.05,170.88 78.2,171.19 77.89,172.35 						"/>
					</g>
				</g>
				<g>
					<g>
						<path class="st2" d="M96.13,161.09c-0.09,0-0.17-0.04-0.22-0.13c-0.07-0.12-0.03-0.27,0.09-0.34l7.01-4.05
							c0.12-0.07,0.27-0.03,0.34,0.09c0.07,0.12,0.03,0.27-0.09,0.34l-7.01,4.04C96.22,161.08,96.18,161.09,96.13,161.09z"/>
					</g>
					<g>
						<polygon class="st2" points="102.7,158.03 103.01,156.87 101.85,156.56 102.48,156.2 103.63,156.51 103.32,157.67 						"/>
					</g>
				</g>
				<g>
					<g>
						<path class="st2" d="M97.76,105c-0.09,0-0.17-0.04-0.22-0.13c-0.07-0.12-0.03-0.27,0.09-0.34l7.01-4.05
							c0.12-0.07,0.27-0.03,0.34,0.09c0.07,0.12,0.03,0.27-0.09,0.34l-7.01,4.05C97.85,104.99,97.81,105,97.76,105z"/>
					</g>
					<g>
						<polygon class="st2" points="104.33,101.94 104.64,100.78 103.48,100.47 104.11,100.11 105.27,100.42 104.96,101.58 						"/>
					</g>
				</g>
				<g>
					<g>
						<path class="st2" d="M97.31,133.11c-0.09,0-0.17-0.04-0.22-0.13c-0.07-0.12-0.03-0.27,0.09-0.34l7.01-4.04
							c0.12-0.07,0.27-0.03,0.34,0.09c0.07,0.12,0.03,0.27-0.09,0.34l-7.01,4.05C97.39,133.1,97.35,133.11,97.31,133.11z"/>
					</g>
					<g>
						<polygon class="st2" points="97.74,131.63 97.43,132.79 98.59,133.1 97.97,133.46 96.81,133.15 97.12,131.99 						"/>
					</g>
				</g>
				<g>
					<g>
						<path class="st2" d="M96.86,185.38c-0.09,0-0.17-0.04-0.22-0.13c-0.07-0.12-0.03-0.27,0.09-0.34l6.54-3.78
							c0.12-0.07,0.27-0.03,0.34,0.09c0.07,0.12,0.03,0.27-0.09,0.34l-6.54,3.78C96.95,185.37,96.9,185.38,96.86,185.38z"/>
					</g>
					<g>
						<polygon class="st2" points="97.3,183.9 96.99,185.06 98.15,185.37 97.52,185.73 96.36,185.42 96.68,184.26 						"/>
					</g>
				</g>
				<g>
					<g>
						<path class="st2" d="M72.12,147.65c-0.09,0-0.17-0.04-0.22-0.13c-0.07-0.12-0.03-0.27,0.09-0.34l7.01-4.05
							c0.12-0.07,0.27-0.03,0.34,0.09c0.07,0.12,0.03,0.27-0.09,0.34l-7.01,4.05C72.21,147.64,72.16,147.65,72.12,147.65z"/>
					</g>
					<g>
						<polygon class="st2" points="72.56,146.17 72.25,147.33 73.41,147.64 72.79,148 71.63,147.69 71.94,146.53 						"/>
					</g>
				</g>
				<g>
					<g>
						<path class="st2" d="M111.98,114.5c-0.14,0-0.25-0.11-0.25-0.25v-8.11c0-0.14,0.11-0.25,0.25-0.25c0.14,0,0.25,0.11,0.25,0.25
							v8.11C112.23,114.39,112.11,114.5,111.98,114.5z"/>
					</g>
					<g>
						<polygon class="st2" points="111.13,113.25 111.98,114.1 112.82,113.25 112.82,113.97 111.98,114.82 111.13,113.97 						"/>
					</g>
				</g>
				<g>
					<g>
						<path class="st2" d="M62.96,166.31c-0.04,0-0.09-0.01-0.12-0.03c-0.08-0.04-0.12-0.13-0.12-0.22v-5.97
							c0-0.14,0.11-0.25,0.25-0.25c0.14,0,0.25,0.11,0.25,0.25v5.53l48.51-28.01v-3.71c0-0.14,0.11-0.25,0.25-0.25
							c0.14,0,0.25,0.11,0.25,0.25v3.85c0,0.09-0.05,0.17-0.12,0.22l-49.01,28.3C63.05,166.3,63.01,166.31,62.96,166.31z"/>
					</g>
					<g>
						<polygon class="st2" points="63.81,161.09 62.96,160.24 62.12,161.09 62.12,160.37 62.96,159.53 63.81,160.37 						"/>
					</g>
				</g>
				<g>
					<g>
						<path class="st2" d="M62.96,193.99c-0.04,0-0.09-0.01-0.12-0.03c-0.08-0.04-0.12-0.13-0.12-0.22v-3.85
							c0-0.14,0.11-0.25,0.25-0.25c0.14,0,0.25,0.11,0.25,0.25v3.42l48.51-28.01v-5.82c0-0.14,0.11-0.25,0.25-0.25
							c0.14,0,0.25,0.11,0.25,0.25v5.97c0,0.09-0.05,0.17-0.12,0.22l-49.01,28.3C63.05,193.98,63.01,193.99,62.96,193.99z"/>
					</g>
					<g>
						<polygon class="st2" points="112.82,160.47 111.98,159.63 111.13,160.47 111.13,159.75 111.98,158.91 112.82,159.75 						"/>
					</g>
				</g>
				<g>
					<g>
						<path class="st2" d="M51.75,186.72c-0.04,0-0.09-0.01-0.12-0.03c-0.08-0.04-0.13-0.13-0.13-0.22v-27.3
							c0-0.09,0.05-0.17,0.13-0.22l2.65-1.53c0.12-0.07,0.27-0.03,0.34,0.09c0.07,0.12,0.03,0.27-0.09,0.34L52,159.31v26.72
							l2.78-1.61c0.12-0.07,0.27-0.03,0.34,0.09c0.07,0.12,0.03,0.27-0.09,0.34l-3.15,1.82C51.84,186.7,51.8,186.72,51.75,186.72z"
							/>
					</g>
					<g>
						<polygon class="st2" points="54.47,185.88 54.78,184.72 53.62,184.41 54.24,184.05 55.4,184.36 55.09,185.52 						"/>
					</g>
				</g>
				<g>
					<g>
						<path class="st2" d="M121.48,171.17c-0.09,0-0.17-0.04-0.22-0.13c-0.07-0.12-0.03-0.27,0.09-0.34l2.64-1.53v-24.13l-2.28,1.31
							c-0.12,0.07-0.27,0.03-0.34-0.09c-0.07-0.12-0.03-0.27,0.09-0.34l2.65-1.53c0.08-0.05,0.17-0.04,0.25,0
							c0.08,0.04,0.12,0.13,0.12,0.22v24.71c0,0.09-0.05,0.17-0.12,0.22l-2.77,1.6C121.57,171.16,121.52,171.17,121.48,171.17z"/>
					</g>
					<g>
						<polygon class="st2" points="121.92,169.69 121.61,170.85 122.77,171.16 122.14,171.52 120.98,171.21 121.29,170.05 						"/>
					</g>
				</g>
			</g>
			<path class="st6" d="M70.53,96.86c0,2.83-3.39,7.08-7.56,9.5c-4.18,2.41-7.56,2.07-7.56-0.76c0-2.83,3.39-7.08,7.56-9.5
				S70.53,94.03,70.53,96.86z"/>
			<path class="st6" d="M95.35,186c0,2.83-3.39,7.08-7.56,9.5c-4.18,2.41-7.56,2.07-7.56-0.76c0-2.83,3.39-7.08,7.56-9.5
				C91.97,182.83,95.35,183.17,95.35,186z"/>
			<g>
				<path class="st6" d="M69.85,125.41l-13.77,7.95c-0.41,0.24-0.75-0.01-0.75-0.56v-7.09c0-0.55,0.33-1.19,0.75-1.42l13.77-7.95
					c0.41-0.24,0.75,0.01,0.75,0.56v7.09C70.6,124.53,70.26,125.17,69.85,125.41z"/>
				<path class="st24" d="M69.85,125.41l-13.77,7.95c-0.41,0.24-0.75-0.01-0.75-0.56v-7.09c0-0.55,0.33-1.19,0.75-1.42l13.77-7.95
					c0.41-0.24,0.75,0.01,0.75,0.56v7.09C70.6,124.53,70.26,125.17,69.85,125.41z"/>
			</g>
			<g>
				<path class="st6" d="M94.68,111.07l-13.77,7.95c-0.41,0.24-0.75-0.01-0.75-0.56v-7.09c0-0.55,0.33-1.19,0.75-1.42l13.77-7.95
					c0.41-0.24,0.75,0.01,0.75,0.56v7.09C95.42,110.2,95.09,110.84,94.68,111.07z"/>
				<path class="st24" d="M94.68,111.07l-13.77,7.95c-0.41,0.24-0.75-0.01-0.75-0.56v-7.09c0-0.55,0.33-1.19,0.75-1.42l13.77-7.95
					c0.41-0.24,0.75,0.01,0.75,0.56v7.09C95.42,110.2,95.09,110.84,94.68,111.07z"/>
			</g>
			<g>
				<path class="st6" d="M94.68,138.92l-13.77,7.95c-0.41,0.24-0.75-0.01-0.75-0.56v-7.09c0-0.55,0.33-1.19,0.75-1.43l13.77-7.95
					c0.41-0.24,0.75,0.01,0.75,0.56v7.09C95.42,138.05,95.09,138.68,94.68,138.92z"/>
				<path class="st24" d="M94.68,138.92l-13.77,7.95c-0.41,0.24-0.75-0.01-0.75-0.56v-7.09c0-0.55,0.33-1.19,0.75-1.43l13.77-7.95
					c0.41-0.24,0.75,0.01,0.75,0.56v7.09C95.42,138.05,95.09,138.68,94.68,138.92z"/>
			</g>
			<g>
				<path class="st6" d="M94.68,166.22l-13.77,7.95c-0.41,0.24-0.75-0.01-0.75-0.56v-7.09c0-0.55,0.33-1.19,0.75-1.42l13.77-7.95
					c0.41-0.24,0.75,0.01,0.75,0.56v7.09C95.42,165.35,95.09,165.99,94.68,166.22z"/>
				<path class="st24" d="M94.68,166.22l-13.77,7.95c-0.41,0.24-0.75-0.01-0.75-0.56v-7.09c0-0.55,0.33-1.19,0.75-1.42l13.77-7.95
					c0.41-0.24,0.75,0.01,0.75,0.56v7.09C95.42,165.35,95.09,165.99,94.68,166.22z"/>
			</g>
			<g>
				<path class="st6" d="M118.86,152.26l-13.77,7.95c-0.41,0.24-0.75-0.01-0.75-0.56v-7.09c0-0.55,0.33-1.19,0.75-1.42l13.77-7.95
					c0.41-0.24,0.75,0.01,0.75,0.56v7.09C119.61,151.38,119.27,152.02,118.86,152.26z"/>
				<path class="st24" d="M118.86,152.26l-13.77,7.95c-0.41,0.24-0.75-0.01-0.75-0.56v-7.09c0-0.55,0.33-1.19,0.75-1.42l13.77-7.95
					c0.41-0.24,0.75,0.01,0.75,0.56v7.09C119.61,151.38,119.27,152.02,118.86,152.26z"/>
			</g>
			<g>
				<path class="st6" d="M118.86,176.97l-13.77,7.95c-0.41,0.24-0.75-0.01-0.75-0.56v-7.09c0-0.55,0.33-1.19,0.75-1.42l13.77-7.95
					c0.41-0.24,0.75,0.01,0.75,0.56v7.09C119.61,176.1,119.27,176.73,118.86,176.97z"/>
				<path class="st24" d="M118.86,176.97l-13.77,7.95c-0.41,0.24-0.75-0.01-0.75-0.56v-7.09c0-0.55,0.33-1.19,0.75-1.42l13.77-7.95
					c0.41-0.24,0.75,0.01,0.75,0.56v7.09C119.61,176.1,119.27,176.73,118.86,176.97z"/>
			</g>
			<g>
				<path class="st6" d="M69.85,153.26l-13.77,7.95c-0.41,0.24-0.75-0.01-0.75-0.56v-7.09c0-0.55,0.33-1.19,0.75-1.42l13.77-7.95
					c0.41-0.24,0.75,0.01,0.75,0.56v7.09C70.6,152.38,70.26,153.02,69.85,153.26z"/>
				<path class="st24" d="M69.85,153.26l-13.77,7.95c-0.41,0.24-0.75-0.01-0.75-0.56v-7.09c0-0.55,0.33-1.19,0.75-1.42l13.77-7.95
					c0.41-0.24,0.75,0.01,0.75,0.56v7.09C70.6,152.38,70.26,153.02,69.85,153.26z"/>
			</g>
			<g>
				<path class="st2" d="M111.28,103.99l-5.82-8.14c-0.45-0.63-0.04-2.17,0.7-2.6l11.65-6.73c0.74-0.42,1.15,0.64,0.7,1.79
					l-5.82,14.86C112.32,104.09,111.63,104.49,111.28,103.99z"/>
			</g>
			<g>
				<path class="st6" d="M117.9,122.06l-5.4,9.3c-0.31,0.54-0.74,0.79-1.05,0.61l-5.4-3.07c-0.47-0.27-0.47-1.36,0-2.18l5.4-9.3
					c0.31-0.54,0.74-0.79,1.05-0.61l5.4,3.07C118.37,120.15,118.37,121.25,117.9,122.06z"/>
			</g>
			<g class="st8">
				<path class="st9" d="M117.9,122.06l-5.4,9.3c-0.31,0.54-0.74,0.79-1.05,0.61l-5.4-3.07c-0.47-0.27-0.47-1.36,0-2.18l5.4-9.3
					c0.31-0.54,0.74-0.79,1.05-0.61l5.4,3.07C118.37,120.15,118.37,121.25,117.9,122.06z"/>
			</g>
			<g>
				<path class="st6" d="M68.89,177.66l-5.4,9.3c-0.31,0.54-0.74,0.79-1.05,0.61l-5.4-3.07c-0.47-0.27-0.47-1.36,0-2.18l5.4-9.3
					c0.31-0.54,0.74-0.79,1.05-0.61l5.4,3.07C69.36,175.75,69.36,176.84,68.89,177.66z"/>
			</g>
			<g class="st8">
				<path class="st9" d="M68.89,177.66l-5.4,9.3c-0.31,0.54-0.74,0.79-1.05,0.61l-5.4-3.07c-0.47-0.27-0.47-1.36,0-2.18l5.4-9.3
					c0.31-0.54,0.74-0.79,1.05-0.61l5.4,3.07C69.36,175.75,69.36,176.84,68.89,177.66z"/>
			</g>
			<g>
				<g>
					<path class="st2" d="M79.66,123.15c-0.09,0-0.17-0.04-0.22-0.13c-0.07-0.12-0.03-0.27,0.09-0.34l16.26-9.39
						c0.12-0.07,0.27-0.03,0.34,0.09c0.07,0.12,0.03,0.27-0.09,0.34l-16.26,9.39C79.75,123.14,79.7,123.15,79.66,123.15z"/>
				</g>
				<g>
					<path class="st1" d="M79.66,125.51c-0.09,0-0.17-0.04-0.22-0.13c-0.07-0.12-0.03-0.27,0.09-0.34l16.26-9.39
						c0.12-0.07,0.27-0.03,0.34,0.09c0.07,0.12,0.03,0.27-0.09,0.34l-16.26,9.39C79.75,125.5,79.7,125.51,79.66,125.51z"/>
				</g>
				<g>
					<path class="st1" d="M79.66,127.87c-0.09,0-0.17-0.04-0.22-0.13c-0.07-0.12-0.03-0.27,0.09-0.34l16.26-9.39
						c0.12-0.07,0.27-0.03,0.34,0.09c0.07,0.12,0.03,0.27-0.09,0.34l-16.26,9.39C79.75,127.86,79.7,127.87,79.66,127.87z"/>
				</g>
				<g>
					<path class="st1" d="M79.66,130.23c-0.09,0-0.17-0.04-0.22-0.13c-0.07-0.12-0.03-0.27,0.09-0.34l16.26-9.39
						c0.12-0.07,0.27-0.03,0.34,0.09c0.07,0.12,0.03,0.27-0.09,0.34l-16.26,9.39C79.75,130.22,79.7,130.23,79.66,130.23z"/>
				</g>
			</g>
			<g>
				<g>
					<path class="st2" d="M103.19,82.83c-0.09,0-0.17-0.04-0.22-0.13c-0.07-0.12-0.03-0.27,0.09-0.34l16.26-9.39
						c0.12-0.07,0.27-0.03,0.34,0.09c0.07,0.12,0.03,0.27-0.09,0.34l-16.26,9.39C103.27,82.82,103.23,82.83,103.19,82.83z"/>
				</g>
				<g>
					<path class="st1" d="M103.19,85.19c-0.09,0-0.17-0.04-0.22-0.13c-0.07-0.12-0.03-0.27,0.09-0.34l16.26-9.39
						c0.12-0.07,0.27-0.03,0.34,0.09c0.07,0.12,0.03,0.27-0.09,0.34l-16.26,9.39C103.27,85.17,103.23,85.19,103.19,85.19z"/>
				</g>
				<g>
					<path class="st1" d="M103.19,87.54c-0.09,0-0.17-0.04-0.22-0.13c-0.07-0.12-0.03-0.27,0.09-0.34l16.26-9.39
						c0.12-0.07,0.27-0.03,0.34,0.09c0.07,0.12,0.03,0.27-0.09,0.34l-16.26,9.39C103.27,87.53,103.23,87.54,103.19,87.54z"/>
				</g>
				<g>
					<path class="st1" d="M103.19,89.9c-0.09,0-0.17-0.04-0.22-0.13c-0.07-0.12-0.03-0.27,0.09-0.34l16.26-9.39
						c0.12-0.07,0.27-0.03,0.34,0.09c0.07,0.12,0.03,0.27-0.09,0.34l-16.26,9.39C103.27,89.89,103.23,89.9,103.19,89.9z"/>
				</g>
			</g>
		</g>
	</g>
	<g id="Chart_Window">
		<g class="st7">
			<path d="M448.35,83.7l-88.58-51.1c-0.86-0.49-1.55-0.09-1.55,0.9l0,90.93c0,0.99,0.69,2.19,1.55,2.69l88.58,51.1
				c0.86,0.49,1.55,0.09,1.55-0.9l0-90.93C449.9,85.4,449.21,84.19,448.35,83.7z"/>
		</g>
		<g id="Window_00000072970316148799616750000012894762491200557706_">
			<g id="Window_00000080914863752581720970000011956579419456184978_">
				<path class="st0" d="M441.26,176.66c-0.21,0-0.43-0.07-0.66-0.2l-82.85-47.88c-1.33-0.77-2.46-2.71-2.46-4.25V40.91
					c0-0.92,0.39-1.46,1.03-1.46c0.29,0,0.63,0.11,0.97,0.31l82.86,47.83c1.33,0.77,2.46,2.72,2.46,4.26v82.77
					c0,0.57-0.16,1.11-0.43,1.5C442.01,176.36,441.71,176.66,441.26,176.66z"/>
				<path id="XMLID_00000170254336357483720030000002536556523271891105_" class="st13" d="M445.36,175
					c-0.29,0.15-2.38,1.34-3.29,1.87c0.62-0.44,0.94-1.19,0.99-2.25v-73.99l3.44-2.01v74.06C446.49,173.71,446.05,174.64,445.36,175
					z"/>
			</g>
			<path id="Outline_00000011753147469020753320000017024090959493294726_" class="st1" d="M356.32,39.9c0.15,0,0.39,0.04,0.75,0.24
				l82.86,47.83c1.21,0.7,2.23,2.47,2.23,3.86v82.77c0,0.85-0.42,1.6-0.89,1.6c-0.13,0-0.27-0.05-0.43-0.14l-82.86-47.88
				c-1.21-0.7-2.23-2.46-2.23-3.86V40.91C355.74,40.53,355.82,39.9,356.32,39.9 M356.32,38.99c-0.88,0-1.49,0.7-1.49,1.92v83.43
				c0,1.71,1.2,3.79,2.69,4.64l82.85,47.88c0.31,0.18,0.61,0.26,0.89,0.26c1.05,0,1.8-1.15,1.8-2.5V91.84c0-1.71-1.2-3.79-2.68-4.65
				l-82.86-47.83C357.09,39.11,356.68,38.99,356.32,38.99L356.32,38.99z"/>
			<g id="Up_Bar_00000109709121189584297750000011377735497961370762_">
				<g>
					<path class="st6" d="M354.84,40.85v8.95l88.22,50.92l3.43-2v-8.83c0-0.86-0.32-1.83-0.82-2.68c-0.48-0.83-1.15-1.54-1.87-1.96
						l-82.86-47.84c-0.77-0.44-1.45-0.45-1.96-0.16c-0.49,0.3-2.84,1.64-3.32,1.88c-0.07,0.04-0.15,0.08-0.2,0.14
						c-0.07,0.06-0.15,0.13-0.21,0.21c-0.07,0.08-0.12,0.17-0.17,0.27c-0.06,0.1-0.1,0.2-0.13,0.33c-0.04,0.11-0.07,0.24-0.08,0.37
						c0,0,0,0.01,0,0.02C354.85,40.59,354.84,40.71,354.84,40.85z"/>
					<path class="st23" d="M354.84,40.85v8.95l88.22,50.92l3.43-2v-8.83c0-0.86-0.32-1.83-0.82-2.68c-0.48-0.83-1.15-1.54-1.87-1.96
						l-82.86-47.84c-0.77-0.44-1.45-0.45-1.96-0.16c-0.49,0.3-2.84,1.64-3.32,1.88c-0.07,0.04-0.15,0.08-0.2,0.14
						c-0.07,0.06-0.15,0.13-0.21,0.21c-0.07,0.08-0.12,0.17-0.17,0.27c-0.06,0.1-0.1,0.2-0.13,0.33c-0.04,0.11-0.07,0.24-0.08,0.37
						c0,0,0,0.01,0,0.02C354.85,40.59,354.84,40.71,354.84,40.85z"/>
					<path class="st6" d="M354.84,40.85v8.95l88.22,50.92v-8.88c0-0.54-0.11-1.1-0.33-1.66c-0.03-0.09-0.07-0.19-0.11-0.28
						c-0.11-0.24-0.23-0.49-0.37-0.73c-0.49-0.84-1.15-1.57-1.88-1.98l-82.85-47.83c-0.82-0.48-1.56-0.47-2.06-0.08
						c-0.07,0.06-0.15,0.13-0.21,0.21c-0.07,0.08-0.12,0.17-0.17,0.27c-0.06,0.1-0.1,0.2-0.13,0.33c-0.04,0.11-0.07,0.24-0.08,0.37
						c0,0,0,0.01,0,0.02C354.85,40.59,354.84,40.71,354.84,40.85z"/>
					<g id="XMLID_00000146461892139568764480000014668739897387586187_">
						<path id="XMLID_00000139261275085701080150000012707108773211060659_" class="st0" d="M372.85,51.62
							c0.93,0.53,1.68,2.12,1.68,3.55c0,1.42-0.75,2.15-1.68,1.61c-0.92-0.53-1.67-2.12-1.67-3.55S371.93,51.08,372.85,51.62z"/>
						<path id="XMLID_00000006705502451458051040000015723672130542968236_" class="st0" d="M366.82,48.13
							c0.93,0.53,1.68,2.12,1.68,3.55c0,1.42-0.75,2.15-1.68,1.61c-0.92-0.53-1.67-2.12-1.67-3.55
							C365.15,48.32,365.9,47.6,366.82,48.13z"/>
						<path id="XMLID_00000017497254832503773370000013165855654182155921_" class="st0" d="M360.79,44.64
							c0.93,0.53,1.68,2.12,1.68,3.55c0,1.42-0.75,2.15-1.68,1.61c-0.92-0.53-1.67-2.12-1.67-3.55
							C359.12,44.83,359.87,44.11,360.79,44.64z"/>
					</g>
					<g id="XMLID_00000129922617177580276840000010937646176136768942_">
						<path class="st6" d="M357.52,39.36l82.86,47.84c0.73,0.43,1.41,1.16,1.89,1.99l3.41-1.97c-0.48-0.83-1.14-1.54-1.87-1.96
							l-82.86-47.83c-0.77-0.45-1.45-0.46-1.95-0.16c-0.48,0.3-2.71,1.56-3.27,1.87C356.19,38.89,356.83,38.96,357.52,39.36z"/>
					</g>
					<g id="XMLID_00000031193202037432730320000001810893478097406395_" class="st15">
						<path class="st9" d="M357.52,39.36l82.86,47.84c0.73,0.43,1.41,1.16,1.89,1.99l3.41-1.97c-0.48-0.83-1.14-1.54-1.87-1.96
							l-82.86-47.83c-0.77-0.45-1.45-0.46-1.95-0.16c-0.48,0.3-2.71,1.56-3.27,1.87C356.19,38.89,356.83,38.96,357.52,39.36z"/>
					</g>
				</g>
			</g>
		</g>
		<g id="Chart_1_">
			<g id="XMLID_526_">
				<path id="XMLID_529_" class="st6" d="M435.51,104.81l-72.75-41.73c-1.02-0.59-1.85-0.11-1.85,1.07v53.8
					c0,1.18,0.83,2.62,1.85,3.21l72.75,41.73c1.02,0.59,1.85,0.11,1.85-1.07l0-53.8C437.36,106.84,436.53,105.4,435.51,104.81z"/>
				<path id="XMLID_267_" class="st25" d="M435.51,104.81l-72.75-41.73c-1.02-0.59-1.85-0.11-1.85,1.07v53.8
					c0,1.18,0.83,2.62,1.85,3.21l72.75,41.73c1.02,0.59,1.85,0.11,1.85-1.07l0-53.8C437.36,106.84,436.53,105.4,435.51,104.81z"/>
				<g id="XMLID_527_" class="st8">
					<path class="st18" d="M361.93,63.41c0.11,0,0.28,0.03,0.53,0.17l72.75,41.73c0.84,0.49,1.56,1.72,1.56,2.7l0,53.8
						c0,0.27-0.06,0.73-0.44,0.73c-0.11,0-0.28-0.03-0.53-0.17l-72.75-41.73c-0.84-0.49-1.56-1.72-1.56-2.7v-53.8
						C361.5,63.87,361.55,63.41,361.93,63.41 M361.93,62.82c-0.61,0-1.02,0.48-1.02,1.32v53.8c0,1.18,0.83,2.62,1.85,3.21
						l72.75,41.73c0.3,0.17,0.58,0.25,0.83,0.25c0.61,0,1.02-0.48,1.02-1.32l0-53.8c0-1.18-0.83-2.62-1.85-3.21l-72.75-41.73
						C362.46,62.9,362.18,62.82,361.93,62.82L361.93,62.82z"/>
				</g>
			</g>
			<g id="XMLID_3358_" class="st8">
				<path id="XMLID_3357_" class="st6" d="M428.63,151.7c0,0,0-5.19-0.89-12.7c-0.54-4.58-1.65-12.31-6.07-14.86
					c-4.42-2.55-6.07,2.06-6.71,4.33c-0.83,2.94-5.15,1.08-5.75-3.77c-0.6-4.85-0.99-20.31-6.17-23.29
					c-5.18-2.99-6.85,4.21-7.44,6.21c-1.16,3.94-4.56,2.86-5.67,0.24c-1.11-2.61-4.13-3.25-5.27,0.43
					c-1.14,3.67-1.85,7.89-5.55,5.73c-3.25-1.9-1.75-5.37-4.92-7.01c-2.5-1.3-3.67,4.89-3.67,11.15L428.63,151.7z"/>
				<path id="XMLID_3356_" class="st6" d="M428.11,121.01c0,0.67-0.6,0.87-1.35,0.44l-7.33-4.22c-0.75-0.43-1.35-1.33-1.35-2
					s0.6-0.87,1.35-0.44l7.33,4.22C427.5,119.44,428.11,120.33,428.11,121.01z"/>
				<path id="XMLID_3359_" class="st6" d="M407.58,99.33c0,0.67-0.6,0.87-1.35,0.44l-7.33-4.22c-0.75-0.43-1.35-1.33-1.35-2
					c0-0.67,0.61-0.87,1.35-0.44l7.33,4.22C406.98,97.76,407.58,98.66,407.58,99.33z"/>
				<path id="XMLID_00000121973591318830343230000016205576455292288699_" class="st6" d="M393.15,102.16c0,0.67-0.6,0.87-1.35,0.44
					l-7.33-4.22c-0.75-0.43-1.35-1.33-1.35-2c0-0.67,0.61-0.87,1.35-0.44l7.33,4.22C392.55,100.59,393.15,101.48,393.15,102.16z"/>
				<path id="XMLID_3371_" class="st6" d="M379.67,105.25c0,0.67-0.6,0.87-1.35,0.44l-7.33-4.22c-0.75-0.43-1.35-1.33-1.35-2
					c0-0.67,0.6-0.87,1.35-0.44l7.33,4.22C379.06,103.68,379.67,104.58,379.67,105.25z"/>
			</g>
			<g>
				<g>
					<line class="st26" x1="421.67" y1="124.14" x2="421.67" y2="124.73"/>
					<line class="st27" x1="421.67" y1="126.98" x2="421.67" y2="146.08"/>
					<line class="st26" x1="421.67" y1="147.2" x2="421.67" y2="147.79"/>
				</g>
			</g>
			<g>
				<g>
					<line class="st26" x1="387.51" y1="105.92" x2="387.51" y2="106.51"/>
					<line class="st28" x1="387.51" y1="108.97" x2="387.51" y2="126.2"/>
					<line class="st26" x1="387.51" y1="127.43" x2="387.51" y2="128.02"/>
				</g>
			</g>
			<g>
				<g>
					<line class="st26" x1="374.17" y1="107" x2="374.17" y2="107.59"/>
					<line class="st29" x1="374.17" y1="109.8" x2="374.15" y2="118.62"/>
					<line class="st26" x1="374.15" y1="119.72" x2="374.15" y2="120.31"/>
				</g>
			</g>
			<g>
				<g>
					<line class="st26" x1="401.87" y1="100.88" x2="401.87" y2="101.47"/>
					<line class="st30" x1="401.87" y1="103.83" x2="401.87" y2="134.54"/>
					<line class="st26" x1="401.87" y1="135.72" x2="401.87" y2="136.31"/>
				</g>
			</g>
		</g>
	</g>
	<g id="Donut_Chart_Window">
		<g class="st7">
			<path d="M103.95,191l54.73-31.57c0.53-0.31,0.96-0.06,0.96,0.55l0,53.76c0,0.61-0.43,1.36-0.96,1.66l-54.73,31.57
				c-0.53,0.31-0.96,0.06-0.96-0.55l0-53.76C102.99,192.04,103.42,191.3,103.95,191z"/>
		</g>
		<g>
			<path id="XMLID_00000011735441191018566250000018291234499821354113_" class="st6" d="M157.32,163.82l-50.74,29.26
				c-0.58,0.34-1.06,1.16-1.06,1.83v51.91c0,0.67,0.48,1.49,1.06,1.82l2.01,1.14c0.59,0.33,1.54,0.33,2.12-0.01l50.74-29.26
				c0.58-0.34,1.06-1.16,1.06-1.83v-51.91c0-0.67-0.48-1.49-1.06-1.82l-2.01-1.14C158.86,163.47,157.91,163.48,157.32,163.82z"/>
			<path id="XMLID_00000009571545373461929980000003095646342358492597_" class="st7" d="M110.72,249.76
				c-0.56,0.33-1.59,0.34-2.12,0.01l-2.01-1.15c-0.59-0.33-1.06-1.14-1.06-1.82v-51.91c0-0.35,0.13-0.74,0.34-1.08l4.12,2.38
				c-0.2,0.33-0.31,0.7-0.31,1.04v51.9C109.66,249.77,110.1,250.12,110.72,249.76z"/>
			<g id="XMLID_00000101079130278195280840000016100559331476274101_" class="st7">
				<path class="st9" d="M162.51,166.58c-0.08-0.53-0.52-0.72-1.04-0.42l-50.74,29.26c-0.29,0.17-0.56,0.46-0.75,0.79l-4.12-2.38
					c0.19-0.32,0.44-0.59,0.73-0.75l50.74-29.26c0.58-0.34,1.53-0.34,2.12-0.01l2.01,1.14
					C161.99,165.25,162.43,165.95,162.51,166.58z"/>
			</g>
			<g>
				<path class="st9" d="M161.46,166.16l-50.74,29.26c-0.58,0.34-1.06,1.16-1.06,1.83l0,40.28l0,11.63c0,0.67,0.47,0.95,1.06,0.61
					l50.74-29.26c0.58-0.34,1.06-1.16,1.06-1.83v-51.91C162.52,166.09,162.05,165.82,161.46,166.16z"/>
				<path class="st18" d="M161.67,167.01v51.66c0,0.37-0.31,0.91-0.63,1.1l-50.53,29.14l0-11.38l0-40.28c0-0.37,0.31-0.91,0.63-1.1
					L161.67,167.01 M161.93,166.01c-0.14,0-0.3,0.05-0.47,0.14l-50.74,29.26c-0.58,0.34-1.06,1.16-1.06,1.83l0,40.28l0,11.63
					c0,0.48,0.24,0.75,0.58,0.75c0.14,0,0.3-0.05,0.47-0.14l50.74-29.26c0.58-0.34,1.06-1.16,1.06-1.83v-51.91
					C162.52,166.29,162.28,166.01,161.93,166.01L161.93,166.01z"/>
			</g>
		</g>
		<g>
			<g>
				<g>
					<g>
						<g>
							<path class="st6" d="M126.98,199.11v7.3c-3.16,1.82-5.72,6.72-5.72,10.92l-5.48,3.16
								C115.78,212.25,120.79,202.68,126.98,199.11z"/>
						</g>
					</g>
					<g>
						<g>
							<path class="st6" d="M122.86,221.71l-3.94,7.35c-2.06-1.66-3.14-4.6-3.14-8.56l5.48-3.16
								C121.26,219.39,121.87,220.9,122.86,221.71z"/>
						</g>
					</g>
					<g>
						<g>
							<path class="st6" d="M138.17,207.57c0,8.24-5.01,17.82-11.19,21.39c-3.22,1.86-5.82,1.88-8.05,0.09l3.94-7.35
								c1.04,0.84,2.5,0.89,4.11-0.05c3.16-1.82,5.72-6.71,5.72-10.92c0-4.21-2.56-6.15-5.72-4.32v-7.3
								C133.16,195.54,138.17,199.33,138.17,207.57z"/>
						</g>
					</g>
					<g class="st20">
						<g>
							<path class="st9" d="M138.17,207.57c0,8.24-5.01,17.82-11.19,21.39c-3.22,1.86-5.82,1.88-8.05,0.09l3.94-7.35
								c1.04,0.84,2.5,0.89,4.11-0.05c3.16-1.82,5.72-6.71,5.72-10.92c0-4.21-2.56-6.15-5.72-4.32v-7.3
								C133.16,195.54,138.17,199.33,138.17,207.57z"/>
						</g>
					</g>
					<path class="st6" d="M129.96,218.81c-0.87,1.21-1.89,2.22-2.98,2.85c-1.62,0.93-3.08,0.88-4.11,0.05
						c-0.99-0.8-1.61-2.31-1.61-4.37l-5.48,3.16c0,3.96,1.08,6.9,3.14,8.56c2.23,1.79,4.84,1.77,8.05-0.09
						c2.18-1.26,4.2-3.27,5.92-5.7L129.96,218.81z"/>
					<path class="st8" d="M129.96,218.81c-0.87,1.21-1.89,2.22-2.98,2.85c-1.62,0.93-3.08,0.88-4.11,0.05
						c-0.99-0.8-1.61-2.31-1.61-4.37l-5.48,3.16c0,3.96,1.08,6.9,3.14,8.56c2.23,1.79,4.84,1.77,8.05-0.09
						c2.18-1.26,4.2-3.27,5.92-5.7L129.96,218.81z"/>
				</g>
				<g>
					<g>
						<path class="st6" d="M145.06,194.58l-3.26,1.88c-0.04,0.02-0.07,0.07-0.07,0.11v3.77c0,0.04,0.03,0.06,0.07,0.04l3.26-1.88
							c0.04-0.02,0.07-0.07,0.07-0.11v-3.77C145.12,194.57,145.09,194.56,145.06,194.58z"/>
						<path class="st31" d="M145.06,194.58l-3.26,1.88c-0.04,0.02-0.07,0.07-0.07,0.11v3.77c0,0.04,0.03,0.06,0.07,0.04l3.26-1.88
							c0.04-0.02,0.07-0.07,0.07-0.11v-3.77C145.12,194.57,145.09,194.56,145.06,194.58z"/>
						<g>
							<path class="st2" d="M147.47,194.53c-0.08,0-0.17-0.04-0.21-0.12c-0.07-0.12-0.03-0.26,0.09-0.33l9.14-5.25
								c0.12-0.07,0.26-0.03,0.33,0.09c0.07,0.12,0.03,0.26-0.09,0.33l-9.14,5.25C147.55,194.52,147.51,194.53,147.47,194.53z"/>
						</g>
						<g>
							<path class="st2" d="M147.47,196.61c-0.08,0-0.17-0.04-0.21-0.12c-0.07-0.12-0.03-0.26,0.09-0.33l9.14-5.25
								c0.12-0.07,0.26-0.03,0.33,0.09c0.07,0.12,0.03,0.26-0.09,0.33l-9.14,5.25C147.55,196.6,147.51,196.61,147.47,196.61z"/>
						</g>
					</g>
					<g>
						<path class="st6" d="M145.06,202.28l-3.26,1.88c-0.04,0.02-0.07,0.07-0.07,0.11v3.77c0,0.04,0.03,0.06,0.07,0.04l3.26-1.88
							c0.04-0.02,0.07-0.07,0.07-0.11v-3.77C145.12,202.28,145.09,202.26,145.06,202.28z"/>
						<g>
							<path class="st2" d="M147.47,202.24c-0.08,0-0.17-0.04-0.21-0.12c-0.07-0.12-0.03-0.26,0.09-0.33l9.14-5.25
								c0.12-0.07,0.26-0.03,0.33,0.09c0.07,0.12,0.03,0.26-0.09,0.33l-9.14,5.25C147.55,202.23,147.51,202.24,147.47,202.24z"/>
						</g>
						<g>
							<path class="st2" d="M147.47,204.32c-0.08,0-0.17-0.04-0.21-0.12c-0.07-0.12-0.03-0.26,0.09-0.33l9.14-5.25
								c0.12-0.07,0.26-0.03,0.33,0.09c0.07,0.12,0.03,0.26-0.09,0.33l-9.14,5.25C147.55,204.31,147.51,204.32,147.47,204.32z"/>
						</g>
					</g>
					<g>
						<path class="st6" d="M145.06,209.99l-3.26,1.88c-0.04,0.02-0.07,0.07-0.07,0.11v3.77c0,0.04,0.03,0.06,0.07,0.04l3.26-1.88
							c0.04-0.02,0.07-0.07,0.07-0.11v-3.77C145.12,209.99,145.09,209.97,145.06,209.99z"/>
						<path class="st8" d="M145.06,209.99l-3.26,1.88c-0.04,0.02-0.07,0.07-0.07,0.11v3.77c0,0.04,0.03,0.06,0.07,0.04l3.26-1.88
							c0.04-0.02,0.07-0.07,0.07-0.11v-3.77C145.12,209.99,145.09,209.97,145.06,209.99z"/>
						<g>
							<g>
								<path class="st18" d="M147.47,209.94c-0.08,0-0.17-0.04-0.21-0.12c-0.07-0.12-0.03-0.26,0.09-0.33l9.14-5.25
									c0.12-0.07,0.26-0.03,0.33,0.09c0.07,0.12,0.03,0.26-0.09,0.33l-9.14,5.25C147.55,209.93,147.51,209.94,147.47,209.94z"/>
							</g>
							<g>
								<path class="st2" d="M147.47,209.94c-0.08,0-0.17-0.04-0.21-0.12c-0.07-0.12-0.03-0.26,0.09-0.33l9.14-5.25
									c0.12-0.07,0.26-0.03,0.33,0.09c0.07,0.12,0.03,0.26-0.09,0.33l-9.14,5.25C147.55,209.93,147.51,209.94,147.47,209.94z"/>
							</g>
						</g>
						<g>
							<path class="st2" d="M147.47,212.02c-0.08,0-0.17-0.04-0.21-0.12c-0.07-0.12-0.03-0.26,0.09-0.33l9.14-5.25
								c0.12-0.07,0.26-0.03,0.33,0.09c0.07,0.12,0.03,0.26-0.09,0.33l-9.14,5.25C147.55,212.01,147.51,212.02,147.47,212.02z"/>
						</g>
					</g>
				</g>
			</g>
		</g>
	</g>
	<g id="Customer_Window">
		<g class="st7">
			<path d="M391.57,191l-54.73-31.57c-0.53-0.31-0.96-0.06-0.96,0.55l0,53.76c0,0.61,0.43,1.36,0.96,1.66l54.73,31.57
				c0.53,0.31,0.96,0.06,0.96-0.55l0-53.76C392.53,192.04,392.1,191.3,391.57,191z"/>
		</g>
		<g>
			<path id="XMLID_00000176751840011744686270000004970103497237301911_" class="st6" d="M338.2,163.82l50.74,29.26
				c0.58,0.34,1.06,1.16,1.06,1.83v51.91c0,0.67-0.48,1.49-1.06,1.82l-2.01,1.14c-0.59,0.33-1.54,0.33-2.12-0.01l-50.74-29.26
				c-0.58-0.34-1.06-1.16-1.06-1.83v-51.91c0-0.67,0.48-1.49,1.06-1.82l2.01-1.14C336.67,163.47,337.62,163.48,338.2,163.82z"/>
			<path id="XMLID_00000018208956936769879740000008060566918424856456_" class="st7" d="M384.8,249.76
				c0.56,0.33,1.59,0.34,2.12,0.01l2.01-1.15c0.59-0.33,1.06-1.14,1.06-1.82v-51.91c0-0.35-0.13-0.74-0.34-1.08l-4.11,2.38
				c0.2,0.33,0.31,0.7,0.31,1.04v51.9C385.86,249.77,385.42,250.12,384.8,249.76z"/>
			<g id="XMLID_00000091724570579858037870000000535664148276055211_" class="st7">
				<path class="st9" d="M333.02,166.58c0.08-0.53,0.52-0.72,1.04-0.42l50.74,29.26c0.29,0.17,0.56,0.46,0.75,0.79l4.12-2.38
					c-0.19-0.32-0.44-0.59-0.73-0.75l-50.74-29.26c-0.58-0.34-1.53-0.34-2.12-0.01l-2.01,1.14
					C333.53,165.25,333.09,165.95,333.02,166.58z"/>
			</g>
			<g>
				<path class="st9" d="M334.06,166.16l50.74,29.26c0.58,0.34,1.06,1.16,1.06,1.83l0,40.28l0,11.63c0,0.67-0.47,0.95-1.06,0.61
					l-50.74-29.26c-0.58-0.34-1.06-1.16-1.06-1.83v-51.91C333,166.09,333.48,165.82,334.06,166.16z"/>
				<path class="st18" d="M333.85,167.01l50.53,29.14c0.32,0.18,0.63,0.73,0.63,1.1l0,40.28l0,11.38l-50.53-29.14
					c-0.32-0.18-0.63-0.73-0.63-1.1V167.01 M333.59,166.01c-0.35,0-0.58,0.28-0.58,0.75v51.91c0,0.67,0.47,1.49,1.06,1.83
					l50.74,29.26c0.17,0.1,0.33,0.14,0.47,0.14c0.35,0,0.58-0.28,0.58-0.75l0-11.63l0-40.28c0-0.67-0.47-1.49-1.06-1.83
					l-50.74-29.26C333.89,166.06,333.73,166.01,333.59,166.01L333.59,166.01z"/>
			</g>
		</g>
		<path class="st6" d="M351.3,189.6c0-3.1-1.89-6.71-4.22-8.05c-1.16-0.67-2.22-0.65-2.98-0.07c-0.76,0.58-1.23,1.71-1.23,3.26
			c0,3.1,1.89,6.71,4.22,8.05c1.16,0.67,2.22,0.65,2.98,0.07C350.83,192.28,351.3,191.15,351.3,189.6z M339.34,198.49l15.49,8.94
			l-0.25-2.89c-0.32-3.65-2.25-7.34-4.52-8.66l-5.94-3.43c-1.13-0.66-2.18-0.62-2.99-0.01c-0.81,0.61-1.37,1.8-1.53,3.45
			L339.34,198.49z"/>
		<path class="st2" d="M347.09,216.22c0-3.1-1.89-6.71-4.22-8.05c-1.16-0.67-2.22-0.65-2.98-0.07c-0.76,0.58-1.23,1.71-1.23,3.26
			c0,3.1,1.89,6.71,4.22,8.05c1.16,0.67,2.22,0.65,2.98,0.07C346.62,218.9,347.09,217.77,347.09,216.22z"/>
		<path class="st6" d="M362.43,224.75c0-3.1-1.89-6.71-4.22-8.05c-1.16-0.67-2.22-0.65-2.98-0.07c-0.76,0.58-1.23,1.71-1.23,3.26
			c0,3.1,1.89,6.71,4.22,8.05c1.16,0.67,2.22,0.65,2.98,0.07S362.43,226.3,362.43,224.75z"/>
		<path class="st6" d="M377.77,233.28c0-3.1-1.89-6.71-4.22-8.05c-1.16-0.67-2.22-0.65-2.98-0.07c-0.76,0.58-1.23,1.71-1.23,3.26
			c0,3.1,1.89,6.71,4.22,8.05c1.16,0.67,2.22,0.65,2.98,0.07C377.3,235.97,377.77,234.83,377.77,233.28z"/>
		<path class="st21" d="M377.77,233.28c0-3.1-1.89-6.71-4.22-8.05c-1.16-0.67-2.22-0.65-2.98-0.07c-0.76,0.58-1.23,1.71-1.23,3.26
			c0,3.1,1.89,6.71,4.22,8.05c1.16,0.67,2.22,0.65,2.98,0.07C377.3,235.97,377.77,234.83,377.77,233.28z"/>
		<g>
			<path class="st2" d="M378.61,203.98c0.16,0,0.32-0.09,0.41-0.24c0.13-0.23,0.05-0.52-0.17-0.65l-17.93-10.3
				c-0.23-0.13-0.52-0.05-0.65,0.17c-0.13,0.23-0.05,0.52,0.17,0.65l17.93,10.3C378.45,203.96,378.53,203.98,378.61,203.98z"/>
		</g>
		<g>
			<path class="st2" d="M378.61,208.06c0.16,0,0.32-0.09,0.41-0.24c0.13-0.23,0.05-0.52-0.17-0.65l-17.93-10.3
				c-0.23-0.13-0.52-0.05-0.65,0.17c-0.13,0.23-0.05,0.52,0.17,0.65l17.93,10.3C378.45,208.04,378.53,208.06,378.61,208.06z"/>
		</g>
		<g>
			<path class="st1" d="M378.61,215.62c0.16,0,0.32-0.09,0.41-0.24c0.13-0.23,0.05-0.52-0.17-0.65l-17.93-10.3
				c-0.23-0.13-0.52-0.05-0.65,0.17c-0.13,0.23-0.05,0.52,0.17,0.65l17.93,10.3C378.45,215.6,378.53,215.62,378.61,215.62z"/>
		</g>
		<g>
			<path class="st1" d="M378.61,219.7c0.16,0,0.32-0.09,0.41-0.24c0.13-0.23,0.05-0.52-0.17-0.65l-17.93-10.3
				c-0.23-0.13-0.52-0.05-0.65,0.17c-0.13,0.23-0.05,0.52,0.17,0.65l17.93,10.3C378.45,219.68,378.53,219.7,378.61,219.7z"/>
		</g>
	</g>
</g>
<g id="Arrows_1">
	<g id="Arrows">
		<g id="Arrow_7_">
			<polygon class="st6" points="146.22,148.74 150.15,151.01 156.61,147.28 156.61,68.34 160.92,65.85 153.53,60.16 149.6,57.9 
				141.91,72.29 145.84,74.56 146.22,74.34 			"/>
			<polygon class="st32" points="146.22,148.74 150.15,151.01 156.61,147.28 156.61,68.34 160.92,65.85 153.53,60.16 149.6,57.9 
				141.91,72.29 145.84,74.56 146.22,74.34 			"/>
			<polygon id="Down_Arrow_4_" class="st6" points="150.15,151.01 156.61,147.28 156.61,68.34 160.92,65.85 153.53,60.16 
				145.84,74.56 150.15,72.07 			"/>
			<polygon id="Down_Arrow_3_" class="st33" points="150.15,151.01 156.61,147.28 156.61,68.34 160.92,65.85 153.53,60.16 
				145.84,74.56 150.15,72.07 			"/>
			<polygon class="st6" points="146.22,148.74 150.15,151.01 150.15,72.07 146.22,74.34 			"/>
			<polygon class="st21" points="146.22,148.74 150.15,151.01 150.15,72.07 146.22,74.34 			"/>
		</g>
		<g id="Arrow_6_">
			<polygon class="st6" points="164.6,139.25 167.54,140.95 172.39,138.15 172.39,74 175.62,72.13 170.08,67.87 167.13,66.17 
				161.37,76.96 164.31,78.66 164.6,78.5 			"/>
			<polygon class="st34" points="164.31,78.66 170.08,67.87 167.13,66.17 161.37,76.96 			"/>
			<polygon id="Down_Arrow" class="st6" points="167.54,140.95 172.39,138.15 172.39,74 175.62,72.13 170.08,67.87 164.31,78.66 
				167.54,76.8 			"/>
			<polygon id="Down_Arrow_5_" class="st3" points="167.54,140.95 172.39,138.15 172.39,74 175.62,72.13 170.08,67.87 164.31,78.66 
				167.54,76.8 			"/>
			<polygon class="st8" points="164.6,139.25 167.54,140.95 167.54,76.8 164.6,78.5 			"/>
		</g>
	</g>
</g>
<g id="Icons">
	<g id="Icon_00000011029914296738414130000001289538218503579028_">
		<g id="XMLID_00000088117227578031007660000005677267984949029305_">
			<path id="XMLID_00000013884947735442790780000012777746117709676166_" class="st23" d="M391.55,163.7c0-1.37,0.96-1.92,2.14-1.24
				l17.88,10.34c1.18,0.68,2.14,2.34,2.14,3.71v27.11c0,1.37-0.96,1.92-2.14,1.24l-17.88-10.34c-1.18-0.68-2.14-2.34-2.14-3.71
				L391.55,163.7z"/>
			<path id="XMLID_00000056417146823249864760000011523372224992517518_" class="st5" d="M407.6,175.2l-17.88-10.34
				c-1.18-0.68-3.1-0.68-4.28,0l-1.74,1.01c-1.18,0.68-2.14,2.34-2.14,3.71l0,27.11c0,1.37,0.96,3.03,2.14,3.71l17.88,10.34
				c1.18,0.68,3.1,0.68,4.28,0l1.74-1.01c1.18-0.68,2.14-2.34,2.14-3.71v-27.11C409.74,177.54,408.78,175.88,407.6,175.2z"/>
			<path id="XMLID_00000017478663748876367180000011678543593304469402_" class="st2" d="M381.55,169.57c0-1.37,0.96-1.92,2.14-1.24
				l17.88,10.34c1.18,0.68,2.14,2.34,2.14,3.71v27.11c0,1.37-0.96,1.92-2.14,1.24l-17.88-10.34c-1.18-0.68-2.14-2.34-2.14-3.71
				L381.55,169.57z"/>
			<path id="XMLID_00000085931999499587605870000005129787615575388345_" class="st4" d="M409.74,206.01c0,1.37-0.96,3.03-2.14,3.71
				l-1.74,1.01c-1.07,0.62-2.73,0.67-3.92,0.17c1.01,0.38,1.78-0.19,1.78-1.41v-27.11c0-0.68-0.24-1.44-0.63-2.11l6.03-3.48
				c0.39,0.67,0.63,1.43,0.63,2.11L409.74,206.01z"/>
		</g>
		<path class="st6" d="M394.66,196.73l-3.47-2c-0.15-0.09-0.26,0.03-0.26,0.25c0,0.22,0.12,0.46,0.26,0.55l3.47,2
			c0.15,0.08,0.26-0.03,0.26-0.25C394.92,197.05,394.81,196.8,394.66,196.73z M391.69,187.45l0.02,0.06
			c0.1,0.38,0.19,0.79,0.28,1.23c0.37,1.97,0.35,3.75,0.33,5.3v0.55l1.24,0.71v-0.44c-0.02-1.58-0.04-3.37,0.34-4.92
			c0.08-0.36,0.17-0.67,0.28-0.92l0.03-0.07l-0.07-0.08c-0.29-0.33-0.56-0.72-0.83-1.18c-0.14-0.25-0.27-0.49-0.39-0.75l-0.01-0.03
			c-0.11,0.11-0.23,0.2-0.38,0.29C392.28,187.37,391.99,187.45,391.69,187.45z M394.66,198.22l-3.47-1.99
			c-0.15-0.09-0.26,0.02-0.26,0.24c0,1.69,0.89,3.59,1.99,4.22c1.09,0.64,1.98-0.22,1.98-1.92
			C394.91,198.54,394.8,198.3,394.66,198.22z M393.19,177.5c-1.49-0.97-2.89-0.97-3.97-0.02c-1.06,0.97-1.66,2.74-1.66,5.02
			c0,2.89,1.02,6.2,2.64,8.62c0.45,0.65,0.72,1.53,0.72,2.29c0,0.19,0.1,0.42,0.23,0.49l0.7,0.4v-0.37c0.01-1.61,0.03-3.32-0.32-5.2
			c-0.1-0.49-0.2-0.93-0.31-1.3l-0.04-0.12c-0.15,0-0.31-0.07-0.45-0.15c-0.33-0.18-0.61-0.45-0.79-0.76
			c-0.2-0.34-0.28-0.7-0.2-0.99c0.06-0.26,0.21-0.42,0.42-0.42c0.09,0,0.17,0.03,0.27,0.08c0.36,0.21,0.74,0.8,1.05,1.64l0.02,0.06
			l0.09,0.01c0.24,0,0.48-0.07,0.7-0.2c0.15-0.08,0.27-0.2,0.37-0.32l-0.02-0.07c-0.35-0.97-0.49-1.9-0.36-2.41
			c0.08-0.29,0.24-0.45,0.46-0.45c0.09,0,0.18,0.03,0.28,0.09c0.3,0.17,0.54,0.57,0.64,1.05c0.14,0.68-0.01,1.45-0.37,2.01
			l-0.02,0.04c0.12,0.26,0.29,0.58,0.42,0.82c0.25,0.46,0.52,0.83,0.8,1.13c0.25-0.35,0.5-0.51,0.76-0.51c0.12,0,0.23,0.03,0.34,0.1
			c0.29,0.16,0.51,0.53,0.6,0.97c0.07,0.4-0.03,0.68-0.26,0.79c-0.07,0.03-0.15,0.05-0.24,0.05c-0.17,0-0.38-0.06-0.59-0.18
			c-0.14-0.09-0.28-0.18-0.43-0.31c-0.12,0.27-0.2,0.56-0.29,0.89c-0.35,1.46-0.33,3.14-0.32,4.76c0,0.14,0.01,0.35,0.01,0.54
			l0.67,0.39c0.06,0.04,0.12,0.03,0.16-0.01c0.04-0.04,0.07-0.13,0.07-0.21c0-0.77,0.26-1.33,0.71-1.47
			c1.66-0.55,2.67-2.74,2.64-5.71C398.24,184.27,395.96,179.3,393.19,177.5z M390.44,185.62c-0.05-0.03-0.1-0.04-0.14-0.04
			c-0.22,0-0.21,0.29-0.16,0.43c0.07,0.2,0.21,0.38,0.37,0.53c0.09,0.08,0.19,0.15,0.3,0.19c0.07,0.02,0.27,0.08,0.26-0.05
			c-0.01-0.11-0.06-0.21-0.11-0.32c-0.04-0.09-0.09-0.18-0.14-0.27C390.73,185.92,390.61,185.7,390.44,185.62z M393.08,185.76
			c0.19-0.38,0.27-0.84,0.2-1.22c-0.05-0.24-0.15-0.4-0.31-0.49c-0.06-0.03-0.1-0.05-0.15-0.05c-0.06,0-0.18,0.02-0.23,0.23
			c-0.07,0.3,0.01,0.85,0.2,1.44c0.02,0.06,0.05,0.12,0.08,0.17c0.01,0.02,0.03,0.04,0.05,0.04c0.01,0,0.02,0,0.03,0
			C393.02,185.86,393.06,185.82,393.08,185.76z M395.08,189.2c0.17,0.1,0.34,0.16,0.47,0.16c0.05,0,0.1-0.01,0.17-0.04
			c0.03-0.03,0.14-0.1,0.1-0.29c-0.03-0.21-0.14-0.38-0.29-0.47c-0.06-0.03-0.13-0.05-0.2-0.05c-0.24,0-0.41,0.19-0.55,0.35
			c-0.01,0.01-0.01,0.02-0.02,0.02c-0.01,0.02-0.01,0.05,0,0.07c0.03,0.1,0.11,0.13,0.19,0.18
			C394.99,189.16,395.02,189.18,395.08,189.2z"/>
		<path class="st35" d="M394.66,196.73l-3.47-2c-0.15-0.09-0.26,0.03-0.26,0.25c0,0.22,0.12,0.46,0.26,0.55l3.47,2
			c0.15,0.08,0.26-0.03,0.26-0.25C394.92,197.05,394.81,196.8,394.66,196.73z M391.69,187.45l0.02,0.06
			c0.1,0.38,0.19,0.79,0.28,1.23c0.37,1.97,0.35,3.75,0.33,5.3v0.55l1.24,0.71v-0.44c-0.02-1.58-0.04-3.37,0.34-4.92
			c0.08-0.36,0.17-0.67,0.28-0.92l0.03-0.07l-0.07-0.08c-0.29-0.33-0.56-0.72-0.83-1.18c-0.14-0.25-0.27-0.49-0.39-0.75l-0.01-0.03
			c-0.11,0.11-0.23,0.2-0.38,0.29C392.28,187.37,391.99,187.45,391.69,187.45z M394.66,198.22l-3.47-1.99
			c-0.15-0.09-0.26,0.02-0.26,0.24c0,1.69,0.89,3.59,1.99,4.22c1.09,0.64,1.98-0.22,1.98-1.92
			C394.91,198.54,394.8,198.3,394.66,198.22z M393.19,177.5c-1.49-0.97-2.89-0.97-3.97-0.02c-1.06,0.97-1.66,2.74-1.66,5.02
			c0,2.89,1.02,6.2,2.64,8.62c0.45,0.65,0.72,1.53,0.72,2.29c0,0.19,0.1,0.42,0.23,0.49l0.7,0.4v-0.37c0.01-1.61,0.03-3.32-0.32-5.2
			c-0.1-0.49-0.2-0.93-0.31-1.3l-0.04-0.12c-0.15,0-0.31-0.07-0.45-0.15c-0.33-0.18-0.61-0.45-0.79-0.76
			c-0.2-0.34-0.28-0.7-0.2-0.99c0.06-0.26,0.21-0.42,0.42-0.42c0.09,0,0.17,0.03,0.27,0.08c0.36,0.21,0.74,0.8,1.05,1.64l0.02,0.06
			l0.09,0.01c0.24,0,0.48-0.07,0.7-0.2c0.15-0.08,0.27-0.2,0.37-0.32l-0.02-0.07c-0.35-0.97-0.49-1.9-0.36-2.41
			c0.08-0.29,0.24-0.45,0.46-0.45c0.09,0,0.18,0.03,0.28,0.09c0.3,0.17,0.54,0.57,0.64,1.05c0.14,0.68-0.01,1.45-0.37,2.01
			l-0.02,0.04c0.12,0.26,0.29,0.58,0.42,0.82c0.25,0.46,0.52,0.83,0.8,1.13c0.25-0.35,0.5-0.51,0.76-0.51c0.12,0,0.23,0.03,0.34,0.1
			c0.29,0.16,0.51,0.53,0.6,0.97c0.07,0.4-0.03,0.68-0.26,0.79c-0.07,0.03-0.15,0.05-0.24,0.05c-0.17,0-0.38-0.06-0.59-0.18
			c-0.14-0.09-0.28-0.18-0.43-0.31c-0.12,0.27-0.2,0.56-0.29,0.89c-0.35,1.46-0.33,3.14-0.32,4.76c0,0.14,0.01,0.35,0.01,0.54
			l0.67,0.39c0.06,0.04,0.12,0.03,0.16-0.01c0.04-0.04,0.07-0.13,0.07-0.21c0-0.77,0.26-1.33,0.71-1.47
			c1.66-0.55,2.67-2.74,2.64-5.71C398.24,184.27,395.96,179.3,393.19,177.5z M390.44,185.62c-0.05-0.03-0.1-0.04-0.14-0.04
			c-0.22,0-0.21,0.29-0.16,0.43c0.07,0.2,0.21,0.38,0.37,0.53c0.09,0.08,0.19,0.15,0.3,0.19c0.07,0.02,0.27,0.08,0.26-0.05
			c-0.01-0.11-0.06-0.21-0.11-0.32c-0.04-0.09-0.09-0.18-0.14-0.27C390.73,185.92,390.61,185.7,390.44,185.62z M393.08,185.76
			c0.19-0.38,0.27-0.84,0.2-1.22c-0.05-0.24-0.15-0.4-0.31-0.49c-0.06-0.03-0.1-0.05-0.15-0.05c-0.06,0-0.18,0.02-0.23,0.23
			c-0.07,0.3,0.01,0.85,0.2,1.44c0.02,0.06,0.05,0.12,0.08,0.17c0.01,0.02,0.03,0.04,0.05,0.04c0.01,0,0.02,0,0.03,0
			C393.02,185.86,393.06,185.82,393.08,185.76z M395.08,189.2c0.17,0.1,0.34,0.16,0.47,0.16c0.05,0,0.1-0.01,0.17-0.04
			c0.03-0.03,0.14-0.1,0.1-0.29c-0.03-0.21-0.14-0.38-0.29-0.47c-0.06-0.03-0.13-0.05-0.2-0.05c-0.24,0-0.41,0.19-0.55,0.35
			c-0.01,0.01-0.01,0.02-0.02,0.02c-0.01,0.02-0.01,0.05,0,0.07c0.03,0.1,0.11,0.13,0.19,0.18
			C394.99,189.16,395.02,189.18,395.08,189.2z"/>
	</g>
	<g id="Icon">
		<g id="XMLID_00000158745544485370731080000012045006684748898946_">
			<path id="XMLID_00000150080455253303128300000016116539580590487206_" class="st23" d="M422.47,181.52
				c0-1.37,0.96-1.92,2.14-1.24l17.88,10.34c1.18,0.68,2.14,2.34,2.14,3.71v27.11c0,1.37-0.96,1.92-2.14,1.24l-17.88-10.34
				c-1.18-0.68-2.14-2.34-2.14-3.71L422.47,181.52z"/>
			<path id="XMLID_00000172436824108832611180000012318876058135174562_" class="st6" d="M438.52,193.02l-17.88-10.34
				c-1.18-0.68-3.1-0.68-4.28,0l-1.74,1.01c-1.18,0.68-2.14,2.34-2.14,3.71l0,27.11c0,1.37,0.96,3.03,2.14,3.71l17.88,10.34
				c1.18,0.68,3.1,0.68,4.28,0l1.74-1.01c1.18-0.68,2.14-2.34,2.14-3.71v-27.11C440.66,195.37,439.7,193.7,438.52,193.02z"/>
			<path id="XMLID_00000096021483933702383830000008403928252761779386_" class="st33" d="M438.52,193.02l-17.88-10.34
				c-1.18-0.68-3.1-0.68-4.28,0l-1.74,1.01c-1.18,0.68-2.14,2.34-2.14,3.71l0,27.11c0,1.37,0.96,3.03,2.14,3.71l17.88,10.34
				c1.18,0.68,3.1,0.68,4.28,0l1.74-1.01c1.18-0.68,2.14-2.34,2.14-3.71v-27.11C440.66,195.37,439.7,193.7,438.52,193.02z"/>
			<path id="XMLID_00000150819644729550023710000004196685170175116693_" class="st6" d="M412.47,187.4c0-1.37,0.96-1.92,2.14-1.24
				l17.88,10.34c1.18,0.68,2.14,2.34,2.14,3.71v27.11c0,1.37-0.96,1.92-2.14,1.24l-17.88-10.34c-1.18-0.68-2.14-2.34-2.14-3.71
				L412.47,187.4z"/>
			<path id="XMLID_00000008869790506539338620000010565834310306546592_" class="st31" d="M412.47,187.4c0-1.37,0.96-1.92,2.14-1.24
				l17.88,10.34c1.18,0.68,2.14,2.34,2.14,3.71v27.11c0,1.37-0.96,1.92-2.14,1.24l-17.88-10.34c-1.18-0.68-2.14-2.34-2.14-3.71
				L412.47,187.4z"/>
			<path id="XMLID_00000142164955230095360950000004036810360706469052_" class="st6" d="M440.66,223.84c0,1.37-0.96,3.03-2.14,3.71
				l-1.74,1.01c-1.07,0.62-2.73,0.67-3.92,0.17c1.01,0.38,1.78-0.19,1.78-1.41v-27.11c0-0.68-0.24-1.44-0.63-2.11l6.03-3.48
				c0.39,0.67,0.63,1.43,0.63,2.11L440.66,223.84z"/>
			<path id="XMLID_00000088095603558703314010000013332407473935325327_" class="st36" d="M440.66,223.84
				c0,1.37-0.96,3.03-2.14,3.71l-1.74,1.01c-1.07,0.62-2.73,0.67-3.92,0.17c1.01,0.38,1.78-0.19,1.78-1.41v-27.11
				c0-0.68-0.24-1.44-0.63-2.11l6.03-3.48c0.39,0.67,0.63,1.43,0.63,2.11L440.66,223.84z"/>
		</g>
		<path class="st9" d="M415.37,202.67c0,0.64,0.04,1.29,0.12,1.92c0.02,0.13,0.09,0.25,0.17,0.31l1.5,1.09
			c0.33,0.24,0.62,0.72,0.76,1.23c0,0.01,0,0.01,0,0.01c0,0.01,0,0.02,0.01,0.03c0.14,0.52,0.1,0.98-0.11,1.21l-0.94,1.04
			c-0.05,0.06-0.05,0.19-0.01,0.31c0.54,1.33,1.2,2.59,1.97,3.76c0.07,0.11,0.17,0.16,0.23,0.13l1.17-0.58
			c0.27-0.13,0.63,0.02,0.96,0.4c0,0,0.01,0.01,0.02,0.02c0.33,0.37,0.55,0.88,0.59,1.35l0.18,2.1c0.01,0.12,0.08,0.25,0.16,0.32
			c0.45,0.36,0.92,0.69,1.4,0.96c0.48,0.28,0.95,0.49,1.39,0.64c0.09,0.03,0.15-0.03,0.16-0.14l0.17-1.9
			c0.04-0.42,0.26-0.68,0.59-0.68c0.01,0,0.01,0,0.02,0c0.33,0,0.7,0.28,0.96,0.7l1.18,1.93c0.07,0.11,0.16,0.17,0.23,0.15
			c0.77-0.28,1.43-0.78,1.97-1.5c0.05-0.07,0.04-0.19-0.01-0.32l-0.94-2.11c-0.21-0.47-0.26-0.98-0.12-1.34c0-0.01,0-0.01,0-0.02
			c0.14-0.36,0.43-0.5,0.76-0.36l1.5,0.63c0.09,0.04,0.16-0.01,0.17-0.11c0.08-0.55,0.12-1.15,0.12-1.78c0-0.64-0.04-1.29-0.12-1.93
			c-0.01-0.12-0.09-0.25-0.17-0.31l-1.51-1.1c-0.33-0.24-0.61-0.69-0.76-1.21c0-0.01-0.01-0.03-0.01-0.04
			c-0.14-0.52-0.1-0.98,0.11-1.21l0.93-1.03c0.05-0.06,0.06-0.19,0.01-0.31c-0.54-1.34-1.2-2.6-1.97-3.76
			c-0.07-0.1-0.17-0.16-0.24-0.12l-1.17,0.57c-0.26,0.13-0.63-0.02-0.96-0.39c-0.01-0.01-0.01-0.01-0.02-0.02
			c-0.33-0.37-0.56-0.89-0.59-1.35l-0.18-2.1c-0.01-0.12-0.08-0.25-0.16-0.32c-0.89-0.72-1.9-1.31-2.79-1.6
			c-0.08-0.02-0.15,0.03-0.16,0.14l-0.17,1.9c-0.04,0.42-0.26,0.68-0.59,0.68c-0.01,0-0.01,0-0.02,0c-0.33-0.01-0.7-0.29-0.96-0.71
			l-1.18-1.92c-0.07-0.11-0.16-0.17-0.23-0.14c-0.77,0.27-1.43,0.78-1.97,1.49c-0.05,0.06-0.05,0.2,0.01,0.32l0.94,2.11
			c0.21,0.47,0.26,0.98,0.12,1.34c0,0.01-0.01,0.02-0.01,0.04c-0.13,0.35-0.42,0.48-0.76,0.34l-1.49-0.63
			c-0.09-0.04-0.16,0.01-0.17,0.11C415.41,201.45,415.37,202.05,415.37,202.67z M419.42,204.99c0-3.04,1.84-4.45,4.12-3.15
			c2.28,1.31,4.13,4.85,4.14,7.89c0.01,3.04-1.84,4.44-4.12,3.14C421.28,211.56,419.42,208.03,419.42,204.99z"/>
	</g>
</g>
<g id="Speech_Bubble">
	<g id="Speech_Bubble_00000093147617770490158840000012283201206142170262_">
		<g id="Speech_Bubble_00000093886887531083942330000012600915579477453708_">
			<path class="st9" d="M290.33,49.7c-5.06,2.92-8.53,7.55-10.11,12.75l-0.6,2.46c-0.92,4.99-0.14,10.32,2.59,15.05
				c6.1,10.58,19.68,14.22,30.26,8.12c4.73-2.73,8.07-6.96,9.78-11.74l0.72-2.43c1.23-5.29,0.55-11.03-2.37-16.1
				C314.49,47.23,300.91,43.59,290.33,49.7z"/>
			<path class="st2" d="M289.42,48.05c-10.31,5.92-14.56,18.38-10.56,29.18l-4.69,5.81c-0.8,0.99,0.04,2.45,1.3,2.26l7.38-1.13
				c7.31,8.89,20.22,11.49,30.53,5.57c11.49-6.6,15.47-21.33,8.87-32.82C315.63,45.42,300.91,41.44,289.42,48.05z M320.61,57.85
				c2.91,5.07,3.58,10.81,2.34,16.1l-0.72,2.43c-1.71,4.78-5.06,9-9.8,11.72c-10.59,6.09-24.16,2.42-30.25-8.17
				c-2.72-4.74-3.49-10.07-2.56-15.06l0.6-2.46c1.59-5.19,5.06-9.82,10.13-12.73C300.95,43.59,314.52,47.25,320.61,57.85z"/>
		</g>
		<g id="Check_00000033371206789487655280000005689094087967976636_">
			<path class="st6" d="M298.04,81.61c-0.96,0-1.88-0.4-2.54-1.1l-7.88-8.41c-1.31-1.4-1.24-3.6,0.16-4.91
				c1.4-1.31,3.6-1.24,4.91,0.16l5.11,5.46l12.1-15.33c1.19-1.51,3.37-1.76,4.88-0.57c1.51,1.19,1.76,3.37,0.57,4.88l-14.6,18.5
				c-0.63,0.79-1.57,1.28-2.58,1.32C298.13,81.61,298.08,81.61,298.04,81.61z"/>
		</g>
	</g>
</g>
</svg>
