<?xml version="1.0" encoding="utf-8"?>
<!-- Generator: Adobe Illustrator 28.1.0, SVG Export Plug-In . SVG Version: 6.00 Build 0)  -->
<svg version="1.1" id="Layer_1" xmlns="http://www.w3.org/2000/svg" xmlns:xlink="http://www.w3.org/1999/xlink" x="0px" y="0px"
	 viewBox="0 0 3000 2000" style="enable-background:new 0 0 3000 2000;" xml:space="preserve">
<style type="text/css">
	.st0{fill:#FFFFFF;}
	.st1{fill:#F7F7F7;}
	.st2{fill:#D1D1D1;}
	.st3{fill:#E8E8E8;}
	.st4{clip-path:url(#XMLID_00000029044100106597280180000013299026273338080143_);fill:#FFB2A0;}
	.st5{clip-path:url(#XMLID_00000131337401197821559600000015219692425243913647_);fill:#FFB2A0;}
	.st6{fill:#373660;}
	.st7{opacity:0.55;clip-path:url(#XMLID_00000096765529975107819860000005286551722941757874_);fill:#FFA648;}
	.st8{fill:#FFD1C1;}
	.st9{clip-path:url(#XMLID_00000069357381385107049790000002999682221339026598_);fill:#4F5285;}
	.st10{fill:#4F5285;}
	.st11{fill:#FFC967;}
	.st12{fill:#FFA648;}
	.st13{clip-path:url(#XMLID_00000025406219023035631120000010932256858130149561_);fill:#FFB2A0;}
	.st14{opacity:0.55;fill:#FFA648;}
	.st15{opacity:0.14;clip-path:url(#XMLID_00000144306191072931259540000005711110155070434463_);fill:#E8E8E8;}
	.st16{clip-path:url(#XMLID_00000142893660918144808890000016560635011782260925_);fill:#D1D1D1;}
	.st17{fill:#FE6D60;}
	.st18{clip-path:url(#XMLID_00000145055832749564606010000013160018069080087207_);}
	.st19{clip-path:url(#XMLID_00000146484406200831192550000007330673051127204232_);fill:#FFC967;}
</style>
<rect class="st0" width="3000" height="2000"/>
<path class="st1" d="M487.68,1663.85h1965.51c0,0,227.55-350.04,24.35-945.67S1424.47,34.58,1189.6,573.25
	C874.24,1296.52,226.8,934.5,487.68,1663.85z"/>
<g>
	<path class="st2" d="M607.94,1784.12c-66.32,0-120.27-53.95-120.27-120.27c0-66.32,53.95-120.27,120.27-120.27h1724.97
		c66.32,0,120.27,53.95,120.27,120.27c0,66.32-53.95,120.27-120.27,120.27H607.94z"/>
	<path class="st3" d="M2332.92,1751.9H607.94c-48.63,0-88.05-39.42-88.05-88.05v0c0-48.63,39.42-88.05,88.05-88.05h1724.97
		c48.63,0,88.05,39.42,88.05,88.05v0C2420.96,1712.48,2381.54,1751.9,2332.92,1751.9z"/>
	<g>
		<rect x="695.79" y="1612.77" class="st1" width="73" height="104.94"/>
		<rect x="801.24" y="1612.77" class="st1" width="73" height="104.94"/>
		<rect x="906.69" y="1612.77" class="st1" width="73" height="104.94"/>
		<rect x="1012.14" y="1612.77" class="st1" width="73" height="104.94"/>
		<rect x="1117.58" y="1612.77" class="st1" width="73" height="104.94"/>
		<rect x="1223.03" y="1612.77" class="st1" width="73" height="104.94"/>
		<rect x="1328.48" y="1612.77" class="st1" width="73" height="104.94"/>
		<rect x="1433.93" y="1612.77" class="st1" width="73" height="104.94"/>
		<rect x="1539.38" y="1612.77" class="st1" width="73" height="104.94"/>
		<rect x="1644.82" y="1612.77" class="st1" width="73" height="104.94"/>
		<rect x="1750.27" y="1612.77" class="st1" width="73" height="104.94"/>
		<rect x="1855.72" y="1612.77" class="st1" width="73" height="104.94"/>
		<rect x="1961.17" y="1612.77" class="st1" width="73" height="104.94"/>
		<rect x="2066.62" y="1612.77" class="st1" width="73" height="104.94"/>
		<rect x="2172.06" y="1612.77" class="st1" width="73" height="104.94"/>
	</g>
	<g>
		<rect x="574.75" y="1630.66" class="st2" width="1796.43" height="66.29"/>
		<g>
			<path class="st0" d="M692.77,1650.45h-13.26c-1.84-10.06-5.78-19.56-11.59-27.98l9.38-9.38c1.18-1.18,1.18-3.09,0-4.27
				l-14.53-14.53c-1.18-1.18-3.09-1.18-4.27,0l-9.38,9.38c-8.42-5.81-17.92-9.74-27.98-11.59v-13.26c0-1.67-1.35-3.02-3.02-3.02
				h-20.55c-1.67,0-3.02,1.35-3.02,3.02v13.26c-10.06,1.84-19.56,5.78-27.98,11.59l-9.38-9.38c-1.18-1.18-3.09-1.18-4.27,0
				l-14.53,14.53c-1.18,1.18-1.18,3.09,0,4.27l9.38,9.38c-5.81,8.42-9.74,17.92-11.59,27.98h-13.26c-1.67,0-3.02,1.35-3.02,3.02
				v20.55c0,1.67,1.35,3.02,3.02,3.02h13.26c1.84,10.06,5.78,19.56,11.59,27.98l-9.38,9.38c-1.18,1.18-1.18,3.09,0,4.27l14.53,14.53
				c1.18,1.18,3.09,1.18,4.27,0l9.38-9.38c8.42,5.81,17.92,9.74,27.98,11.59v13.26c0,1.67,1.35,3.02,3.02,3.02h20.55
				c1.67,0,3.02-1.35,3.02-3.02v-13.26c10.06-1.84,19.56-5.78,27.98-11.59l9.38,9.38c1.18,1.18,3.09,1.18,4.27,0l14.53-14.53
				c1.18-1.18,1.18-3.09,0-4.27l-9.38-9.38c5.81-8.42,9.74-17.92,11.59-27.98h13.26c1.67,0,3.02-1.35,3.02-3.02v-20.55
				C695.79,1651.81,694.44,1650.45,692.77,1650.45z M607.84,1696.85c-18.28,0-33.09-14.82-33.09-33.09
				c0-18.28,14.82-33.09,33.09-33.09c18.28,0,33.09,14.82,33.09,33.09S626.12,1696.85,607.84,1696.85z"/>
		</g>
		<g>
			<path class="st0" d="M2417.94,1650.55h-13.26c-1.84-10.06-5.78-19.56-11.59-27.98l9.38-9.38c1.18-1.18,1.18-3.09,0-4.27
				l-14.53-14.53c-1.18-1.18-3.09-1.18-4.27,0l-9.38,9.38c-8.42-5.81-17.92-9.74-27.98-11.59v-13.26c0-1.67-1.35-3.02-3.02-3.02
				h-20.55c-1.67,0-3.02,1.35-3.02,3.02v13.26c-10.06,1.84-19.56,5.78-27.98,11.59l-9.38-9.38c-1.18-1.18-3.09-1.18-4.27,0
				l-14.53,14.53c-1.18,1.18-1.18,3.09,0,4.27l9.38,9.38c-5.81,8.42-9.74,17.92-11.59,27.98h-13.26c-1.67,0-3.02,1.35-3.02,3.02
				v20.55c0,1.67,1.35,3.02,3.02,3.02h13.26c1.84,10.06,5.78,19.56,11.59,27.98l-9.38,9.38c-1.18,1.18-1.18,3.09,0,4.27l14.53,14.53
				c1.18,1.18,3.09,1.18,4.27,0l9.38-9.38c8.42,5.81,17.92,9.74,27.98,11.59v13.26c0,1.67,1.35,3.02,3.02,3.02h20.55
				c1.67,0,3.02-1.35,3.02-3.02v-13.26c10.06-1.84,19.56-5.78,27.98-11.59l9.38,9.38c1.18,1.18,3.09,1.18,4.27,0l14.53-14.53
				c1.18-1.18,1.18-3.09,0-4.27l-9.38-9.38c5.81-8.42,9.74-17.92,11.59-27.98h13.26c1.67,0,3.02-1.35,3.02-3.02v-20.55
				C2420.96,1651.91,2419.61,1650.55,2417.94,1650.55z M2333.02,1696.95c-18.28,0-33.09-14.82-33.09-33.09s14.82-33.09,33.09-33.09
				s33.09,14.82,33.09,33.09S2351.29,1696.95,2333.02,1696.95z"/>
		</g>
	</g>
</g>
<g>
	<g>
		<path class="st3" d="M1247,1344.79h-23.08c-3.21-17.51-10.06-34.05-20.17-48.7l16.32-16.32c2.05-2.05,2.05-5.39,0-7.44
			l-25.29-25.29c-2.05-2.05-5.39-2.05-7.44,0l-16.32,16.32c-14.65-10.11-31.19-16.96-48.7-20.17v-23.08c0-2.91-2.36-5.26-5.26-5.26
			h-35.77c-2.91,0-5.26,2.36-5.26,5.26v23.08c-17.51,3.21-34.05,10.06-48.7,20.17l-16.32-16.32c-2.05-2.05-5.39-2.05-7.44,0
			l-25.29,25.29c-2.05,2.05-2.05,5.39,0,7.44l16.32,16.32c-10.11,14.65-16.96,31.19-20.17,48.7h-23.08c-2.91,0-5.26,2.36-5.26,5.26
			v35.77c0,2.91,2.36,5.26,5.26,5.26h23.08c3.21,17.51,10.06,34.05,20.17,48.7l-16.32,16.32c-2.05,2.05-2.05,5.39,0,7.44
			l25.29,25.29c2.05,2.05,5.39,2.05,7.44,0l16.32-16.32c14.65,10.11,31.19,16.96,48.7,20.17v23.08c0,2.91,2.36,5.26,5.26,5.26h35.77
			c2.91,0,5.26-2.36,5.26-5.26v-23.08c17.51-3.21,34.05-10.06,48.7-20.17l16.32,16.32c2.05,2.05,5.39,2.05,7.44,0l25.29-25.29
			c2.05-2.05,2.05-5.39,0-7.44l-16.32-16.32c10.11-14.65,16.96-31.19,20.17-48.7H1247c2.91,0,5.26-2.36,5.26-5.26v-35.77
			C1252.26,1347.15,1249.91,1344.79,1247,1344.79z M1099.16,1425.55c-31.82,0-57.61-25.79-57.61-57.61s25.79-57.61,57.61-57.61
			c31.82,0,57.61,25.79,57.61,57.61S1130.98,1425.55,1099.16,1425.55z"/>
	</g>
	<g>
		<path class="st3" d="M1427.44,1293.64h-14c-1.95-10.62-6.1-20.65-12.23-29.53l9.9-9.9c1.25-1.25,1.25-3.27,0-4.51l-15.34-15.34
			c-1.25-1.25-3.27-1.25-4.51,0l-9.9,9.9c-8.89-6.13-18.91-10.29-29.53-12.23v-14c0-1.76-1.43-3.19-3.19-3.19h-21.69
			c-1.76,0-3.19,1.43-3.19,3.19v14c-10.62,1.95-20.65,6.1-29.53,12.23l-9.9-9.9c-1.25-1.25-3.27-1.25-4.51,0l-15.34,15.34
			c-1.25,1.25-1.25,3.27,0,4.51l9.9,9.9c-6.13,8.89-10.29,18.91-12.23,29.53h-14c-1.76,0-3.19,1.43-3.19,3.19v21.69
			c0,1.76,1.43,3.19,3.19,3.19h14c1.95,10.62,6.1,20.65,12.23,29.53l-9.9,9.9c-1.25,1.25-1.25,3.27,0,4.51l15.34,15.34
			c1.25,1.25,3.27,1.25,4.51,0l9.9-9.9c8.89,6.13,18.91,10.29,29.53,12.23v14c0,1.76,1.43,3.19,3.19,3.19h21.69
			c1.76,0,3.19-1.43,3.19-3.19v-14c10.62-1.95,20.65-6.1,29.53-12.23l9.9,9.9c1.25,1.25,3.27,1.25,4.51,0l15.34-15.34
			c1.25-1.25,1.25-3.27,0-4.51l-9.9-9.9c6.13-8.89,10.29-18.91,12.23-29.53h14c1.76,0,3.19-1.43,3.19-3.19v-21.69
			C1430.63,1295.06,1429.2,1293.64,1427.44,1293.64z M1337.79,1342.61c-19.29,0-34.93-15.64-34.93-34.93s15.64-34.93,34.93-34.93
			c19.29,0,34.93,15.64,34.93,34.93S1357.08,1342.61,1337.79,1342.61z"/>
	</g>
	<g>
		<path class="st3" d="M1298.39,1166.89h-9.35c-1.3-7.1-4.08-13.8-8.18-19.74l6.61-6.61c0.83-0.83,0.83-2.18,0-3.02l-10.25-10.25
			c-0.83-0.83-2.18-0.83-3.02,0l-6.61,6.61c-5.94-4.1-12.64-6.87-19.74-8.18v-9.35c0-1.18-0.95-2.13-2.13-2.13h-14.5
			c-1.18,0-2.13,0.95-2.13,2.13v9.35c-7.1,1.3-13.8,4.08-19.74,8.18l-6.61-6.61c-0.83-0.83-2.18-0.83-3.02,0l-10.25,10.25
			c-0.83,0.83-0.83,2.18,0,3.02l6.61,6.61c-4.1,5.94-6.87,12.64-8.18,19.74h-9.35c-1.18,0-2.13,0.95-2.13,2.13v14.5
			c0,1.18,0.95,2.13,2.13,2.13h9.35c1.3,7.1,4.08,13.8,8.18,19.74l-6.61,6.61c-0.83,0.83-0.83,2.18,0,3.02l10.25,10.25
			c0.83,0.83,2.18,0.83,3.02,0l6.61-6.61c5.94,4.1,12.64,6.87,19.74,8.18v9.35c0,1.18,0.95,2.13,2.13,2.13h14.5
			c1.18,0,2.13-0.95,2.13-2.13v-9.35c7.1-1.3,13.8-4.08,19.74-8.18l6.61,6.61c0.83,0.83,2.18,0.83,3.02,0l10.25-10.25
			c0.83-0.83,0.83-2.18,0-3.02l-6.61-6.61c4.1-5.94,6.87-12.64,8.18-19.74h9.35c1.18,0,2.13-0.95,2.13-2.13v-14.5
			C1300.53,1167.84,1299.57,1166.89,1298.39,1166.89z M1238.48,1199.61c-12.89,0-23.35-10.45-23.35-23.35
			c0-12.89,10.45-23.35,23.35-23.35c12.89,0,23.35,10.45,23.35,23.35C1261.83,1189.16,1251.37,1199.61,1238.48,1199.61z"/>
	</g>
</g>
<g>
	<g>
		<g>
			
				<rect x="1968.9" y="343.81" transform="matrix(-1.836970e-16 1 -1 -1.836970e-16 2503.2554 -1625.0865)" class="st3" width="190.55" height="190.55"/>
			<rect x="1986.35" y="361.26" class="st1" width="155.65" height="155.65"/>
		</g>
		<g>
			
				<rect x="2180.75" y="320.43" transform="matrix(-1.836970e-16 1 -1 -1.836970e-16 2609.6975 -1860.318)" class="st3" width="108.52" height="108.52"/>
			<rect x="2190.69" y="330.37" class="st1" width="88.64" height="88.64"/>
		</g>
		<g>
			
				<rect x="2180.75" y="454.03" transform="matrix(-1.836970e-16 1 -1 -1.836970e-16 2743.2959 -1726.7196)" class="st3" width="108.52" height="108.52"/>
			<rect x="2190.69" y="463.97" class="st1" width="88.64" height="88.64"/>
		</g>
	</g>
	<rect x="2040.98" y="412.7" class="st2" width="46.38" height="46.38"/>
	<rect x="2211.82" y="351.5" class="st2" width="46.38" height="46.38"/>
	<rect x="2211.82" y="485.1" class="st2" width="46.38" height="46.38"/>
</g>
<g>
	<g>
		<defs>
			<path id="XMLID_453_" d="M1489.98,669.24c0,0-32.88-29.37-40.64-26.63c-7.76,2.74-33.09,15.14-33.09,29.1
				c0,6.39,11.41,35.08,23.73,38.76c12.32,3.68,39.71-4.07,39.71-4.07L1489.98,669.24z"/>
		</defs>
		<use xlink:href="#XMLID_453_"  style="overflow:visible;fill:#FFD1C1;"/>
		<clipPath id="XMLID_00000124130131167717852870000006088325757971226268_">
			<use xlink:href="#XMLID_453_"  style="overflow:visible;"/>
		</clipPath>
		<path style="clip-path:url(#XMLID_00000124130131167717852870000006088325757971226268_);fill:#FFB2A0;" d="M1461.01,710.58
			c0,0-17.08-25-22.28-25.5c-5.2-0.5-2.23,11.64,1.73,15.6c3.96,3.96,16.34,12.63,16.34,12.63L1461.01,710.58"/>
	</g>
	<g>
		<g>
			<defs>
				<path id="XMLID_452_" d="M2110.03,890.02c0,0,3.48,33.73,6.02,36.83c2.54,3.1,27.22,13.24,33.61,10.14
					c6.39-3.1,21.89-29.3,21.04-34.09c-0.85-4.79-28.06-29.64-28.06-29.64L2110.03,890.02z"/>
			</defs>
			<use xlink:href="#XMLID_452_"  style="overflow:visible;fill:#FFD1C1;"/>
			<clipPath id="XMLID_00000023999541108761799480000001281000280342445463_">
				<use xlink:href="#XMLID_452_"  style="overflow:visible;"/>
			</clipPath>
			<path style="clip-path:url(#XMLID_00000023999541108761799480000001281000280342445463_);fill:#FFB2A0;" d="M2112.25,921.06
				c0,0,1.46-15.11,6.09-18.28s38.23-14.72,38.23-14.72l3.21,12.77l-28.28,35.59C2131.5,936.41,2114.2,933,2112.25,921.06z"/>
		</g>
		<g>
			<path class="st6" d="M2136.96,962.21l-19.82-19.82c-2.62-2.62-4.06-6.1-4.06-9.81c0-3.7,1.44-7.19,4.06-9.81l37.08-37.07
				c2.62-2.62,6.1-4.06,9.81-4.06s7.19,1.44,9.81,4.06l19.82,19.82L2136.96,962.21z M2164.03,888.28c-1.93,0-3.75,0.75-5.12,2.12
				l-37.08,37.07c-1.37,1.37-2.12,3.18-2.12,5.11c0,1.93,0.75,3.75,2.12,5.12l15.12,15.12l47.3-47.3l-15.12-15.12
				C2167.78,889.03,2165.96,888.28,2164.03,888.28z"/>
			<g>
				<defs>
					<path id="XMLID_451_" d="M2185.66,1117.76l-100.48-100.47c-5.39-5.39-5.39-14.12,0-19.51l144.04-144.04
						c5.39-5.39,14.12-5.39,19.51,0l100.47,100.48c5.39,5.39,5.39,14.12,0,19.51l-144.04,144.04
						C2199.78,1123.15,2191.05,1123.15,2185.66,1117.76z"/>
				</defs>
				<use xlink:href="#XMLID_451_"  style="overflow:visible;fill:#FFC967;"/>
				<clipPath id="XMLID_00000093864781208789406100000003470140168306271639_">
					<use xlink:href="#XMLID_451_"  style="overflow:visible;"/>
				</clipPath>
				<path style="opacity:0.55;clip-path:url(#XMLID_00000093864781208789406100000003470140168306271639_);fill:#FFA648;" d="
					M2073.55,1009.41l45.95,6.03c7.81,1.03,15.65-1.64,21.22-7.21l100.85-100.85c5.54-5.54,8.21-13.34,7.22-21.11l-5.87-46.24
					L2073.55,1009.41z"/>
			</g>
			<path class="st6" d="M2205.42,955.78l-18.2,18.2c-1.7,1.7-4.47,1.7-6.17,0l-7.07-7.07c-1.7-1.7-1.7-4.47,0-6.17l18.2-18.2
				c1.7-1.7,4.47-1.7,6.17,0l7.07,7.07C2207.13,951.32,2207.13,954.08,2205.42,955.78z"/>
		</g>
		<path class="st8" d="M2157.34,892.54c-1.95-0.24-33.33,14.21-35.59,23.4c-2.26,9.19,7.29,17.52,9.72,18.33
			c2.43,0.81,30.74-20.28,32.69-24.18C2166.12,906.19,2157.34,892.54,2157.34,892.54z"/>
	</g>
	<g>
		<g>
			<g>
				<defs>
					<path id="XMLID_455_" d="M2274.42,1114.98l21.17-6.24l25.66,84.54c4.36,14.35,17.04,24.59,31.99,25.82l0,0l16.33-198.15
						l-88.42,12.32L2274.42,1114.98z"/>
				</defs>
				<use xlink:href="#XMLID_455_"  style="overflow:visible;fill:#4F5285;"/>
				<clipPath id="XMLID_00000088095340886673549300000007852808161003947658_">
					<use xlink:href="#XMLID_455_"  style="overflow:visible;"/>
				</clipPath>
			</g>
			<circle class="st6" cx="2327.89" cy="1062.5" r="16.54"/>
			<path class="st6" d="M2298.69,1118.93l14.07-5.57c3.1-1.23,6.59,0.38,7.67,3.53l0,0c0.98,2.87-0.4,6.02-3.19,7.24l-14.99,6.54
				L2298.69,1118.93z"/>
			<path class="st6" d="M2304.99,1139.57l14.07-5.57c3.1-1.23,6.59,0.38,7.67,3.53l0,0c0.98,2.87-0.4,6.02-3.19,7.24l-14.99,6.54
				L2304.99,1139.57z"/>
			<path class="st6" d="M2312.06,1162.89l14.07-5.57c3.1-1.23,6.59,0.38,7.67,3.53l0,0c0.98,2.87-0.4,6.02-3.19,7.24l-14.99,6.54
				L2312.06,1162.89z"/>
			
				<rect x="2269.35" y="1113.26" transform="matrix(0.0821 -0.9966 0.9966 0.0821 1057.3408 3389.3469)" class="st6" width="198.82" height="14.76"/>
		</g>
		<g>
			<g>
				<defs>
					<path id="XMLID_454_" d="M1806.18,1441.27l7.95,20.59l-82.15,32.52c-13.95,5.52-23.11,19-23.11,34v0l198.82,0l-19.54-87.11
						L1806.18,1441.27z"/>
				</defs>
				<use xlink:href="#XMLID_454_"  style="overflow:visible;fill:#4F5285;"/>
				<clipPath id="XMLID_00000137827204105609549730000000671045991687124149_">
					<use xlink:href="#XMLID_454_"  style="overflow:visible;"/>
				</clipPath>
			</g>
			
				<ellipse transform="matrix(0.9239 -0.3827 0.3827 0.9239 -428.4904 826.3257)" class="st6" cx="1862.87" cy="1490.25" rx="16.54" ry="16.54"/>
			<path class="st6" d="M1804.23,1465.78l6.71,13.56c1.48,2.98,0.16,6.6-2.89,7.93l0,0c-2.78,1.22-6.04,0.09-7.47-2.58l-7.74-14.4
				L1804.23,1465.78z"/>
			<path class="st6" d="M1784.18,1473.75l6.71,13.56c1.48,2.98,0.16,6.6-2.89,7.93l0,0c-2.78,1.22-6.04,0.09-7.47-2.58l-7.74-14.4
				L1784.18,1473.75z"/>
			<path class="st6" d="M1761.51,1482.71l6.71,13.56c1.48,2.98,0.16,6.6-2.89,7.93l0,0c-2.78,1.22-6.04,0.09-7.47-2.58l-7.74-14.4
				L1761.51,1482.71z"/>
			<rect x="1708.87" y="1528.38" class="st6" width="198.82" height="14.76"/>
		</g>
		<g>
			<defs>
				<path id="XMLID_450_" d="M2055.84,1058.53l-9.31-173.1c-0.6-11.25-3.16-21.9-7.3-31.66l-201.44,19.56l-95.68,249.9
					c-10.01,21.95-13.25,46.39-9.3,70.19l42.98,258.8h153.87l-52.46-263.89c-1.04-5.24-0.66-10.66,1.11-15.7l41.85-119.32
					l18.7,55.52c10.17,30.18,34.07,53.72,64.4,63.43l0,0c13.12,4.2,26.97,5.65,40.68,4.25l247.55-25.21l11.59-140.57
					L2055.84,1058.53z"/>
			</defs>
			<use xlink:href="#XMLID_450_"  style="overflow:visible;fill:#373660;"/>
			<clipPath id="XMLID_00000085250933172486700450000000478750823675859897_">
				<use xlink:href="#XMLID_450_"  style="overflow:visible;"/>
			</clipPath>
			<path style="clip-path:url(#XMLID_00000085250933172486700450000000478750823675859897_);fill:#4F5285;" d="M2040.25,1120.66
				c-8.48,0-16.81-2.53-23.9-7.34c-9.57-6.49-16.16-16.75-18.09-28.15l-33.64-199.04l4.27-0.72l33.64,199.04
				c1.73,10.24,7.65,19.46,16.25,25.28c7.66,5.19,16.93,7.44,26.11,6.31l257.92-31.53l0.53,4.3l-257.92,31.53
				C2043.69,1120.55,2041.97,1120.66,2040.25,1120.66z"/>
			<path style="clip-path:url(#XMLID_00000085250933172486700450000000478750823675859897_);fill:#4F5285;" d="M1844.2,1452.59
				l-41.69-246.99c-1.65-9.77-2.49-19.76-2.49-29.67c0-25.34,5.26-49.9,15.64-73.02l96.93-215.93l3.95,1.77l-96.93,215.93
				c-10.12,22.55-15.26,46.52-15.26,71.24c0,9.67,0.82,19.41,2.43,28.95l41.69,246.99L1844.2,1452.59z"/>
		</g>
	</g>
	
		<rect x="1906.16" y="926.48" transform="matrix(0.9828 -0.1849 0.1849 0.9828 -150.2351 369.943)" class="st10" width="4.33" height="127.94"/>
	<g>
		<path class="st11" d="M1817.46,696.76l184.3,25.51l96.48,173.81l51.42-26.42l-66.51-189.62c-4.3-12.25-11.16-23.45-20.13-32.84
			l0,0c-11.24-11.76-25.43-20.31-41.08-24.75l-165.1-46.8L1817.46,696.76z"/>
		<path class="st12" d="M2124.35,883.96c-0.51,0-1-0.31-1.2-0.81l-0.67-1.65c-0.27-0.66,0.05-1.42,0.71-1.69
			c0.66-0.27,1.42,0.05,1.69,0.71l0.67,1.65c0.27,0.66-0.05,1.42-0.71,1.69C2124.68,883.93,2124.51,883.96,2124.35,883.96z
			 M2122.05,878.31c-0.51,0-1-0.31-1.2-0.81l-1.63-4.01c-0.27-0.66,0.05-1.42,0.71-1.69c0.67-0.27,1.42,0.05,1.69,0.71l1.63,4.01
			c0.27,0.66-0.05,1.42-0.71,1.69C2122.38,878.27,2122.21,878.31,2122.05,878.31z M2118.78,870.28c-0.51,0-1-0.31-1.2-0.81
			l-1.63-4.01c-0.27-0.66,0.05-1.42,0.71-1.69c0.67-0.27,1.42,0.05,1.69,0.71l1.63,4.01c0.27,0.66-0.05,1.42-0.71,1.69
			C2119.11,870.25,2118.95,870.28,2118.78,870.28z M2115.52,862.26c-0.51,0-1-0.31-1.2-0.81l-1.63-4.01
			c-0.27-0.66,0.05-1.42,0.71-1.69c0.67-0.27,1.42,0.05,1.69,0.71l1.63,4.01c0.27,0.66-0.05,1.42-0.71,1.69
			C2115.85,862.23,2115.68,862.26,2115.52,862.26z M2112.25,854.24c-0.51,0-1-0.31-1.2-0.81l-1.63-4.01
			c-0.27-0.66,0.05-1.42,0.71-1.69c0.67-0.27,1.42,0.05,1.69,0.71l1.63,4.01c0.27,0.66-0.05,1.42-0.71,1.69
			C2112.58,854.21,2112.42,854.24,2112.25,854.24z M2108.99,846.22c-0.51,0-1-0.31-1.2-0.81l-1.63-4.01
			c-0.27-0.66,0.05-1.42,0.71-1.69c0.67-0.27,1.42,0.05,1.69,0.71l1.63,4.01c0.27,0.66-0.05,1.42-0.71,1.69
			C2109.32,846.19,2109.15,846.22,2108.99,846.22z M2105.72,838.2c-0.51,0-1-0.31-1.2-0.81l-1.63-4.01
			c-0.27-0.66,0.05-1.42,0.71-1.69c0.67-0.27,1.42,0.05,1.69,0.71l1.63,4.01c0.27,0.66-0.05,1.42-0.71,1.69
			C2106.05,838.17,2105.89,838.2,2105.72,838.2z M2102.46,830.18c-0.51,0-1-0.31-1.2-0.81l-1.63-4.01
			c-0.27-0.66,0.05-1.42,0.71-1.69c0.67-0.27,1.42,0.05,1.69,0.71l1.63,4.01c0.27,0.66-0.05,1.42-0.71,1.69
			C2102.79,830.15,2102.62,830.18,2102.46,830.18z M2099.19,822.15c-0.51,0-1-0.31-1.2-0.81l-1.63-4.01
			c-0.27-0.66,0.05-1.42,0.71-1.69c0.67-0.27,1.42,0.05,1.69,0.71l1.63,4.01c0.27,0.66-0.05,1.42-0.71,1.69
			C2099.52,822.12,2099.35,822.15,2099.19,822.15z M2095.93,814.13c-0.51,0-1-0.31-1.2-0.81l-1.63-4.01
			c-0.27-0.66,0.05-1.42,0.71-1.69c0.67-0.27,1.42,0.05,1.69,0.71l1.63,4.01c0.27,0.66-0.05,1.42-0.71,1.69
			C2096.26,814.1,2096.09,814.13,2095.93,814.13z M2092.66,806.11c-0.51,0-1-0.31-1.2-0.81l-1.63-4.01
			c-0.27-0.66,0.05-1.42,0.71-1.69c0.67-0.27,1.42,0.05,1.69,0.71l1.63,4.01c0.27,0.66-0.05,1.42-0.71,1.69
			C2092.99,806.08,2092.82,806.11,2092.66,806.11z M2089.4,798.09c-0.51,0-1-0.31-1.2-0.81l-1.63-4.01
			c-0.27-0.66,0.05-1.42,0.71-1.69c0.66-0.27,1.42,0.05,1.69,0.71l1.63,4.01c0.27,0.66-0.05,1.42-0.71,1.69
			C2089.72,798.06,2089.56,798.09,2089.4,798.09z M2086.13,790.07c-0.51,0-1-0.31-1.2-0.81l-1.63-4.01
			c-0.27-0.66,0.05-1.42,0.71-1.69c0.67-0.27,1.42,0.05,1.69,0.71l1.63,4.01c0.27,0.66-0.05,1.42-0.71,1.69
			C2086.46,790.04,2086.29,790.07,2086.13,790.07z M2082.87,782.05c-0.51,0-1-0.31-1.2-0.81l-1.63-4.01
			c-0.27-0.66,0.05-1.42,0.71-1.69c0.67-0.27,1.42,0.05,1.69,0.71l1.63,4.01c0.27,0.66-0.05,1.42-0.71,1.69
			C2083.19,782.02,2083.03,782.05,2082.87,782.05z M2079.6,774.02c-0.51,0-1-0.31-1.2-0.81l-1.63-4.01
			c-0.27-0.66,0.05-1.42,0.71-1.69c0.67-0.27,1.42,0.05,1.69,0.71l1.63,4.01c0.27,0.66-0.05,1.42-0.71,1.69
			C2079.93,773.99,2079.76,774.02,2079.6,774.02z M2076.33,766c-0.51,0-1-0.31-1.2-0.81l-1.63-4.01c-0.27-0.66,0.05-1.42,0.71-1.69
			c0.67-0.27,1.42,0.05,1.69,0.71l1.63,4.01c0.27,0.66-0.05,1.42-0.71,1.69C2076.66,765.97,2076.5,766,2076.33,766z M2073.07,757.98
			c-0.51,0-1-0.31-1.2-0.81l-1.63-4.01c-0.27-0.66,0.05-1.42,0.71-1.69c0.67-0.27,1.42,0.05,1.69,0.71l1.63,4.01
			c0.27,0.66-0.05,1.42-0.71,1.69C2073.4,757.95,2073.23,757.98,2073.07,757.98z M2069.8,749.96c-0.51,0-1-0.31-1.2-0.81l-1.63-4.01
			c-0.27-0.66,0.05-1.42,0.71-1.69c0.67-0.27,1.42,0.05,1.69,0.71l1.63,4.01c0.27,0.66-0.05,1.42-0.71,1.69
			C2070.13,749.93,2069.97,749.96,2069.8,749.96z M2066.54,741.94c-0.51,0-1-0.31-1.2-0.81l-1.63-4.01
			c-0.27-0.66,0.05-1.42,0.71-1.69c0.67-0.27,1.42,0.05,1.69,0.71l1.63,4.01c0.27,0.66-0.05,1.42-0.71,1.69
			C2066.87,741.91,2066.7,741.94,2066.54,741.94z M2063.27,733.92c-0.51,0-1-0.31-1.2-0.81l-1.63-4.01
			c-0.27-0.66,0.05-1.42,0.71-1.69c0.67-0.27,1.42,0.05,1.69,0.71l1.63,4.01c0.27,0.66-0.05,1.42-0.71,1.69
			C2063.6,733.89,2063.44,733.92,2063.27,733.92z M2060.01,725.89c-0.51,0-1-0.31-1.2-0.81l-1.63-4.01
			c-0.27-0.66,0.05-1.42,0.71-1.69c0.67-0.27,1.42,0.05,1.69,0.71l1.63,4.01c0.27,0.66-0.05,1.42-0.71,1.69
			C2060.34,725.86,2060.17,725.89,2060.01,725.89z M2056.74,717.87c-0.51,0-1-0.31-1.2-0.81l-1.63-4.01
			c-0.27-0.66,0.05-1.42,0.71-1.69c0.67-0.27,1.42,0.05,1.69,0.71l1.63,4.01c0.27,0.66-0.05,1.42-0.71,1.69
			C2057.07,717.84,2056.91,717.87,2056.74,717.87z M2053.48,709.85c-0.51,0-1-0.31-1.2-0.81l-0.52-1.27
			c-0.37-0.9-0.76-1.79-1.16-2.65c-0.3-0.65-0.03-1.42,0.62-1.73c0.65-0.31,1.42-0.03,1.73,0.62c0.42,0.9,0.83,1.83,1.21,2.77
			l0.52,1.27c0.27,0.66-0.05,1.42-0.71,1.69C2053.81,709.82,2053.64,709.85,2053.48,709.85z M2049.79,702.02
			c-0.45,0-0.89-0.24-1.13-0.66c-0.69-1.22-1.44-2.43-2.22-3.6c-0.4-0.6-0.24-1.4,0.35-1.8c0.59-0.4,1.4-0.24,1.8,0.35
			c0.82,1.22,1.6,2.49,2.33,3.77c0.35,0.62,0.13,1.42-0.49,1.77C2050.22,701.97,2050,702.02,2049.79,702.02z M2044.96,694.84
			c-0.38,0-0.76-0.17-1.02-0.49c-0.33-0.42-0.67-0.84-1.01-1.25c-0.56-0.67-1.14-1.33-1.73-1.97c-0.49-0.53-0.45-1.35,0.08-1.84
			c0.52-0.48,1.35-0.45,1.83,0.08c0.62,0.67,1.22,1.36,1.81,2.06c0.36,0.43,0.71,0.87,1.06,1.31c0.44,0.56,0.35,1.38-0.21,1.82
			C2045.53,694.75,2045.24,694.84,2044.96,694.84z M2039.1,688.48c-0.32,0-0.64-0.12-0.89-0.35c-1.03-0.96-2.1-1.88-3.2-2.76
			c-0.56-0.45-0.65-1.26-0.21-1.83c0.45-0.56,1.27-0.65,1.83-0.21c1.15,0.92,2.28,1.89,3.35,2.89c0.52,0.49,0.55,1.31,0.06,1.84
			C2039.79,688.34,2039.45,688.48,2039.1,688.48z M2032.33,683.08c-0.25,0-0.51-0.07-0.73-0.23c-1.16-0.79-2.36-1.54-3.59-2.24
			c-0.62-0.36-0.84-1.15-0.48-1.77c0.36-0.62,1.15-0.84,1.77-0.48c1.28,0.73,2.54,1.52,3.75,2.35c0.59,0.4,0.75,1.21,0.34,1.81
			C2033.16,682.88,2032.75,683.08,2032.33,683.08z M2024.83,678.78c-0.19,0-0.38-0.04-0.56-0.13c-1.27-0.6-2.58-1.17-3.89-1.67
			c-0.67-0.26-1-1.01-0.74-1.68c0.26-0.67,1.01-1,1.68-0.74c1.37,0.53,2.74,1.12,4.07,1.75c0.65,0.31,0.92,1.08,0.61,1.73
			C2025.78,678.51,2025.32,678.78,2024.83,678.78z M2016.76,675.67c-0.12,0-0.25-0.02-0.37-0.06c-1.32-0.39-2.66-0.74-3.99-1.04
			l-0.18-0.05c-0.69-0.2-1.09-0.92-0.89-1.61c0.2-0.69,0.92-1.09,1.61-0.89l0.1,0.03c1.32,0.29,2.73,0.65,4.1,1.07
			c0.69,0.21,1.08,0.93,0.87,1.62C2017.83,675.31,2017.32,675.67,2016.76,675.67z M2008.41,673.38c-0.12,0-0.24-0.02-0.36-0.05
			l-4.16-1.2c-0.69-0.2-1.09-0.92-0.89-1.61c0.2-0.69,0.92-1.09,1.61-0.89l4.16,1.2c0.69,0.2,1.09,0.92,0.89,1.61
			C2009.49,673.01,2008.97,673.38,2008.41,673.38z M2000.08,670.98c-0.12,0-0.24-0.02-0.36-0.05l-4.16-1.2
			c-0.69-0.2-1.09-0.92-0.89-1.61c0.2-0.69,0.92-1.09,1.61-0.89l4.16,1.2c0.69,0.2,1.09,0.92,0.89,1.61
			C2001.17,670.61,2000.65,670.98,2000.08,670.98z M1991.76,668.59c-0.12,0-0.24-0.02-0.36-0.05l-4.16-1.2
			c-0.69-0.2-1.09-0.92-0.89-1.61c0.2-0.69,0.92-1.09,1.61-0.89l4.16,1.2c0.69,0.2,1.09,0.92,0.89,1.61
			C1992.84,668.22,1992.32,668.59,1991.76,668.59z M1983.44,666.19c-0.12,0-0.24-0.02-0.36-0.05l-4.16-1.2
			c-0.69-0.2-1.09-0.92-0.89-1.61c0.2-0.69,0.92-1.09,1.61-0.89l4.16,1.2c0.69,0.2,1.09,0.92,0.89,1.61
			C1984.52,665.82,1984,666.19,1983.44,666.19z M1975.11,663.8c-0.12,0-0.24-0.02-0.36-0.05l-4.16-1.2
			c-0.69-0.2-1.09-0.92-0.89-1.61c0.2-0.69,0.92-1.09,1.61-0.89l4.16,1.2c0.69,0.2,1.09,0.92,0.89,1.61
			C1976.2,663.43,1975.68,663.8,1975.11,663.8z M1966.79,661.4c-0.12,0-0.24-0.02-0.36-0.05l-4.16-1.2
			c-0.69-0.2-1.09-0.92-0.89-1.61c0.2-0.69,0.92-1.09,1.61-0.89l4.16,1.2c0.69,0.2,1.09,0.92,0.89,1.61
			C1967.88,661.03,1967.36,661.4,1966.79,661.4z M1958.47,659.01c-0.12,0-0.24-0.02-0.36-0.05l-4.16-1.2
			c-0.69-0.2-1.09-0.92-0.89-1.61c0.2-0.69,0.92-1.09,1.61-0.89l4.16,1.2c0.69,0.2,1.09,0.92,0.89,1.61
			C1959.55,658.64,1959.03,659.01,1958.47,659.01z M1950.14,656.61c-0.12,0-0.24-0.02-0.36-0.05l-4.16-1.2
			c-0.69-0.2-1.09-0.92-0.89-1.61c0.2-0.69,0.92-1.09,1.61-0.89l4.16,1.2c0.69,0.2,1.09,0.92,0.89,1.61
			C1951.23,656.24,1950.71,656.61,1950.14,656.61z"/>
		<g>
			<path class="st6" d="M1773.7,449.99c0,0-22.84-11.78-36.58,7.95c-13.74,19.73,2.88,58.18,2.88,58.18l-0.87-28.66
				c0,0-2.76,32.86,24.89,39.02L1773.7,449.99z"/>
			<g>
				<g>
					<g>
						<defs>
							<path id="XMLID_434_" d="M1792.92,445.93c22.89-2.86,45.05,23.69,49.49,59.29l3.91,31.33c0.63,5.01,1.43,10,2.42,14.94
								c2.45,12.29,6.84,24.12,12.71,35.2v0l-46.45,36.14l-5.99-47.96c-22.89,2.86-45.05-23.69-49.5-59.29
								C1755.09,479.96,1770.04,448.78,1792.92,445.93z"/>
						</defs>
						<use xlink:href="#XMLID_434_"  style="overflow:visible;fill:#FFD1C1;"/>
						<clipPath id="XMLID_00000157307103396074271810000004400480601539843216_">
							<use xlink:href="#XMLID_434_"  style="overflow:visible;"/>
						</clipPath>
						<path style="clip-path:url(#XMLID_00000157307103396074271810000004400480601539843216_);fill:#FFB2A0;" d="M1749.75,502.28
							c0,0,19.24,25.19,64.02,9.96c44.78-15.23,0,0,0,0l-51.82-43.13L1749.75,502.28z"/>
						<path style="clip-path:url(#XMLID_00000157307103396074271810000004400480601539843216_);fill:#FFB2A0;" d="M1809.03,574.86
							l14.08-12.14c0,0,1.21,21.17-12.16,27.51c-13.37,6.34,0,0,0,0L1809.03,574.86"/>
					</g>
				</g>
			</g>
			<path class="st6" d="M1761.6,480.48c0,0,14.3,30.19,52.16,31.75c0,0-7.9-14.98-0.44-19.06c7.46-4.07,16.27,7.8,16.85,13.5
				c0.29,2.85-1.2,6.62-2.77,9.68c-1.68,3.29-0.9,7.31,1.95,9.66l17.51,14.47c0,0,11.94-42.79,10.67-69.79
				c-1.27-26.99-49.15-45.7-69.8-40.6C1767.09,435.21,1754.26,469.89,1761.6,480.48z"/>
		</g>
		<g>
			<defs>
				<path id="XMLID_435_" d="M1815.5,896.08l245.06-22.79c0,0-62.71-177.71-203.36-299.4l-74.2,56.49L1815.5,896.08z"/>
			</defs>
			<use xlink:href="#XMLID_435_"  style="overflow:visible;fill:#FFC967;"/>
			<clipPath id="XMLID_00000111887033914197244960000018429417880494780825_">
				<use xlink:href="#XMLID_435_"  style="overflow:visible;"/>
			</clipPath>
		</g>
		<path class="st11" d="M1825.34,598.36l-133.51,100.98l-204.57-35.68l-16.42,55.43l177.61,80.45
			c15.41,6.98,32.13,10.59,49.05,10.59l0,0c23.05,0,45.59-6.7,64.9-19.28l59.56-38.82c36.03-23.48,48.07-70.66,27.68-108.53
			L1825.34,598.36z"/>
		<path class="st12" d="M1799.4,766.99l51.82-33.2c0,0-2.13,33.04-45.52,82.23L1799.4,766.99z"/>
		<path class="st6" d="M1812.4,608.15l-1.19-6.06c-1.36-6.93,1.94-13.94,8.15-17.31l33.34-18.06l4.51,7.16L1812.4,608.15z"/>
		<g>
			<path class="st12" d="M1482.58,694.55c-0.13,0-0.27-0.02-0.4-0.06l-2.06-0.67c-0.68-0.22-1.06-0.95-0.83-1.64
				c0.22-0.68,0.95-1.06,1.64-0.83l2.06,0.67c0.68,0.22,1.06,0.96,0.83,1.64C1483.64,694.2,1483.13,694.55,1482.58,694.55z"/>
			<path class="st12" d="M1688.23,758.31c-0.01,0-0.01,0-0.02,0c-1.46-0.02-2.94-0.09-4.39-0.2c-0.72-0.06-1.25-0.68-1.19-1.4
				c0.06-0.71,0.67-1.24,1.4-1.19c1.4,0.11,2.82,0.17,4.22,0.19c0.72,0.01,1.29,0.6,1.28,1.32
				C1689.52,757.74,1688.94,758.31,1688.23,758.31z M1692.54,758.23c-0.69,0-1.26-0.54-1.3-1.23c-0.04-0.72,0.52-1.33,1.23-1.36
				c1.4-0.07,2.82-0.19,4.21-0.35c0.71-0.09,1.36,0.43,1.44,1.14c0.08,0.71-0.43,1.36-1.14,1.44c-1.45,0.17-2.92,0.29-4.38,0.36
				C1692.58,758.23,1692.56,758.23,1692.54,758.23z M1679.64,757.64c-0.06,0-0.12,0-0.19-0.01c-1.45-0.21-2.91-0.46-4.33-0.76
				c-0.7-0.15-1.15-0.83-1.01-1.54c0.15-0.7,0.83-1.15,1.54-1.01c1.37,0.29,2.77,0.53,4.17,0.73c0.71,0.1,1.2,0.76,1.1,1.47
				C1680.83,757.18,1680.27,757.64,1679.64,757.64z M1701.1,757.25c-0.62,0-1.16-0.44-1.28-1.07c-0.13-0.71,0.34-1.38,1.05-1.51
				c0.81-0.15,1.62-0.31,2.43-0.49c0.57-0.12,1.14-0.26,1.7-0.4c0.7-0.17,1.4,0.25,1.57,0.95c0.17,0.7-0.25,1.4-0.95,1.57
				c-0.59,0.15-1.18,0.28-1.77,0.41c-0.84,0.18-1.68,0.35-2.53,0.5C1701.25,757.24,1701.17,757.25,1701.1,757.25z M1671.2,755.88
				c-0.12,0-0.23-0.02-0.35-0.05c-0.99-0.27-1.99-0.57-2.98-0.9l-1.2-0.39c-0.68-0.22-1.05-0.96-0.83-1.64
				c0.22-0.68,0.95-1.05,1.64-0.83l1.2,0.39c0.95,0.31,1.91,0.6,2.86,0.86c0.69,0.19,1.1,0.91,0.91,1.6
				C1672.29,755.51,1671.77,755.88,1671.2,755.88z M1709.46,755.18c-0.55,0-1.06-0.35-1.24-0.91c-0.22-0.68,0.16-1.41,0.85-1.63
				c1.34-0.42,2.68-0.89,3.99-1.4c0.67-0.26,1.42,0.07,1.68,0.74c0.26,0.67-0.07,1.42-0.74,1.68c-1.36,0.53-2.75,1.02-4.14,1.46
				C1709.73,755.16,1709.59,755.18,1709.46,755.18z M1662.98,753.28c-0.13,0-0.27-0.02-0.4-0.06l-4.1-1.33
				c-0.68-0.22-1.05-0.96-0.83-1.64c0.22-0.68,0.95-1.05,1.64-0.83l4.1,1.33c0.68,0.22,1.05,0.96,0.83,1.64
				C1664.04,752.93,1663.53,753.28,1662.98,753.28z M1717.5,752.07c-0.49,0-0.96-0.28-1.18-0.75c-0.3-0.65-0.02-1.42,0.63-1.73
				c1.27-0.59,2.54-1.23,3.78-1.9c0.63-0.34,1.42-0.11,1.76,0.52c0.34,0.63,0.11,1.42-0.52,1.76c-1.28,0.7-2.6,1.36-3.92,1.97
				C1717.87,752.03,1717.68,752.07,1717.5,752.07z M1654.78,750.61c-0.13,0-0.27-0.02-0.4-0.06l-4.1-1.34
				c-0.68-0.22-1.05-0.96-0.83-1.64c0.22-0.68,0.95-1.05,1.64-0.83l4.1,1.34c0.68,0.22,1.05,0.95,0.83,1.64
				C1655.84,750.26,1655.33,750.61,1654.78,750.61z M1725.07,747.95c-0.43,0-0.85-0.21-1.1-0.61c-0.38-0.61-0.2-1.41,0.41-1.79
				c1.19-0.75,2.37-1.54,3.5-2.37c0.58-0.42,1.39-0.29,1.81,0.29c0.42,0.58,0.29,1.39-0.29,1.81c-1.18,0.85-2.41,1.68-3.64,2.46
				C1725.55,747.89,1725.31,747.95,1725.07,747.95z M1646.58,747.94c-0.13,0-0.27-0.02-0.4-0.06l-4.1-1.33
				c-0.68-0.22-1.05-0.96-0.83-1.64c0.22-0.68,0.95-1.06,1.64-0.83l4.1,1.33c0.68,0.22,1.05,0.96,0.83,1.64
				C1647.64,747.59,1647.13,747.94,1646.58,747.94z M1638.38,745.27c-0.13,0-0.27-0.02-0.4-0.06l-4.1-1.33
				c-0.68-0.22-1.05-0.96-0.83-1.64c0.22-0.68,0.95-1.06,1.64-0.83l4.1,1.33c0.68,0.22,1.05,0.96,0.83,1.64
				C1639.44,744.92,1638.93,745.27,1638.38,745.27z M1732.12,743c-0.4,0-0.8-0.19-1.05-0.53c-0.42-0.58-0.3-1.39,0.28-1.82
				l3.48-2.54c0.58-0.42,1.39-0.3,1.81,0.28c0.42,0.58,0.3,1.39-0.28,1.82l-3.48,2.54C1732.66,742.91,1732.39,743,1732.12,743z
				 M1630.18,742.6c-0.13,0-0.27-0.02-0.4-0.06l-4.1-1.33c-0.68-0.22-1.05-0.96-0.83-1.64c0.22-0.68,0.95-1.06,1.64-0.83l4.1,1.33
				c0.68,0.22,1.05,0.96,0.83,1.64C1631.24,742.25,1630.73,742.6,1630.18,742.6z M1621.98,739.93c-0.13,0-0.27-0.02-0.4-0.06
				l-4.1-1.34c-0.68-0.22-1.05-0.96-0.83-1.64c0.22-0.68,0.95-1.06,1.64-0.83l4.1,1.34c0.68,0.22,1.05,0.96,0.83,1.64
				C1623.04,739.58,1622.53,739.93,1621.98,739.93z M1739.09,737.91c-0.4,0-0.8-0.19-1.05-0.53c-0.42-0.58-0.3-1.39,0.28-1.82
				l3.48-2.54c0.58-0.42,1.39-0.3,1.81,0.28c0.42,0.58,0.3,1.39-0.28,1.82l-3.48,2.54C1739.62,737.83,1739.35,737.91,1739.09,737.91
				z M1613.78,737.26c-0.13,0-0.27-0.02-0.4-0.06l-4.1-1.33c-0.68-0.22-1.05-0.96-0.83-1.64c0.22-0.68,0.95-1.06,1.64-0.83l4.1,1.33
				c0.68,0.22,1.05,0.96,0.83,1.64C1614.84,736.91,1614.33,737.26,1613.78,737.26z M1605.58,734.59c-0.13,0-0.27-0.02-0.4-0.06
				l-4.1-1.33c-0.68-0.22-1.05-0.96-0.83-1.64c0.22-0.68,0.95-1.05,1.64-0.83l4.1,1.33c0.68,0.22,1.05,0.96,0.83,1.64
				C1606.64,734.24,1606.13,734.59,1605.58,734.59z M1746.05,732.83c-0.4,0-0.8-0.19-1.05-0.53c-0.42-0.58-0.3-1.39,0.28-1.82
				l3.48-2.54c0.58-0.42,1.39-0.3,1.81,0.28c0.42,0.58,0.3,1.39-0.28,1.82l-3.48,2.54C1746.59,732.74,1746.32,732.83,1746.05,732.83
				z M1597.38,731.92c-0.13,0-0.27-0.02-0.4-0.06l-4.1-1.33c-0.68-0.22-1.05-0.96-0.83-1.64c0.22-0.68,0.95-1.06,1.64-0.83l4.1,1.33
				c0.68,0.22,1.05,0.96,0.83,1.64C1598.44,731.57,1597.93,731.92,1597.38,731.92z M1589.18,729.25c-0.13,0-0.27-0.02-0.4-0.06
				l-4.1-1.34c-0.68-0.22-1.05-0.96-0.83-1.64c0.22-0.68,0.95-1.05,1.64-0.83l4.1,1.34c0.68,0.22,1.05,0.96,0.83,1.64
				C1590.24,728.9,1589.73,729.25,1589.18,729.25z M1753.02,727.74c-0.4,0-0.8-0.18-1.05-0.53c-0.42-0.58-0.3-1.39,0.28-1.82
				l3.48-2.54c0.58-0.42,1.39-0.3,1.81,0.28c0.42,0.58,0.3,1.39-0.28,1.82l-3.48,2.54C1753.55,727.66,1753.28,727.74,1753.02,727.74
				z M1580.98,726.58c-0.13,0-0.27-0.02-0.4-0.06l-4.1-1.33c-0.68-0.22-1.05-0.96-0.83-1.64c0.22-0.68,0.95-1.06,1.64-0.83l4.1,1.33
				c0.68,0.22,1.05,0.96,0.83,1.64C1582.04,726.23,1581.53,726.58,1580.98,726.58z M1572.78,723.91c-0.13,0-0.27-0.02-0.4-0.06
				l-4.1-1.33c-0.68-0.22-1.05-0.96-0.83-1.64c0.22-0.68,0.95-1.06,1.64-0.83l4.1,1.33c0.68,0.22,1.05,0.96,0.83,1.64
				C1573.84,723.56,1573.33,723.91,1572.78,723.91z M1759.98,722.65c-0.4,0-0.8-0.19-1.05-0.53c-0.42-0.58-0.3-1.39,0.28-1.82
				l3.48-2.54c0.58-0.42,1.39-0.29,1.81,0.28c0.42,0.58,0.3,1.39-0.28,1.82l-3.48,2.54
				C1760.52,722.57,1760.25,722.65,1759.98,722.65z M1564.58,721.24c-0.13,0-0.27-0.02-0.4-0.06l-4.1-1.33
				c-0.68-0.22-1.05-0.96-0.83-1.64c0.22-0.68,0.95-1.06,1.64-0.83l4.1,1.33c0.68,0.22,1.05,0.96,0.83,1.64
				C1565.64,720.9,1565.13,721.24,1564.58,721.24z M1556.38,718.57c-0.13,0-0.27-0.02-0.4-0.06l-4.1-1.34
				c-0.68-0.22-1.05-0.96-0.83-1.64c0.22-0.68,0.95-1.06,1.64-0.83l4.1,1.34c0.68,0.22,1.05,0.96,0.83,1.64
				C1557.44,718.23,1556.93,718.57,1556.38,718.57z M1766.95,717.57c-0.4,0-0.8-0.18-1.05-0.53c-0.42-0.58-0.3-1.39,0.28-1.82
				l3.48-2.54c0.58-0.42,1.39-0.3,1.81,0.28c0.42,0.58,0.3,1.39-0.28,1.82l-3.48,2.54C1767.48,717.49,1767.21,717.57,1766.95,717.57
				z M1548.18,715.9c-0.13,0-0.27-0.02-0.4-0.06l-4.1-1.33c-0.68-0.22-1.05-0.96-0.83-1.64c0.22-0.68,0.95-1.06,1.64-0.83l4.1,1.33
				c0.68,0.22,1.05,0.96,0.83,1.64C1549.24,715.56,1548.73,715.9,1548.18,715.9z M1539.98,713.23c-0.13,0-0.27-0.02-0.4-0.06
				l-4.1-1.33c-0.68-0.22-1.05-0.96-0.83-1.64c0.22-0.68,0.95-1.05,1.64-0.83l4.1,1.33c0.68,0.22,1.05,0.96,0.83,1.64
				C1541.04,712.89,1540.53,713.23,1539.98,713.23z M1773.91,712.48c-0.4,0-0.8-0.19-1.05-0.53c-0.42-0.58-0.3-1.39,0.28-1.82
				l3.48-2.54c0.58-0.42,1.39-0.3,1.82,0.28c0.42,0.58,0.3,1.39-0.28,1.82l-3.48,2.54C1774.45,712.4,1774.18,712.48,1773.91,712.48z
				 M1531.78,710.56c-0.13,0-0.27-0.02-0.4-0.06l-4.1-1.33c-0.68-0.22-1.05-0.96-0.83-1.64c0.22-0.68,0.95-1.05,1.64-0.83l4.1,1.33
				c0.68,0.22,1.05,0.96,0.83,1.64C1532.84,710.22,1532.33,710.56,1531.78,710.56z M1523.58,707.89c-0.13,0-0.27-0.02-0.4-0.06
				l-4.1-1.34c-0.68-0.22-1.05-0.96-0.83-1.64c0.22-0.68,0.95-1.05,1.64-0.83l4.1,1.34c0.68,0.22,1.05,0.95,0.83,1.64
				C1524.64,707.55,1524.13,707.89,1523.58,707.89z M1780.88,707.4c-0.4,0-0.8-0.18-1.05-0.53c-0.42-0.58-0.3-1.39,0.28-1.82
				l3.48-2.54c0.58-0.42,1.39-0.3,1.81,0.28c0.42,0.58,0.3,1.39-0.28,1.82l-3.48,2.54C1781.41,707.32,1781.14,707.4,1780.88,707.4z
				 M1515.38,705.22c-0.13,0-0.27-0.02-0.4-0.06l-4.1-1.33c-0.68-0.22-1.05-0.96-0.83-1.64c0.22-0.68,0.95-1.06,1.64-0.83l4.1,1.33
				c0.68,0.22,1.05,0.96,0.83,1.64C1516.44,704.88,1515.93,705.22,1515.38,705.22z M1507.18,702.55c-0.13,0-0.27-0.02-0.4-0.06
				l-4.1-1.33c-0.68-0.22-1.05-0.96-0.83-1.64c0.22-0.68,0.95-1.06,1.64-0.83l4.1,1.33c0.68,0.22,1.05,0.96,0.83,1.64
				C1508.24,702.21,1507.73,702.55,1507.18,702.55z M1787.84,702.31c-0.4,0-0.8-0.19-1.05-0.53c-0.42-0.58-0.3-1.39,0.28-1.82
				l3.48-2.54c0.58-0.42,1.39-0.3,1.82,0.28c0.42,0.58,0.3,1.39-0.28,1.82l-3.48,2.54C1788.38,702.23,1788.11,702.31,1787.84,702.31
				z M1498.98,699.89c-0.13,0-0.27-0.02-0.4-0.06l-4.1-1.33c-0.68-0.22-1.06-0.96-0.83-1.64c0.22-0.68,0.95-1.06,1.64-0.83l4.1,1.33
				c0.68,0.22,1.06,0.96,0.83,1.64C1500.04,699.54,1499.53,699.89,1498.98,699.89z M1794.8,697.23c-0.4,0-0.8-0.18-1.05-0.53
				c-0.42-0.58-0.3-1.39,0.28-1.82l3.48-2.54c0.58-0.42,1.39-0.3,1.81,0.28c0.42,0.58,0.3,1.39-0.28,1.82l-3.48,2.54
				C1795.34,697.15,1795.07,697.23,1794.8,697.23z M1490.78,697.22c-0.13,0-0.27-0.02-0.4-0.06l-4.1-1.34
				c-0.68-0.22-1.06-0.96-0.83-1.64s0.96-1.06,1.64-0.83l4.1,1.34c0.68,0.22,1.06,0.96,0.83,1.64
				C1491.84,696.87,1491.33,697.22,1490.78,697.22z M1801.77,692.14c-0.4,0-0.8-0.19-1.05-0.53c-0.42-0.58-0.3-1.39,0.28-1.82
				l3.48-2.54c0.58-0.42,1.39-0.3,1.81,0.28c0.42,0.58,0.3,1.39-0.28,1.82l-3.48,2.54C1802.3,692.06,1802.04,692.14,1801.77,692.14z
				 M1808.73,687.06c-0.4,0-0.8-0.19-1.05-0.53c-0.42-0.58-0.3-1.39,0.28-1.82l3.48-2.54c0.58-0.42,1.39-0.3,1.81,0.28
				c0.42,0.58,0.3,1.39-0.28,1.82l-3.48,2.54C1809.27,686.98,1809,687.06,1808.73,687.06z M1815.7,681.97c-0.4,0-0.8-0.19-1.05-0.53
				c-0.42-0.58-0.3-1.39,0.28-1.82l3.48-2.54c0.58-0.42,1.39-0.3,1.81,0.28c0.42,0.58,0.3,1.39-0.28,1.82l-3.48,2.54
				C1816.23,681.89,1815.96,681.97,1815.7,681.97z M1822.66,676.89c-0.4,0-0.8-0.19-1.05-0.53c-0.42-0.58-0.3-1.39,0.28-1.82
				l3.48-2.54c0.58-0.42,1.39-0.29,1.81,0.28c0.42,0.58,0.3,1.39-0.28,1.82l-3.48,2.54C1823.2,676.81,1822.93,676.89,1822.66,676.89
				z M1829.63,671.8c-0.4,0-0.8-0.18-1.05-0.53c-0.42-0.58-0.3-1.39,0.28-1.82l3.48-2.54c0.58-0.42,1.39-0.3,1.81,0.28
				c0.42,0.58,0.3,1.39-0.28,1.82l-3.48,2.54C1830.16,671.72,1829.89,671.8,1829.63,671.8z"/>
			<path class="st12" d="M1836.6,666.71c-0.4,0-0.8-0.18-1.05-0.53c-0.42-0.58-0.3-1.39,0.28-1.81l1.75-1.28
				c0.58-0.42,1.39-0.3,1.82,0.28c0.42,0.58,0.3,1.39-0.28,1.82l-1.75,1.28C1837.13,666.63,1836.87,666.71,1836.6,666.71z"/>
		</g>
		<path class="st12" d="M1846.71,740.8c-0.37,0-0.74-0.16-0.99-0.46c-0.46-0.55-0.39-1.37,0.16-1.83
			c0.1-0.09,10.38-8.87,17.23-24.04c9.17-20.29,8.23-41.77-2.8-63.85c-9.33-18.69-21.91-28.89-30.82-34.15
			c-9.66-5.71-17.22-7.02-17.3-7.03c-0.71-0.12-1.19-0.79-1.07-1.49c0.12-0.71,0.79-1.18,1.49-1.07c0.32,0.05,8.02,1.37,18.08,7.29
			c9.24,5.44,22.29,15.98,31.94,35.3c14.22,28.46,9.37,51.7,2.79,66.18c-7.11,15.68-17.44,24.49-17.88,24.86
			C1847.3,740.7,1847,740.8,1846.71,740.8z"/>
		<path class="st14" d="M1981.66,719.49c0,0-50.57-106.7-124.46-145.6c0,0,131.97,62.12,144.56,148.38L1981.66,719.49z"/>
	</g>
</g>
<g>
	<path class="st11" d="M822.36,1213.95c-62.57,0-123.28-12.26-180.44-36.44c-55.2-23.35-104.77-56.77-147.33-99.33
		c-42.56-42.56-75.98-92.13-99.33-147.33c-24.18-57.17-36.44-117.88-36.44-180.44s12.26-123.28,36.44-180.44
		c23.35-55.2,56.77-104.77,99.33-147.33c42.56-42.56,92.13-75.98,147.33-99.33c57.17-24.18,117.88-36.44,180.44-36.44
		s123.28,12.26,180.44,36.44c55.2,23.35,104.77,56.77,147.33,99.33c42.56,42.56,75.98,92.13,99.33,147.33
		c24.18,57.17,36.44,117.88,36.44,180.44s-12.26,123.28-36.44,180.44c-23.35,55.2-56.77,104.77-99.33,147.33
		c-42.56,42.56-92.13,75.98-147.33,99.33C945.63,1201.69,884.92,1213.95,822.36,1213.95z"/>
	<g>
		<defs>
			<circle id="XMLID_457_" cx="822.36" cy="750.4" r="435.64"/>
		</defs>
		<use xlink:href="#XMLID_457_"  style="overflow:visible;fill:#FFA648;"/>
		<clipPath id="XMLID_00000003820605560889801300000001041425675511495048_">
			<use xlink:href="#XMLID_457_"  style="overflow:visible;"/>
		</clipPath>
	</g>
	<g>
		<defs>
			<circle id="XMLID_456_" cx="824.96" cy="747.27" r="410.6"/>
		</defs>
		<use xlink:href="#XMLID_456_"  style="overflow:visible;fill:#F7F7F7;"/>
		<clipPath id="XMLID_00000008847992957185834730000012336844517148200885_">
			<use xlink:href="#XMLID_456_"  style="overflow:visible;"/>
		</clipPath>
		<path style="opacity:0.14;clip-path:url(#XMLID_00000008847992957185834730000012336844517148200885_);fill:#E8E8E8;" d="
			M1060.6,385.63c0,0-76.96,442.38-673.88,582.68c0,0,172.94,312.16,616.08,209.2c0,0,241.61-67.29,278.52-450.2
			C1281.31,727.31,1234.57,451.78,1060.6,385.63z"/>
	</g>
	<g>
		<g>
			<rect x="812.72" y="363.95" class="st2" width="23.71" height="43.37"/>
			<rect x="813.48" y="1087.22" class="st2" width="23.71" height="43.37"/>
		</g>
		<g>
			
				<rect x="1068.55" y="469.6" transform="matrix(0.7071 0.7071 -0.7071 0.7071 663.8344 -620.0682)" class="st2" width="23.71" height="43.37"/>
			
				<rect x="557.65" y="981.57" transform="matrix(0.7071 0.7071 -0.7071 0.7071 876.207 -108.8599)" class="st2" width="23.71" height="43.37"/>
		</g>
		<g>
			
				<rect x="451.46" y="725.96" transform="matrix(6.123234e-17 -1 1 6.123234e-17 -284.326 1210.9659)" class="st2" width="23.71" height="43.37"/>
			
				<rect x="1174.74" y="725.2" transform="matrix(6.123234e-17 -1 1 6.123234e-17 439.7068 1933.4777)" class="st2" width="23.71" height="43.37"/>
		</g>
		<g>
			
				<rect x="557.12" y="470.13" transform="matrix(0.7071 -0.7071 0.7071 0.7071 -181.1209 546.3721)" class="st2" width="23.71" height="43.37"/>
			
				<rect x="1069.08" y="981.03" transform="matrix(0.7071 -0.7071 0.7071 0.7071 -392.4243 1058.0322)" class="st2" width="23.71" height="43.37"/>
		</g>
	</g>
	<path class="st11" d="M836.92,732.71l-11.94,19.07L813,732.64c-4.45-7.11-6.63-15.4-6.25-23.78l8.44-184.58
		c0.11-2.46,2.14-4.39,4.6-4.39h9.67c2.45,0,4.47,1.92,4.6,4.37l9.1,184.51C843.57,717.2,841.39,725.56,836.92,732.71z"/>
	<path class="st11" d="M598.86,984.25l-10.35-10.35c-1.77-1.77-1.77-4.65,0-6.42L793.5,762.5l16.77,16.77L605.27,984.25
		C603.5,986.02,600.63,986.02,598.86,984.25z"/>
	
		<ellipse transform="matrix(0.7071 -0.7071 0.7071 0.7071 -287.8033 800.4734)" class="st6" cx="822.36" cy="747.65" rx="51.89" ry="51.89"/>
</g>
<g>
	<defs>
		<path id="XMLID_458_" d="M2205.57,722.27c0,0,15.22-61.86,178.71-79.84l41.4,114.59c0,0-122.23-21.92-175.32,43.52L2205.57,722.27
			z"/>
	</defs>
	<use xlink:href="#XMLID_458_"  style="overflow:visible;fill:#E8E8E8;"/>
	<clipPath id="XMLID_00000182526719287819009230000015464581132441791927_">
		<use xlink:href="#XMLID_458_"  style="overflow:visible;"/>
	</clipPath>
	<path style="clip-path:url(#XMLID_00000182526719287819009230000015464581132441791927_);fill:#D1D1D1;" d="M2227.76,664.14
		c0,0,38.21,85.43,174.34,104.26l-156.83,47.63l-58.91-86.12L2227.76,664.14z"/>
</g>
<path class="st3" d="M1855.72,1327.99c0,0,79.57-58.14,218.8-51.97l21.15,115.44c0,0-108.86-0.46-199.18,24.68L1855.72,1327.99z"/>
<g>
	<path class="st3" d="M2304.99,1280.56c0,0,38.77,59.91,181.72,29.76l-33.54,58.16c-18.33,31.78-53.94,49.47-90.33,44.78
		c-52.13-6.72-123.06-26.9-157.27-85.5L2304.99,1280.56z"/>
	<path class="st2" d="M2339.06,1409.4c0,0,38.55-27.29,30.52-69.87c0,0,44.84,0.07,79.82,34.93
		C2449.4,1374.46,2421.99,1427.98,2339.06,1409.4z"/>
</g>
<g>
	<path class="st3" d="M1441.19,1128.4c0,0,62.31,38.8,105.68,30.24l58-96.14c-130.18-33.07-151.75-143.45-151.75-143.45l-80.4,101.9
		C1382.64,1065.79,1411.17,1101.71,1441.19,1128.4"/>
	<path class="st2" d="M1441.19,1128.4c0,0,37.08,17.61,83.13-14.18l22.54,44.42C1546.87,1158.64,1513.98,1169.59,1441.19,1128.4z"/>
</g>
<g>
	<path class="st17" d="M1621.11,1432.87h-496.76c-15.29,0-27.69-12.4-27.69-27.69l0,0c0-15.29,12.4-27.69,27.69-27.69h496.76
		c15.29,0,27.69,12.4,27.69,27.69l0,0C1648.8,1420.47,1636.4,1432.87,1621.11,1432.87z"/>
	<path class="st6" d="M1124.34,1442.41c-20.53,0-37.24-16.7-37.24-37.24c0-20.53,16.7-37.24,37.24-37.24h496.76
		c20.53,0,37.24,16.7,37.24,37.24c0,20.53-16.71,37.24-37.24,37.24H1124.34z"/>
	<g>
		<defs>
			<path id="XMLID_436_" d="M1621.11,1432.87h-496.76c-15.29,0-27.69-12.4-27.69-27.69l0,0c0-15.29,12.4-27.69,27.69-27.69h496.76
				c15.29,0,27.69,12.4,27.69,27.69l0,0C1648.8,1420.47,1636.4,1432.87,1621.11,1432.87z"/>
		</defs>
		<use xlink:href="#XMLID_436_"  style="overflow:visible;fill:#FFC967;"/>
		<clipPath id="XMLID_00000018234788448121113680000013967250561742204047_">
			<use xlink:href="#XMLID_436_"  style="overflow:visible;"/>
		</clipPath>
		<g style="clip-path:url(#XMLID_00000018234788448121113680000013967250561742204047_);">
			<defs>
				<polygon id="XMLID_437_" points="1493.02,1362.05 1451,1456.39 1658.34,1456.39 1658.34,1360.46 				"/>
			</defs>
			<use xlink:href="#XMLID_437_"  style="overflow:visible;fill:#F7F7F7;"/>
			<clipPath id="XMLID_00000113314574677132644760000000279914753617922460_">
				<use xlink:href="#XMLID_437_"  style="overflow:visible;"/>
			</clipPath>
			<polygon style="clip-path:url(#XMLID_00000113314574677132644760000000279914753617922460_);fill:#FFC967;" points="
				1509.96,1374.2 1483.86,1435.01 1506.1,1435.01 1532.2,1373.31 			"/>
		</g>
	</g>
</g>
<rect x="269.69" y="1781.62" class="st6" width="2460.62" height="5"/>
</svg>
